<svg id="Layer_1" data-name="Layer 1" xmlns="http://www.w3.org/2000/svg" viewBox="0 0 1500 843.57"><defs><style>.cls-1{fill:#f5f5f5;}.cls-2,.cls-22{fill:#fafafa;}.cls-3,.cls-5,.cls-6{fill:#e0e0e0;}.cls-4{fill:#ebebeb;}.cls-5{opacity:0.7;}.cls-19,.cls-20,.cls-22,.cls-23,.cls-5,.cls-6{isolation:isolate;}.cls-19,.cls-6{opacity:0.4;}.cls-7{fill:#53a0ff;}.cls-19,.cls-20,.cls-8{fill:#9d1f76;}.cls-9{fill:#99644c;}.cls-10{fill:#c4398b;}.cls-11{fill:#7eb8ff;}.cls-12{fill:#a9cfff;}.cls-13{fill:#d9458b;}.cls-14{fill:#002652;}.cls-15,.cls-22,.cls-23{opacity:0.1;}.cls-16{fill:#1d2445;}.cls-17{fill:#407bff;}.cls-18{opacity:0.3;}.cls-20,.cls-25{opacity:0.2;}.cls-21{fill:#d19dc4;}.cls-24{opacity:0.8;}.cls-26{fill:none;}</style></defs><g id="freepik--Shadow--inject-42"><ellipse class="cls-1" cx="750" cy="799.96" rx="750" ry="43.61"/></g><g id="freepik--background-complete--inject-42"><rect class="cls-2" x="162.47" y="782.36" width="1199.71" height="0.6"/><rect class="cls-3" x="1118.37" y="808.36" width="59.58" height="0.6"/><rect class="cls-3" x="1195.56" y="808.05" width="20.13" height="0.6"/><rect class="cls-3" x="834.4" y="812.06" width="124.75" height="0.6"/><rect class="cls-3" x="786.36" y="818.54" width="18.6" height="0.6"/><rect class="cls-3" x="399.03" y="799.63" width="32.06" height="0.6"/><rect class="cls-3" x="444.4" y="799.63" width="162.58" height="0.6"/><rect class="cls-3" x="355.29" y="814.07" width="113.11" height="0.6"/><path class="cls-3" d="M1004.13,810.78H540.83a13.67,13.67,0,0,1-13.68-13.64V148.53A13.68,13.68,0,0,1,540.83,135h463.3a13.67,13.67,0,0,1,13.7,13.64h0v648.5A13.67,13.67,0,0,1,1004.13,810.78Zm-463.3-675.3a13.07,13.07,0,0,0-13.08,13.05V797.14a13.07,13.07,0,0,0,13.08,13h463.3a13.09,13.09,0,0,0,13.1-13V148.53a13.09,13.09,0,0,0-13.1-13.05Z" transform="translate(-273 -135)"/><path class="cls-3" d="M1523.15,810.78H1059.82a13.69,13.69,0,0,1-13.7-13.64V148.53a13.69,13.69,0,0,1,13.7-13.53h463.33a13.68,13.68,0,0,1,13.65,13.53V797.14A13.68,13.68,0,0,1,1523.15,810.78Zm-463.33-675.3a13.09,13.09,0,0,0-13.1,13.05V797.14a13.09,13.09,0,0,0,13.1,13h463.33a13.09,13.09,0,0,0,13.1-13V148.53a13.1,13.1,0,0,0-13.1-13.05Z" transform="translate(-273 -135)"/><rect class="cls-3" x="982.47" y="629.14" width="84.77" height="153.22"/><rect class="cls-4" x="1067.24" y="629.14" width="101.14" height="153.22"/><rect class="cls-5" x="982.47" y="642.11" width="186.79" height="6.93"/><rect class="cls-3" x="977.79" y="613.08" width="89.45" height="31.93"/><rect class="cls-4" x="1067.24" y="613.1" width="105.81" height="31.93"/><rect class="cls-3" x="342.74" y="45.38" width="285.36" height="339.09"/><rect class="cls-4" x="348.85" y="45.38" width="292.32" height="339.09"/><rect class="cls-3" x="342.74" y="384.46" width="285.36" height="24.16"/><rect class="cls-4" x="370.59" y="384.46" width="292.32" height="24.16"/><rect class="cls-1" x="367.14" y="63.59" width="255.75" height="302.67"/><polygon class="cls-2" points="398.52 366.25 505.8 63.59 556.43 63.59 449.17 366.25 398.52 366.25"/><path class="cls-4" d="M648.58,398.57a1.3,1.3,0,0,1-1.29-1.31V210.42a1.29,1.29,0,0,1,1.29-1.29h0a1.31,1.31,0,0,1,1.32,1.29V397.26a1.31,1.31,0,0,1-1.32,1.31Z" transform="translate(-273 -135)"/><polygon class="cls-2" points="460.04 366.25 567.32 63.59 587.07 63.59 479.79 366.25 460.04 366.25"/><rect class="cls-3" x="620.54" y="63.59" width="2.33" height="302.67"/><polygon class="cls-3" points="645.47 86.86 360.13 86.86 358.45 70.66 643.79 70.66 645.47 86.86"/><polygon class="cls-3" points="645.47 98.74 360.13 98.74 358.45 82.51 643.79 82.51 645.47 98.74"/><polygon class="cls-3" points="645.47 112.98 360.13 112.98 358.45 96.75 643.79 96.75 645.47 112.98"/><polygon class="cls-3" points="645.47 128.82 360.13 128.82 358.45 112.62 643.79 112.62 645.47 128.82"/><polygon class="cls-3" points="645.47 147.82 360.13 147.82 358.45 131.6 643.79 131.6 645.47 147.82"/><polygon class="cls-3" points="645.47 169.16 360.13 169.16 358.45 152.96 643.79 152.96 645.47 169.16"/><rect class="cls-3" x="861.73" y="45.38" width="285.36" height="339.09"/><rect class="cls-4" x="867.82" y="45.38" width="292.32" height="339.09"/><rect class="cls-3" x="861.73" y="384.46" width="285.36" height="24.16"/><rect class="cls-4" x="889.59" y="384.46" width="292.32" height="24.16"/><rect class="cls-1" x="886.13" y="63.59" width="255.75" height="302.67"/><polygon class="cls-2" points="917.51 366.25 1024.79 63.59 1075.42 63.59 968.14 366.25 917.51 366.25"/><path class="cls-4" d="M1167.58,398.57a1.31,1.31,0,0,1-1.3-1.31V210.42a1.3,1.3,0,0,1,2.59,0V397.26A1.3,1.3,0,0,1,1167.58,398.57Z" transform="translate(-273 -135)"/><polygon class="cls-2" points="979.04 366.25 1086.31 63.59 1106.04 63.59 998.78 366.25 979.04 366.25"/><rect class="cls-3" x="1139.53" y="63.59" width="2.33" height="302.67"/><polygon class="cls-3" points="1164.46 86.86 879.13 86.86 877.42 70.66 1162.78 70.66 1164.46 86.86"/><polygon class="cls-3" points="1164.46 98.74 879.13 98.74 877.42 82.51 1162.78 82.51 1164.46 98.74"/><polygon class="cls-3" points="1164.46 112.98 879.13 112.98 877.42 96.75 1162.78 96.75 1164.46 112.98"/><polygon class="cls-3" points="1164.46 128.82 879.13 128.82 877.42 112.62 1162.78 112.62 1164.46 128.82"/><polygon class="cls-3" points="1164.46 147.82 879.13 147.82 877.42 131.6 1162.78 131.6 1164.46 147.82"/><polygon class="cls-3" points="1164.46 169.16 879.13 169.16 877.42 152.96 1162.78 152.96 1164.46 169.16"/><rect class="cls-3" x="868.59" y="567.44" width="56.99" height="214.92"/><polygon class="cls-1" points="914.73 782.36 925.55 782.36 925.55 756.02 903.38 756.02 914.73 782.36"/><rect class="cls-3" x="315.58" y="567.44" width="56.99" height="214.92"/><rect class="cls-1" x="363.11" y="567.44" width="562.47" height="200.44"/><rect class="cls-3" x="647.97" y="577.47" width="269.21" height="143.14"/><rect class="cls-3" x="371.51" y="577.47" width="269.21" height="143.14"/><rect class="cls-3" x="647.94" y="734.92" width="269.21" height="15.94"/><rect class="cls-3" x="371.48" y="734.95" width="269.21" height="15.94"/><path class="cls-1" d="M873.91,721H684.36a31.28,31.28,0,0,1-22.53-9.56H896.54A31.29,31.29,0,0,1,873.91,721Z" transform="translate(-273 -135)"/><path class="cls-1" d="M1151.38,721H961.83a31.26,31.26,0,0,1-22.53-9.56H1174A31.12,31.12,0,0,1,1151.38,721Z" transform="translate(-273 -135)"/><polygon class="cls-1" points="373.93 782.36 363.08 782.36 363.08 756.02 385.25 756.02 373.93 782.36"/><rect class="cls-6" x="712.22" y="435.48" width="63.44" height="131.95"/><polygon class="cls-3" points="828.95 567.44 721.58 567.44 711.48 424.94 818.83 424.94 828.95 567.44"/><polygon class="cls-1" points="841.17 567.44 724.63 567.44 714.52 424.94 831.04 424.94 841.17 567.44"/><polygon class="cls-2" points="730.02 561.99 720.69 430.39 825.67 430.39 835.02 561.99 730.02 561.99"/><polygon class="cls-1" points="755.43 532.52 750.28 459.86 800.26 459.86 805.41 532.52 755.43 532.52"/><ellipse class="cls-4" cx="544.81" cy="516.27" rx="27.88" ry="27.77"/><ellipse class="cls-4" cx="592.56" cy="529.51" rx="27.88" ry="27.77"/><ellipse class="cls-4" cx="632.92" cy="517.92" rx="18.6" ry="18.52"/><ellipse class="cls-4" cx="572.74" cy="499.5" rx="18.6" ry="18.52"/><path class="cls-3" d="M773.23,659.54s2.19,42.9,85.85,42.9,85.86-42.9,85.86-42.9Z" transform="translate(-273 -135)"/><path class="cls-3" d="M696,687.74s-27.25-46.79,10.56-84c0,0,9.86,6.4,9.6,15s-10.58,10.78-8.35,18,12,14.34,5.64,20.19,1,11.21.6,18.5S696,687.74,696,687.74Z" transform="translate(-273 -135)"/><path class="cls-3" d="M698,692s11-53-36.64-76.47c0,0-7.35,9.2-4.47,17.32s13.44,6.91,13.61,14.34-7,17.3,1.05,20.91,2.57,11,5.28,17.76S698,692,698,692Z" transform="translate(-273 -135)"/><path class="cls-4" d="M656.21,667.52s.92,34.92,35.66,34.92,35.65-34.92,35.65-34.92Z" transform="translate(-273 -135)"/></g><path class="cls-7" d="M653.38,640a1.06,1.06,0,0,0,1.07-1V555a1.07,1.07,0,0,0-2.13,0v84A1.05,1.05,0,0,0,653.38,640Z" transform="translate(-273 -135)"/><path class="cls-7" d="M651.33,645.49h4.11A1.7,1.7,0,0,0,657,643L654.91,639a1.72,1.72,0,0,0-3.06,0L649.8,643A1.7,1.7,0,0,0,651.33,645.49Z" transform="translate(-273 -135)"/><polygon class="cls-8" points="288.82 370.57 381.46 370.57 375.05 300.63 352.53 248.49 269.71 247.91 288.82 370.57"/><path class="cls-9" d="M582.26,362.88l13.6,44.92,29.77-73.56-14.48-5.76-12.71-5.05-5.37,13.27Z" transform="translate(-273 -135)"/><path class="cls-8" d="M631.7,374.65l-61.37-13.94c-17.81-4-33.41,12.42-28.23,29.77l5,16.84Z" transform="translate(-273 -135)"/><path class="cls-10" d="M508.06,908.7l22.11,7.6,7.67-21.89a7.59,7.59,0,0,0-4.72-9.67l-7.64-2.62a7.68,7.68,0,0,0-9.75,4.68Z" transform="translate(-273 -135)"/><path class="cls-11" d="M520,925.72,535.68,906s4.2,15.17,6.12,16.77" transform="translate(-273 -135)"/><path class="cls-9" d="M552.82,710.36l-32.11,64.82a33.86,33.86,0,0,0-3.17,10.18L499.31,911.92s25.22,5.42,24.24,5.09l47.72-125.86L580,731.23Z" transform="translate(-273 -135)"/><path class="cls-11" d="M530.59,926.36l-39.4-5,.7-5.52a45.15,45.15,0,0,1,5.43-15.28l5.29-9.19,31,17.57-3,17.44" transform="translate(-273 -135)"/><path class="cls-11" d="M525.66,925.53l11.41-14.64-3.72-13.45a5.93,5.93,0,0,0-4.72-4.26l-26.32-4.57-2.57,15c.9.16,22.28,16.88,22.8,17.61l3.12,4.34" transform="translate(-273 -135)"/><ellipse class="cls-12" cx="526.52" cy="911.07" rx="7.26" ry="3.4" transform="translate(-733.63 1140.5) rotate(-80.24)"/><path class="cls-12" d="M490.46,926.52l1-6,.25-.14a6,6,0,0,1,3.72-.78l15.45,1.81a37,37,0,0,1,14,4.57" transform="translate(-273 -135)"/><path class="cls-9" d="M622.29,548l13.39,42.87L575.35,751.7s-27.82-16-27.82-17L571.81,550Z" transform="translate(-273 -135)"/><path class="cls-8" d="M599.74,367.54l29.71,6.2a23.72,23.72,0,0,1,19,23.16v85.7Z" transform="translate(-273 -135)"/><rect class="cls-9" x="343.02" y="159.76" width="18.14" height="22.85"/><rect x="331.95" y="143.34" width="12.3" height="45.7"/><path d="M599.68,333l13.89,6.12V280.82a6.23,6.23,0,0,0-6.25-6.2h-2.81a21.74,21.74,0,0,0-21.62,24.94l2.23,14.51A24.78,24.78,0,0,0,599.68,333Z" transform="translate(-273 -135)"/><path class="cls-9" d="M642.87,296.21v10.9a3,3,0,0,1-.22,1.15l-1.46,3.6a3.06,3.06,0,0,0,.81,3.45l.87.78v21.08a6.21,6.21,0,0,1-6.27,6.19l-39.48-.16.16-13.32Z" transform="translate(-273 -135)"/><rect class="cls-9" x="330.13" y="179.66" width="9.08" height="13.7"/><path class="cls-9" d="M603.48,317.58H617.7v-14H603.48a5.66,5.66,0,0,0-5.69,5.63V312A5.66,5.66,0,0,0,603.48,317.58Z" transform="translate(-273 -135)"/><path d="M628.72,291.14H610.15v9.44a43.66,43.66,0,0,1-6.23.27c-.64-.21,6.06,7.15,10.27,11.71a1.87,1.87,0,0,0,3.26-1.25v-6a1.87,1.87,0,0,1,1.87-1.86h9.4Z" transform="translate(-273 -135)"/><path class="cls-9" d="M621.56,275.86h-.82a6.22,6.22,0,0,0-6.25,6.19v21.51h28.94v-6A21.77,21.77,0,0,0,621.56,275.86Z" transform="translate(-273 -135)"/><path d="M595.24,283.64h21.87v41.8a12.43,12.43,0,0,1-12.49,12.38h-9.38Z" transform="translate(-273 -135)"/><path d="M609.59,276.52h25.76v14.55a12.44,12.44,0,0,1-12.5,12.39H609.59Z" transform="translate(-273 -135)"/><path class="cls-9" d="M623.21,704.64l-3.89,71.72a34.57,34.57,0,0,1-.91,6.22l-31.1,128.61s-29.9-.08-28.87,0l7.46-134.62a34.9,34.9,0,0,1,2.64-11.45l21.19-50.87Z" transform="translate(-273 -135)"/><path class="cls-9" d="M647.15,527.44l10.24,39.71a13.4,13.4,0,0,1,.06,6.42L622,724.43s-35.08,3-35,2l5.91-108.88,3.64-88.06Z" transform="translate(-273 -135)"/><path class="cls-12" d="M590.65,914.77h-8.37L585,899.5a6,6,0,0,1,5.88-4.89h3.36Z" transform="translate(-273 -135)"/><rect class="cls-9" x="286.01" y="775.51" width="28.6" height="10.3"/><path class="cls-11" d="M552.84,934.41a44.83,44.83,0,0,1,2.78-16l3.66-9.94,33.5,12.19v17.7" transform="translate(-273 -135)"/><path class="cls-11" d="M603.78,923.79a20.49,20.49,0,0,1-11.66-7.64l-5.67-7.55a6.89,6.89,0,0,0-5.51-2.75H558.52v15.19c.91,0,24.8,12.94,25.44,13.58" transform="translate(-273 -135)"/><path class="cls-12" d="M575.72,925.2a7.33,7.33,0,0,0-14.65,0" transform="translate(-273 -135)"/><polygon class="cls-13" points="278.4 564.25 357.67 564.25 385.91 439.43 277.31 439.43 278.4 564.25"/><polygon class="cls-8" points="288.71 369.49 381.56 369.49 385.91 439.43 277.31 439.43 288.71 369.49"/><path class="cls-9" d="M633.52,344.35H621.85V314.92H639.8a4.61,4.61,0,0,1,4.63,4.59v14A10.86,10.86,0,0,1,633.52,344.35Z" transform="translate(-273 -135)"/><path class="cls-14" d="M638.75,361.33l-63.07-18a5.92,5.92,0,0,1-4.32-5.68V295.84a23.77,23.77,0,0,1,23.88-23.66h24.4a19,19,0,0,1,19.11,18.93Z" transform="translate(-273 -135)"/><path class="cls-14" d="M645.26,303.57H601.57V272.18h20.78a25.18,25.18,0,0,1,25.3,25.07v3.95A2.38,2.38,0,0,1,645.26,303.57Z" transform="translate(-273 -135)"/><path class="cls-9" d="M476.37,349.23,491,351.91v91.76a11.23,11.23,0,0,1-10.88,11.17h0a11.25,11.25,0,0,1-11.62-10l-2.23-20.65a41.69,41.69,0,0,1,.25-10.82Z" transform="translate(-273 -135)"/><path class="cls-9" d="M765.94,501.59l3.56,1.88,2.35,1.25L784,497.1a.86.86,0,0,0,.36-1.17v0a3.39,3.39,0,0,0-4-1l-1.11.52h0Z" transform="translate(-273 -135)"/><path class="cls-9" d="M765.24,499.94l-1.1.69.16.09,1.64.87,3.56,1.88,9.7-8h0l.9-.75a.87.87,0,0,0,.19-1.21h0a3.38,3.38,0,0,0-4.08-.47Z" transform="translate(-273 -135)"/><path class="cls-9" d="M759.14,498l5,2.65.16.09.94-.79,8.44-7a.86.86,0,0,0,.2-1.21h0a3.39,3.39,0,0,0-4.08-.47Z" transform="translate(-273 -135)"/><path class="cls-9" d="M474.15,344.54l.14,17.64,9.07-4.21.74-.12a17.09,17.09,0,0,0,6.79-2.86,16.91,16.91,0,0,0,5-5.4l0,0,13.46-22.29a1.24,1.24,0,0,0-.14-1.54l-.15-.13a2.42,2.42,0,0,0-3.39.32l-8.28,8.53a2.89,2.89,0,0,1-1.22.71,2.71,2.71,0,0,1-3.31-1.86L486.7,315.5l-3.36,1.89a5.2,5.2,0,0,0-2.65,4.24h0a19.39,19.39,0,0,1-.71,4.14l-3.56,12.45a10.26,10.26,0,0,1-1.23,2.74A6.58,6.58,0,0,0,474.15,344.54Z" transform="translate(-273 -135)"/><path class="cls-9" d="M483.24,296.74a3.53,3.53,0,0,1,2.94,3.13L488,326.35l-7.69,4.31,2-33a.91.91,0,0,1,.9-.92Z" transform="translate(-273 -135)"/><path class="cls-8" d="M475.06,428.22l42-30.57,30.67-30.06,11.86,40.19-56.16,33.41L490,449.76a13.29,13.29,0,0,1-18.3-3.95h0A13,13,0,0,1,475.06,428.22Z" transform="translate(-273 -135)"/><path class="cls-9" d="M596.05,699.14h2.5a11.9,11.9,0,0,0,11.9-10.82l3.84-44.59v44.36a11.11,11.11,0,0,0,11.16,11h0v10.73h-29.4Z" transform="translate(-273 -135)"/><path class="cls-9" d="M751.11,485.92l-5.38-13.73-98.41,17.95,6,17a6.39,6.39,0,0,0,6.54,4.2l19.6-1.59a37.26,37.26,0,0,0,9.11-1.93Z" transform="translate(-273 -135)"/><polygon class="cls-8" points="376.25 362.13 343.69 281.54 339.41 256.99 374.88 261.62 400.54 350.18 376.25 362.13"/><polygon class="cls-8" points="341.63 235.81 304.43 227.53 274.95 280.01 349.2 298.29 341.63 235.81"/><path class="cls-9" d="M602,371.58l-19.16-6.48a1.2,1.2,0,0,1-.73-1.58l4.88-12,27.7,9.37-2.45,6A8.22,8.22,0,0,1,602,371.58Z" transform="translate(-273 -135)"/><path class="cls-13" d="M626.87,373.4l-51.93-10.74L542.3,383.85l16.54,38a12,12,0,0,0,19.74,3.34Z" transform="translate(-273 -135)"/><polygon class="cls-7" points="347.17 236.82 302.57 226.4 269.3 248.85 347.17 236.82"/><g class="cls-15"><path class="cls-16" d="M769.79,491.28a3.37,3.37,0,0,1,4.08.46h0a.87.87,0,0,1-.2,1.21l-8.45,7,11-6.92a3.38,3.38,0,0,1,4.08.47h0a.86.86,0,0,1-.19,1.21l-.89.75,1.11-.52a3.39,3.39,0,0,1,4,1v0a.86.86,0,0,1-.36,1.17l-12.12,7.61-2.35-1.24L766,501.59l-1.65-.87-.15-.09-5-2.65Z" transform="translate(-273 -135)"/></g><g id="freepik--Calendar--inject-42"><path class="cls-17" d="M792,622.46a4.9,4.9,0,0,1,0-9.78c12,0,22.16-17.15,22.16-37.46a4.92,4.92,0,0,1,9.82,0C824,601.71,810,622.46,792,622.46Z" transform="translate(-273 -135)"/><path class="cls-17" d="M866.21,622.46a4.9,4.9,0,0,1,0-9.78c12,0,22.16-17.15,22.16-37.46a4.92,4.92,0,0,1,9.82,0C898.29,601.71,884.14,622.46,866.21,622.46Z" transform="translate(-273 -135)"/><path class="cls-17" d="M940.34,622.46a4.9,4.9,0,0,1,0-9.78c12,0,22.16-17.15,22.16-37.46a4.9,4.9,0,0,1,9.8,0C972.36,601.71,958.34,622.46,940.34,622.46Z" transform="translate(-273 -135)"/><path class="cls-17" d="M1014.6,622.46a4.9,4.9,0,1,1-.64-9.78h.64c12,0,22.16-17.15,22.16-37.46a4.9,4.9,0,0,1,9.79,0C1046.55,601.71,1032.51,622.46,1014.6,622.46Z" transform="translate(-273 -135)"/><path class="cls-17" d="M1088.77,622.46a4.9,4.9,0,0,1,0-9.78c12,0,22.16-17.15,22.16-37.46a4.92,4.92,0,0,1,9.82,0C1120.75,601.71,1106.71,622.46,1088.77,622.46Z" transform="translate(-273 -135)"/><path class="cls-17" d="M1163,622.46a4.9,4.9,0,0,1,0-9.78c12,0,22.16-17.15,22.16-37.46a4.92,4.92,0,0,1,9.81,0C1194.94,601.71,1180.9,622.46,1163,622.46Z" transform="translate(-273 -135)"/><g class="cls-18"><path d="M792,622.46a4.9,4.9,0,0,1,0-9.78c12,0,22.16-17.15,22.16-37.46a4.92,4.92,0,0,1,9.82,0C824,601.71,810,622.46,792,622.46Z" transform="translate(-273 -135)"/><path d="M866.21,622.46a4.9,4.9,0,0,1,0-9.78c12,0,22.16-17.15,22.16-37.46a4.92,4.92,0,0,1,9.82,0C898.29,601.71,884.14,622.46,866.21,622.46Z" transform="translate(-273 -135)"/><path d="M940.34,622.46a4.9,4.9,0,0,1,0-9.78c12,0,22.16-17.15,22.16-37.46a4.9,4.9,0,0,1,9.8,0C972.36,601.71,958.34,622.46,940.34,622.46Z" transform="translate(-273 -135)"/><path d="M1014.6,622.46a4.9,4.9,0,1,1-.64-9.78h.64c12,0,22.16-17.15,22.16-37.46a4.9,4.9,0,0,1,9.79,0C1046.55,601.71,1032.51,622.46,1014.6,622.46Z" transform="translate(-273 -135)"/><path d="M1088.77,622.46a4.9,4.9,0,0,1,0-9.78c12,0,22.16-17.15,22.16-37.46a4.92,4.92,0,0,1,9.82,0C1120.75,601.71,1106.71,622.46,1088.77,622.46Z" transform="translate(-273 -135)"/><path d="M1163,622.46a4.9,4.9,0,0,1,0-9.78c12,0,22.16-17.15,22.16-37.46a4.92,4.92,0,0,1,9.81,0C1194.94,601.71,1180.9,622.46,1163,622.46Z" transform="translate(-273 -135)"/></g><path class="cls-17" d="M745.53,580.23h477.63a26.26,26.26,0,0,1,25.63,23.43l26.45,297a21.2,21.2,0,0,1-18.87,23.31,22.18,22.18,0,0,1-2.58.12H776.14a26.32,26.32,0,0,1-25.63-23.43l-26.43-297a21.18,21.18,0,0,1,18.82-23.31A21,21,0,0,1,745.53,580.23Z" transform="translate(-273 -135)"/><path class="cls-19" d="M745.53,580.23h477.63a26.26,26.26,0,0,1,25.63,23.43l26.45,297a21.2,21.2,0,0,1-18.87,23.31,22.18,22.18,0,0,1-2.58.12H776.14a26.32,26.32,0,0,1-25.63-23.43l-26.43-297a21.18,21.18,0,0,1,18.82-23.31A21,21,0,0,1,745.53,580.23Z" transform="translate(-273 -135)"/><path class="cls-8" d="M1219.18,580.23H741.53a24.88,24.88,0,0,0-24.59,23.43l-13.46,297A22.3,22.3,0,0,0,724.62,924c.42,0,.85,0,1.27,0h477.69a24.9,24.9,0,0,0,24.6-23.43l13.48-297a22.31,22.31,0,0,0-21.18-23.4C1220.05,580.24,1219.62,580.23,1219.18,580.23Z" transform="translate(-273 -135)"/><path class="cls-20" d="M1219.18,580.23H741.53a24.88,24.88,0,0,0-24.59,23.43l-13.46,297A22.3,22.3,0,0,0,724.62,924c.42,0,.85,0,1.27,0h477.69a24.9,24.9,0,0,0,24.6-23.43l13.48-297a22.31,22.31,0,0,0-21.18-23.4C1220.05,580.24,1219.62,580.23,1219.18,580.23Z" transform="translate(-273 -135)"/><path class="cls-21" d="M750.3,845.58l11.12-245.25a9.51,9.51,0,0,1,9.42-9h418a8.54,8.54,0,0,1,8.61,8.47c0,.16,0,.32,0,.49l-11.15,245.25a9.5,9.5,0,0,1-9.41,9h-418a8.54,8.54,0,0,1-8.61-8.47C750.29,845.91,750.29,845.74,750.3,845.58Z" transform="translate(-273 -135)"/><path class="cls-22" d="M750.3,845.58l11.12-245.25a9.51,9.51,0,0,1,9.42-9h418a8.54,8.54,0,0,1,8.61,8.47c0,.16,0,.32,0,.49l-11.15,245.25a9.5,9.5,0,0,1-9.41,9h-418a8.54,8.54,0,0,1-8.61-8.47C750.29,845.91,750.29,845.74,750.3,845.58Z" transform="translate(-273 -135)"/><path class="cls-23" d="M738.51,865.6l11.67-257.54a9.94,9.94,0,0,1,9.88-9.41h439a9,9,0,0,1,9,8.85c0,.18,0,.37,0,.56L1196.37,865.6a10,10,0,0,1-9.86,9.42h-439a8.92,8.92,0,0,1-9-8.84C738.49,866,738.5,865.79,738.51,865.6Z" transform="translate(-273 -135)"/><path class="cls-2" d="M727.66,886.37l12.17-268.64a10.49,10.49,0,0,1,10.3-9.82h457.93a9.35,9.35,0,0,1,9.44,9.24c0,.19,0,.39,0,.58l-12.23,268.64a10.5,10.5,0,0,1-10.31,9.82H737.08a9.33,9.33,0,0,1-9.44-9.2C727.64,886.78,727.65,886.58,727.66,886.37Z" transform="translate(-273 -135)"/><path class="cls-17" d="M1162.9,624h0a6.3,6.3,0,0,1-6.32-6.27c0-.13,0-.26,0-.39h0a6.6,6.6,0,0,1,6.53-6.28h0a6.28,6.28,0,0,1,6.32,6.27c0,.13,0,.26,0,.39h0A6.61,6.61,0,0,1,1162.9,624Z" transform="translate(-273 -135)"/><path class="cls-17" d="M1088.71,624h0a6.29,6.29,0,0,1-6.32-6.27c0-.13,0-.26,0-.39h0a6.61,6.61,0,0,1,6.54-6.28h0a6.3,6.3,0,0,1,6.32,6.27c0,.13,0,.26,0,.39h0A6.59,6.59,0,0,1,1088.71,624Z" transform="translate(-273 -135)"/><path class="cls-17" d="M1014.51,624h0a6.28,6.28,0,0,1-6.31-6.27,2.54,2.54,0,0,1,0-.39h0a6.62,6.62,0,0,1,6.53-6.28h0a6.28,6.28,0,0,1,6.32,6.27c0,.13,0,.26,0,.39h0A6.59,6.59,0,0,1,1014.51,624Z" transform="translate(-273 -135)"/><path class="cls-17" d="M940.34,624h0a6.3,6.3,0,0,1-6.32-6.27c0-.13,0-.26,0-.39h0a6.66,6.66,0,0,1,6.56-6.28h0a6.29,6.29,0,0,1,6.32,6.27c0,.13,0,.26,0,.39h0A6.59,6.59,0,0,1,940.34,624Z" transform="translate(-273 -135)"/><path class="cls-17" d="M866.15,624h0a6.28,6.28,0,0,1-6.32-6.27c0-.13,0-.26,0-.39h0a6.61,6.61,0,0,1,6.54-6.28h0a6.3,6.3,0,0,1,6.32,6.27c0,.13,0,.26,0,.39h0A6.6,6.6,0,0,1,866.15,624Z" transform="translate(-273 -135)"/><path class="cls-17" d="M792,624h0a6.3,6.3,0,0,1-6.32-6.27c0-.13,0-.26,0-.39h0a6.61,6.61,0,0,1,6.54-6.28h0a6.29,6.29,0,0,1,6.32,6.27c0,.13,0,.26,0,.39h0A6.59,6.59,0,0,1,792,624Z" transform="translate(-273 -135)"/><g class="cls-15"><path class="cls-2" d="M1162.9,624h0a6.3,6.3,0,0,1-6.32-6.27c0-.13,0-.26,0-.39h0a6.6,6.6,0,0,1,6.53-6.28h0a6.28,6.28,0,0,1,6.32,6.27c0,.13,0,.26,0,.39h0A6.61,6.61,0,0,1,1162.9,624Z" transform="translate(-273 -135)"/><path class="cls-2" d="M1088.71,624h0a6.29,6.29,0,0,1-6.32-6.27c0-.13,0-.26,0-.39h0a6.61,6.61,0,0,1,6.54-6.28h0a6.3,6.3,0,0,1,6.32,6.27c0,.13,0,.26,0,.39h0A6.59,6.59,0,0,1,1088.71,624Z" transform="translate(-273 -135)"/><path class="cls-2" d="M1014.51,624h0a6.28,6.28,0,0,1-6.31-6.27,2.54,2.54,0,0,1,0-.39h0a6.62,6.62,0,0,1,6.53-6.28h0a6.28,6.28,0,0,1,6.32,6.27c0,.13,0,.26,0,.39h0A6.59,6.59,0,0,1,1014.51,624Z" transform="translate(-273 -135)"/><path class="cls-2" d="M940.34,624h0a6.3,6.3,0,0,1-6.32-6.27c0-.13,0-.26,0-.39h0a6.66,6.66,0,0,1,6.56-6.28h0a6.29,6.29,0,0,1,6.32,6.27c0,.13,0,.26,0,.39h0A6.59,6.59,0,0,1,940.34,624Z" transform="translate(-273 -135)"/><path class="cls-2" d="M866.15,624h0a6.28,6.28,0,0,1-6.32-6.27c0-.13,0-.26,0-.39h0a6.61,6.61,0,0,1,6.54-6.28h0a6.3,6.3,0,0,1,6.32,6.27c0,.13,0,.26,0,.39h0A6.6,6.6,0,0,1,866.15,624Z" transform="translate(-273 -135)"/><path class="cls-2" d="M792,624h0a6.3,6.3,0,0,1-6.32-6.27c0-.13,0-.26,0-.39h0a6.61,6.61,0,0,1,6.54-6.28h0a6.29,6.29,0,0,1,6.32,6.27c0,.13,0,.26,0,.39h0A6.59,6.59,0,0,1,792,624Z" transform="translate(-273 -135)"/></g><path class="cls-17" d="M810.49,647.42H773.18a3.91,3.91,0,0,1-3.95-3.86c0-.11,0-.22,0-.33h0a4.38,4.38,0,0,1,4.21-4.19h37.32a3.91,3.91,0,0,1,3.94,3.87c0,.11,0,.21,0,.32h0A4.37,4.37,0,0,1,810.49,647.42Z" transform="translate(-273 -135)"/><path class="cls-17" d="M884.69,647.42H847.37a3.9,3.9,0,0,1-3.94-3.86c0-.11,0-.22,0-.33h0a4.37,4.37,0,0,1,4.31-4.19h37.3a3.94,3.94,0,0,1,4,3.89c0,.1,0,.2,0,.3h0A4.36,4.36,0,0,1,884.69,647.42Z" transform="translate(-273 -135)"/><path class="cls-17" d="M958.88,647.42H921.57a3.92,3.92,0,0,1-4-3.89c0-.1,0-.2,0-.3h0a4.38,4.38,0,0,1,4.31-4.19h37.34a3.91,3.91,0,0,1,3.94,3.87,1.71,1.71,0,0,1,0,.32h0A4.35,4.35,0,0,1,958.88,647.42Z" transform="translate(-273 -135)"/><path class="cls-17" d="M1033.06,647.42H995.74a3.89,3.89,0,0,1-3.94-3.86c0-.11,0-.22,0-.33h0A4.37,4.37,0,0,1,996,639h37.32a3.91,3.91,0,0,1,3.94,3.87c0,.11,0,.21,0,.32h0A4.36,4.36,0,0,1,1033.06,647.42Z" transform="translate(-273 -135)"/><path class="cls-17" d="M1107.25,647.42h-37.32a3.9,3.9,0,0,1-3.94-3.86c0-.11,0-.22,0-.33h0a4.38,4.38,0,0,1,4.31-4.19h37.32a3.91,3.91,0,0,1,3.94,3.87c0,.11,0,.21,0,.32h0A4.36,4.36,0,0,1,1107.25,647.42Z" transform="translate(-273 -135)"/><path class="cls-17" d="M1181.45,647.42h-37.32a3.89,3.89,0,0,1-3.94-3.86,1.82,1.82,0,0,1,0-.33h0a4.37,4.37,0,0,1,4.31-4.19h37.29a3.94,3.94,0,0,1,4,3.89c0,.1,0,.2,0,.3h0A4.37,4.37,0,0,1,1181.45,647.42Z" transform="translate(-273 -135)"/><g class="cls-18"><path d="M810.49,647.42H773.18a3.91,3.91,0,0,1-3.95-3.86c0-.11,0-.22,0-.33h0a4.38,4.38,0,0,1,4.21-4.19h37.32a3.91,3.91,0,0,1,3.94,3.87c0,.11,0,.21,0,.32h0A4.37,4.37,0,0,1,810.49,647.42Z" transform="translate(-273 -135)"/><path d="M884.69,647.42H847.37a3.9,3.9,0,0,1-3.94-3.86c0-.11,0-.22,0-.33h0a4.37,4.37,0,0,1,4.31-4.19h37.3a3.94,3.94,0,0,1,4,3.89c0,.1,0,.2,0,.3h0A4.36,4.36,0,0,1,884.69,647.42Z" transform="translate(-273 -135)"/><path d="M958.88,647.42H921.57a3.92,3.92,0,0,1-4-3.89c0-.1,0-.2,0-.3h0a4.38,4.38,0,0,1,4.31-4.19h37.34a3.91,3.91,0,0,1,3.94,3.87,1.71,1.71,0,0,1,0,.32h0A4.35,4.35,0,0,1,958.88,647.42Z" transform="translate(-273 -135)"/><path d="M1033.06,647.42H995.74a3.89,3.89,0,0,1-3.94-3.86c0-.11,0-.22,0-.33h0A4.37,4.37,0,0,1,996,639h37.32a3.91,3.91,0,0,1,3.94,3.87c0,.11,0,.21,0,.32h0A4.36,4.36,0,0,1,1033.06,647.42Z" transform="translate(-273 -135)"/><path d="M1107.25,647.42h-37.32a3.9,3.9,0,0,1-3.94-3.86c0-.11,0-.22,0-.33h0a4.38,4.38,0,0,1,4.31-4.19h37.32a3.91,3.91,0,0,1,3.94,3.87c0,.11,0,.21,0,.32h0A4.36,4.36,0,0,1,1107.25,647.42Z" transform="translate(-273 -135)"/><path d="M1181.45,647.42h-37.32a3.89,3.89,0,0,1-3.94-3.86,1.82,1.82,0,0,1,0-.33h0a4.37,4.37,0,0,1,4.31-4.19h37.29a3.94,3.94,0,0,1,4,3.89c0,.1,0,.2,0,.3h0A4.37,4.37,0,0,1,1181.45,647.42Z" transform="translate(-273 -135)"/></g><path class="cls-8" d="M812.55,726.5H764a7.83,7.83,0,0,1-7.88-7.78c0-.14,0-.28,0-.42l2.11-48.41a8.72,8.72,0,0,1,8.62-8.21h48.6a7.82,7.82,0,0,1,7.88,7.78c0,.14,0,.28,0,.43l-2.11,48.41A8.73,8.73,0,0,1,812.55,726.5Z" transform="translate(-273 -135)"/><path class="cls-8" d="M886.75,726.5H838.14a7.8,7.8,0,0,1-7.87-7.73c0-.16,0-.32,0-.47l2.1-48.41a8.73,8.73,0,0,1,8.62-8.21h48.67a7.84,7.84,0,0,1,7.89,7.8c0,.14,0,.27,0,.41l-2.21,48.41A8.71,8.71,0,0,1,886.75,726.5Z" transform="translate(-273 -135)"/><path class="cls-8" d="M960.92,726.5H912.34a7.84,7.84,0,0,1-7.9-7.8c0-.13,0-.27,0-.4l2.1-48.41a8.73,8.73,0,0,1,8.62-8.21h48.59a7.81,7.81,0,0,1,7.88,7.73c0,.16,0,.32,0,.48l-2.1,48.41A8.72,8.72,0,0,1,960.92,726.5Z" transform="translate(-273 -135)"/><path class="cls-8" d="M1035.12,726.5H986.59a7.82,7.82,0,0,1-7.89-7.75c0-.15,0-.3,0-.45l2.1-48.41a8.71,8.71,0,0,1,8.6-8.21H1038a7.82,7.82,0,0,1,7.87,7.78c0,.14,0,.28,0,.43l-2.1,48.41A8.73,8.73,0,0,1,1035.12,726.5Z" transform="translate(-273 -135)"/><path class="cls-8" d="M1109.31,726.5H1060.7a7.82,7.82,0,0,1-7.87-7.78c0-.14,0-.28,0-.42l2.1-48.41a8.73,8.73,0,0,1,8.62-8.21h48.59a7.81,7.81,0,0,1,7.89,7.76,3.38,3.38,0,0,1,0,.45l-2.1,48.41A8.73,8.73,0,0,1,1109.31,726.5Z" transform="translate(-273 -135)"/><path class="cls-8" d="M1183.49,726.5H1134.9a7.81,7.81,0,0,1-7.88-7.73c0-.16,0-.32,0-.47l2.1-48.41a8.73,8.73,0,0,1,8.62-8.21h48.58a7.84,7.84,0,0,1,7.9,7.8c0,.14,0,.27,0,.41L1192,718.3A8.7,8.7,0,0,1,1183.49,726.5Z" transform="translate(-273 -135)"/><g class="cls-24"><path class="cls-2" d="M812.55,726.5H764a7.83,7.83,0,0,1-7.88-7.78c0-.14,0-.28,0-.42l2.11-48.41a8.72,8.72,0,0,1,8.62-8.21h48.6a7.82,7.82,0,0,1,7.88,7.78c0,.14,0,.28,0,.43l-2.11,48.41A8.73,8.73,0,0,1,812.55,726.5Z" transform="translate(-273 -135)"/><path class="cls-2" d="M886.75,726.5H838.14a7.8,7.8,0,0,1-7.87-7.73c0-.16,0-.32,0-.47l2.1-48.41a8.73,8.73,0,0,1,8.62-8.21h48.67a7.84,7.84,0,0,1,7.89,7.8c0,.14,0,.27,0,.41l-2.21,48.41A8.71,8.71,0,0,1,886.75,726.5Z" transform="translate(-273 -135)"/><path class="cls-2" d="M960.92,726.5H912.34a7.84,7.84,0,0,1-7.9-7.8c0-.13,0-.27,0-.4l2.1-48.41a8.73,8.73,0,0,1,8.62-8.21h48.59a7.81,7.81,0,0,1,7.88,7.73c0,.16,0,.32,0,.48l-2.1,48.41A8.72,8.72,0,0,1,960.92,726.5Z" transform="translate(-273 -135)"/><path class="cls-2" d="M1035.12,726.5H986.59a7.82,7.82,0,0,1-7.89-7.75c0-.15,0-.3,0-.45l2.1-48.41a8.71,8.71,0,0,1,8.6-8.21H1038a7.82,7.82,0,0,1,7.87,7.78c0,.14,0,.28,0,.43l-2.1,48.41A8.73,8.73,0,0,1,1035.12,726.5Z" transform="translate(-273 -135)"/><path class="cls-2" d="M1109.31,726.5H1060.7a7.82,7.82,0,0,1-7.87-7.78c0-.14,0-.28,0-.42l2.1-48.41a8.73,8.73,0,0,1,8.62-8.21h48.59a7.81,7.81,0,0,1,7.89,7.76,3.38,3.38,0,0,1,0,.45l-2.1,48.41A8.73,8.73,0,0,1,1109.31,726.5Z" transform="translate(-273 -135)"/><path class="cls-2" d="M1183.49,726.5H1134.9a7.81,7.81,0,0,1-7.88-7.73c0-.16,0-.32,0-.47l2.1-48.41a8.73,8.73,0,0,1,8.62-8.21h48.58a7.84,7.84,0,0,1,7.9,7.8c0,.14,0,.27,0,.41L1192,718.3A8.7,8.7,0,0,1,1183.49,726.5Z" transform="translate(-273 -135)"/></g><path class="cls-8" d="M809.15,801.61H760.54a7.82,7.82,0,0,1-7.87-7.78c0-.14,0-.29,0-.43l2.1-48.41a8.75,8.75,0,0,1,8.62-8.21h48.69a7.84,7.84,0,0,1,7.88,7.78c0,.15,0,.29,0,.43l-2.11,48.41A8.75,8.75,0,0,1,809.15,801.61Z" transform="translate(-273 -135)"/><path class="cls-8" d="M883.34,801.61h-48.6a7.83,7.83,0,0,1-7.88-7.78c0-.14,0-.29,0-.43L829,745a8.74,8.74,0,0,1,8.62-8.21h48.59a7.85,7.85,0,0,1,7.92,7.78c0,.17,0,.34,0,.52L892,793.4A8.7,8.7,0,0,1,883.34,801.61Z" transform="translate(-273 -135)"/><path class="cls-8" d="M957.52,801.61H908.93a7.8,7.8,0,0,1-7.87-7.74,3.73,3.73,0,0,1,0-.47l2.1-48.41a8.73,8.73,0,0,1,8.62-8.21h48.59a7.81,7.81,0,0,1,7.87,7.74c0,.16,0,.32,0,.47l-2.1,48.41A8.73,8.73,0,0,1,957.52,801.61Z" transform="translate(-273 -135)"/><path class="cls-8" d="M1031.71,801.61H983.12a7.85,7.85,0,0,1-7.89-7.8c0-.14,0-.27,0-.41l2.1-48.41a8.72,8.72,0,0,1,8.6-8.21h48.61a7.84,7.84,0,0,1,8,7.67c0,.21,0,.42,0,.63l-2.1,48.41A8.74,8.74,0,0,1,1031.71,801.61Z" transform="translate(-273 -135)"/><path class="cls-8" d="M1105.91,801.61H1057.3a7.84,7.84,0,0,1-7.88-7.78c0-.14,0-.29,0-.43l2.1-48.41a8.74,8.74,0,0,1,8.64-8.29h48.61a7.83,7.83,0,0,1,7.87,7.78c0,.14,0,.29,0,.43l-2.1,48.41A8.76,8.76,0,0,1,1105.91,801.61Z" transform="translate(-273 -135)"/><path class="cls-8" d="M1180,801.61h-48.53a7.8,7.8,0,0,1-7.87-7.74c0-.15,0-.31,0-.47l2.1-48.41a8.74,8.74,0,0,1,8.62-8.21h48.59a7.85,7.85,0,0,1,7.89,7.81c0,.13,0,.27,0,.4l-2.2,48.41A8.72,8.72,0,0,1,1180,801.61Z" transform="translate(-273 -135)"/><g class="cls-24"><path class="cls-2" d="M809.15,801.61H760.54a7.82,7.82,0,0,1-7.87-7.78c0-.14,0-.29,0-.43l2.1-48.41a8.75,8.75,0,0,1,8.62-8.21h48.69a7.84,7.84,0,0,1,7.88,7.78c0,.15,0,.29,0,.43l-2.11,48.41A8.75,8.75,0,0,1,809.15,801.61Z" transform="translate(-273 -135)"/><path class="cls-2" d="M883.34,801.61h-48.6a7.83,7.83,0,0,1-7.88-7.78c0-.14,0-.29,0-.43L829,745a8.74,8.74,0,0,1,8.62-8.21h48.59a7.85,7.85,0,0,1,7.92,7.78c0,.17,0,.34,0,.52L892,793.4A8.7,8.7,0,0,1,883.34,801.61Z" transform="translate(-273 -135)"/><path class="cls-2" d="M957.52,801.61H908.93a7.8,7.8,0,0,1-7.87-7.74,3.73,3.73,0,0,1,0-.47l2.1-48.41a8.73,8.73,0,0,1,8.62-8.21h48.59a7.81,7.81,0,0,1,7.87,7.74c0,.16,0,.32,0,.47l-2.1,48.41A8.73,8.73,0,0,1,957.52,801.61Z" transform="translate(-273 -135)"/><path class="cls-2" d="M1031.71,801.61H983.12a7.85,7.85,0,0,1-7.89-7.8c0-.14,0-.27,0-.41l2.1-48.41a8.72,8.72,0,0,1,8.6-8.21h48.61a7.84,7.84,0,0,1,8,7.67c0,.21,0,.42,0,.63l-2.1,48.41A8.74,8.74,0,0,1,1031.71,801.61Z" transform="translate(-273 -135)"/><path class="cls-2" d="M1105.91,801.61H1057.3a7.84,7.84,0,0,1-7.88-7.78c0-.14,0-.29,0-.43l2.1-48.41a8.74,8.74,0,0,1,8.64-8.29h48.61a7.83,7.83,0,0,1,7.87,7.78c0,.14,0,.29,0,.43l-2.1,48.41A8.76,8.76,0,0,1,1105.91,801.61Z" transform="translate(-273 -135)"/><path class="cls-2" d="M1180,801.61h-48.53a7.8,7.8,0,0,1-7.87-7.74c0-.15,0-.31,0-.47l2.1-48.41a8.74,8.74,0,0,1,8.62-8.21h48.59a7.85,7.85,0,0,1,7.89,7.81c0,.13,0,.27,0,.4l-2.2,48.41A8.72,8.72,0,0,1,1180,801.61Z" transform="translate(-273 -135)"/></g><path class="cls-8" d="M805.78,876.69H757.13a7.8,7.8,0,0,1-7.87-7.73c0-.16,0-.32,0-.47l2.1-48.39a8.73,8.73,0,0,1,8.62-8.21H808.6a7.81,7.81,0,0,1,7.88,7.74c0,.15,0,.31,0,.47l-2.11,48.39A8.7,8.7,0,0,1,805.78,876.69Z" transform="translate(-273 -135)"/><path class="cls-8" d="M879.94,876.69H831.33a7.79,7.79,0,0,1-7.87-7.73,3.65,3.65,0,0,1,0-.47l2.1-48.39a8.71,8.71,0,0,1,8.62-8.21h48.59a7.8,7.8,0,0,1,7.89,7.71c0,.17,0,.33,0,.5l-2.1,48.39A8.68,8.68,0,0,1,879.94,876.69Z" transform="translate(-273 -135)"/><path class="cls-8" d="M954.11,876.69H905.52a7.8,7.8,0,0,1-7.87-7.73c0-.16,0-.32,0-.47l2.1-48.39a8.72,8.72,0,0,1,8.62-8.21h48.78a7.82,7.82,0,0,1,7.89,7.76c0,.15,0,.3,0,.45l-2.2,48.39A8.7,8.7,0,0,1,954.11,876.69Z" transform="translate(-273 -135)"/><path class="cls-8" d="M1028.31,876.69H979.72a7.83,7.83,0,0,1-7.9-7.75c0-.15,0-.3,0-.45l2.11-48.39a8.68,8.68,0,0,1,8.6-8.21h48.6a7.81,7.81,0,0,1,7.88,7.74c0,.15,0,.31,0,.47l-2.11,48.39A8.69,8.69,0,0,1,1028.31,876.69Z" transform="translate(-273 -135)"/><path class="cls-8" d="M1102.5,876.69h-48.63A7.8,7.8,0,0,1,1046,869c0-.16,0-.32,0-.47l2.1-48.39a8.73,8.73,0,0,1,8.62-8.21h48.61a7.8,7.8,0,0,1,7.87,7.74c0,.15,0,.31,0,.47l-2.1,48.39A8.72,8.72,0,0,1,1102.5,876.69Z" transform="translate(-273 -135)"/><path class="cls-8" d="M1176.69,876.69h-48.6a7.81,7.81,0,0,1-7.88-7.73c0-.16,0-.32,0-.47l2.11-48.39a8.71,8.71,0,0,1,8.62-8.21h48.58a7.83,7.83,0,0,1,7.9,7.76c0,.15,0,.3,0,.45l-2.21,48.39A8.69,8.69,0,0,1,1176.69,876.69Z" transform="translate(-273 -135)"/><g class="cls-24"><path class="cls-2" d="M805.78,876.69H757.13a7.8,7.8,0,0,1-7.87-7.73c0-.16,0-.32,0-.47l2.1-48.39a8.73,8.73,0,0,1,8.62-8.21H808.6a7.81,7.81,0,0,1,7.88,7.74c0,.15,0,.31,0,.47l-2.11,48.39A8.7,8.7,0,0,1,805.78,876.69Z" transform="translate(-273 -135)"/><path class="cls-2" d="M879.94,876.69H831.33a7.79,7.79,0,0,1-7.87-7.73,3.65,3.65,0,0,1,0-.47l2.1-48.39a8.71,8.71,0,0,1,8.62-8.21h48.59a7.8,7.8,0,0,1,7.89,7.71c0,.17,0,.33,0,.5l-2.1,48.39A8.68,8.68,0,0,1,879.94,876.69Z" transform="translate(-273 -135)"/><path class="cls-2" d="M954.11,876.69H905.52a7.8,7.8,0,0,1-7.87-7.73c0-.16,0-.32,0-.47l2.1-48.39a8.72,8.72,0,0,1,8.62-8.21h48.78a7.82,7.82,0,0,1,7.89,7.76c0,.15,0,.3,0,.45l-2.2,48.39A8.7,8.7,0,0,1,954.11,876.69Z" transform="translate(-273 -135)"/><path class="cls-2" d="M1028.31,876.69H979.72a7.83,7.83,0,0,1-7.9-7.75c0-.15,0-.3,0-.45l2.11-48.39a8.68,8.68,0,0,1,8.6-8.21h48.6a7.81,7.81,0,0,1,7.88,7.74c0,.15,0,.31,0,.47l-2.11,48.39A8.69,8.69,0,0,1,1028.31,876.69Z" transform="translate(-273 -135)"/><path class="cls-2" d="M1102.5,876.69h-48.63A7.8,7.8,0,0,1,1046,869c0-.16,0-.32,0-.47l2.1-48.39a8.73,8.73,0,0,1,8.62-8.21h48.61a7.8,7.8,0,0,1,7.87,7.74c0,.15,0,.31,0,.47l-2.1,48.39A8.72,8.72,0,0,1,1102.5,876.69Z" transform="translate(-273 -135)"/><path class="cls-2" d="M1176.69,876.69h-48.6a7.81,7.81,0,0,1-7.88-7.73c0-.16,0-.32,0-.47l2.11-48.39a8.71,8.71,0,0,1,8.62-8.21h48.58a7.83,7.83,0,0,1,7.9,7.76c0,.15,0,.3,0,.45l-2.21,48.39A8.69,8.69,0,0,1,1176.69,876.69Z" transform="translate(-273 -135)"/></g><path class="cls-8" d="M792,622.46c-17.91,0-32-20.75-32-47.24S774.1,528,792,528s32,20.75,32,47.21a4.92,4.92,0,0,1-9.82,0c0-20.29-10.13-37.45-22.16-37.45s-22.16,17.16-22.16,37.45S780,612.68,792,612.68a4.9,4.9,0,1,1,.65,9.78,3.53,3.53,0,0,1-.65,0Z" transform="translate(-273 -135)"/><path class="cls-8" d="M866.21,622.46c-17.91,0-32-20.75-32-47.24s14-47.21,32-47.21,32.08,20.75,32.08,47.21a4.92,4.92,0,0,1-9.82,0c0-20.29-10.13-37.45-22.16-37.45s-22.16,17.16-22.16,37.45,10.16,37.46,22.16,37.46a4.9,4.9,0,0,1,0,9.78Z" transform="translate(-273 -135)"/><path class="cls-8" d="M940.34,622.46c-17.93,0-32-20.75-32-47.24s14-47.21,32-47.21,32,20.75,32,47.21a4.9,4.9,0,0,1-9.8,0c0-20.29-10.15-37.45-22.16-37.45s-22.16,17.16-22.16,37.45,10.16,37.46,22.16,37.46a4.9,4.9,0,0,1,0,9.78Z" transform="translate(-273 -135)"/><path class="cls-8" d="M1014.6,622.46c-17.94,0-32-20.75-32-47.24s14-47.21,32-47.21,31.95,20.75,31.95,47.21a4.9,4.9,0,0,1-9.79,0c0-20.29-10.16-37.45-22.16-37.45s-22.16,17.16-22.16,37.45,10.13,37.46,22.16,37.46a4.9,4.9,0,0,1,0,9.78Z" transform="translate(-273 -135)"/><path class="cls-8" d="M1088.77,622.46c-17.91,0-32-20.75-32-47.24s14-47.21,32-47.21,32,20.75,32,47.21a4.92,4.92,0,0,1-9.82,0c0-20.29-10.13-37.45-22.16-37.45s-22.16,17.16-22.16,37.45,10.16,37.46,22.16,37.46a4.9,4.9,0,1,1,.64,9.78,3.42,3.42,0,0,1-.64,0Z" transform="translate(-273 -135)"/><path class="cls-8" d="M1163,622.46c-17.92,0-32-20.75-32-47.24s14-47.21,32-47.21,32,20.75,32,47.21a4.92,4.92,0,0,1-9.81,0c0-20.29-10.16-37.45-22.16-37.45s-22.16,17.16-22.16,37.45S1151,612.68,1163,612.68a4.9,4.9,0,0,1,0,9.78Z" transform="translate(-273 -135)"/><g class="cls-18"><path class="cls-8" d="M792,622.46c-17.91,0-32-20.75-32-47.24S774.1,528,792,528s32,20.75,32,47.21a4.92,4.92,0,0,1-9.82,0c0-20.29-10.13-37.45-22.16-37.45s-22.16,17.16-22.16,37.45S780,612.68,792,612.68a4.9,4.9,0,1,1,.65,9.78,3.53,3.53,0,0,1-.65,0Z" transform="translate(-273 -135)"/><path class="cls-8" d="M866.21,622.46c-17.91,0-32-20.75-32-47.24s14-47.21,32-47.21,32.08,20.75,32.08,47.21a4.92,4.92,0,0,1-9.82,0c0-20.29-10.13-37.45-22.16-37.45s-22.16,17.16-22.16,37.45,10.16,37.46,22.16,37.46a4.9,4.9,0,0,1,0,9.78Z" transform="translate(-273 -135)"/><path class="cls-8" d="M940.34,622.46c-17.93,0-32-20.75-32-47.24s14-47.21,32-47.21,32,20.75,32,47.21a4.9,4.9,0,0,1-9.8,0c0-20.29-10.15-37.45-22.16-37.45s-22.16,17.16-22.16,37.45,10.16,37.46,22.16,37.46a4.9,4.9,0,0,1,0,9.78Z" transform="translate(-273 -135)"/><path class="cls-8" d="M1014.6,622.46c-17.94,0-32-20.75-32-47.24s14-47.21,32-47.21,31.95,20.75,31.95,47.21a4.9,4.9,0,0,1-9.79,0c0-20.29-10.16-37.45-22.16-37.45s-22.16,17.16-22.16,37.45,10.13,37.46,22.16,37.46a4.9,4.9,0,0,1,0,9.78Z" transform="translate(-273 -135)"/><path class="cls-8" d="M1088.77,622.46c-17.91,0-32-20.75-32-47.24s14-47.21,32-47.21,32,20.75,32,47.21a4.92,4.92,0,0,1-9.82,0c0-20.29-10.13-37.45-22.16-37.45s-22.16,17.16-22.16,37.45,10.16,37.46,22.16,37.46a4.9,4.9,0,1,1,.64,9.78,3.42,3.42,0,0,1-.64,0Z" transform="translate(-273 -135)"/><path class="cls-8" d="M1163,622.46c-17.92,0-32-20.75-32-47.24s14-47.21,32-47.21,32,20.75,32,47.21a4.92,4.92,0,0,1-9.81,0c0-20.29-10.16-37.45-22.16-37.45s-22.16,17.16-22.16,37.45S1151,612.68,1163,612.68a4.9,4.9,0,0,1,0,9.78Z" transform="translate(-273 -135)"/></g><path class="cls-17" d="M1019.56,729.2c-17.16-3.39-36.41.57-43.29,18.58-5.53,14.49,1.56,30.19,16.82,34,13.46,3.37,36.67-.75,41.46-16.2,5.49-17.68-16.82-23.41-29.33-24.46-3.76-.31-3.74,5.55,0,5.86,5.7.48,12.22.8,17.26,3.92,10.51,6.55,6.18,17.06-2.77,22.09s-22.69,6.28-31.54.71c-9.67-6.14-10-19.62-4.2-28.41,7.59-11.62,21.44-12.92,33.93-10.47,3.7.73,5.28-4.92,1.55-5.66Z" transform="translate(-273 -135)"/><path class="cls-22" d="M1019.56,729.2c-17.16-3.39-36.41.57-43.29,18.58-5.53,14.49,1.56,30.19,16.82,34,13.46,3.37,36.67-.75,41.46-16.2,5.49-17.68-16.82-23.41-29.33-24.46-3.76-.31-3.74,5.55,0,5.86,5.7.48,12.22.8,17.26,3.92,10.51,6.55,6.18,17.06-2.77,22.09s-22.69,6.28-31.54.71c-9.67-6.14-10-19.62-4.2-28.41,7.59-11.62,21.44-12.92,33.93-10.47,3.7.73,5.28-4.92,1.55-5.66Z" transform="translate(-273 -135)"/><path class="cls-17" d="M830.28,661.76a462.87,462.87,0,0,0,54.66,60.3c2.78,2.58,7-1.57,4.21-4.18a454.83,454.83,0,0,1-53.76-59.11c-2.25-3-7.36,0-5.07,3Z" transform="translate(-273 -135)"/><path class="cls-17" d="M836.35,719.61c12.41-22,34.13-40.7,54.67-55,3.07-2.1.14-7.25-3-5.07-21.36,15-43.81,34.26-56.76,57.14a2.94,2.94,0,0,0,5.06,3Z" transform="translate(-273 -135)"/><g class="cls-25"><path d="M830.28,661.76a462.87,462.87,0,0,0,54.66,60.3c2.78,2.58,7-1.57,4.21-4.18a454.83,454.83,0,0,1-53.76-59.11c-2.25-3-7.36,0-5.07,3Z" transform="translate(-273 -135)"/><path d="M836.35,719.61c12.41-22,34.13-40.7,54.67-55,3.07-2.1.14-7.25-3-5.07-21.36,15-43.81,34.26-56.76,57.14a2.94,2.94,0,0,0,5.06,3Z" transform="translate(-273 -135)"/></g><path class="cls-17" d="M1064.11,680.5h38.37a2.93,2.93,0,0,0,0-5.84h-38.37a2.93,2.93,0,0,0,0,5.84Z" transform="translate(-273 -135)"/><path class="cls-17" d="M1063.67,691.37h22.24a2.93,2.93,0,1,0,0-5.86h-22.24a2.93,2.93,0,1,0,0,5.86Z" transform="translate(-273 -135)"/><g class="cls-15"><path class="cls-2" d="M1064.11,680.5h38.37a2.93,2.93,0,0,0,0-5.84h-38.37a2.93,2.93,0,0,0,0,5.84Z" transform="translate(-273 -135)"/><path class="cls-2" d="M1063.67,691.37h22.24a2.93,2.93,0,1,0,0-5.86h-22.24a2.93,2.93,0,1,0,0,5.86Z" transform="translate(-273 -135)"/></g><path class="cls-17" d="M834.29,830.5H867.2a2.93,2.93,0,1,0,0-5.86H834.29a2.93,2.93,0,1,0,0,5.86Z" transform="translate(-273 -135)"/><path class="cls-17" d="M833.12,843.09H875.8a2.93,2.93,0,1,0,0-5.86H833.12a2.93,2.93,0,1,0,0,5.86Z" transform="translate(-273 -135)"/><path class="cls-17" d="M833.12,856.05h21.34a2.93,2.93,0,1,0,0-5.86H833.12a2.93,2.93,0,1,0,0,5.86Z" transform="translate(-273 -135)"/><g class="cls-15"><path class="cls-2" d="M834.29,830.5H867.2a2.93,2.93,0,1,0,0-5.86H834.29a2.93,2.93,0,1,0,0,5.86Z" transform="translate(-273 -135)"/><path class="cls-2" d="M833.12,843.09H875.8a2.93,2.93,0,1,0,0-5.86H833.12a2.93,2.93,0,1,0,0,5.86Z" transform="translate(-273 -135)"/><path class="cls-2" d="M833.12,856.05h21.34a2.93,2.93,0,1,0,0-5.86H833.12a2.93,2.93,0,1,0,0,5.86Z" transform="translate(-273 -135)"/></g></g><path class="cls-9" d="M712.06,499l18.86-6.69a10.45,10.45,0,0,1,9.28.35l2.84,1.55,12,7.33a6.57,6.57,0,0,0,4.66.88l4.62-.82,6.35,4a11.72,11.72,0,0,0,4.78,1.76l15.83,2.15a.87.87,0,0,0,1-.74h0v-.05a3.42,3.42,0,0,0-2.49-3.52l-14.07-4-13.16-10.79-1.92-2.69a1,1,0,0,1,0-1.13h0a1,1,0,0,1,1.13-.34c2.51.84,10.46,3.7,11.79,4.19a2.56,2.56,0,0,0,3.29-1.44l0-.09h0a2.62,2.62,0,0,0-1-3.05s-5.92-3.38-9.72-5.46a16.2,16.2,0,0,1-3.69-2.68,13.82,13.82,0,0,0-6.43-3.5l-6.75-1.39c-3.84-.79-7.63-1.77-12.27,1.12l-11.4,3.74Z" transform="translate(-273 -135)"/><polyline class="cls-26" points="454.75 826.13 454.75 116.17 162.26 116.17 162.26 826.13"/></svg>