<?xml version="1.0" encoding="UTF-8"?><svg version="1.1" xmlns="http://www.w3.org/2000/svg" xmlns:xlink="http://www.w3.org/1999/xlink" viewBox="0 0 1200 800" width="1200" height="800" x="0px" y="0px">
    
    
    <!-- ITEM 0 -->
    <g>
        <defs>
            <clipPath id="clip-path-id-viewbox-item-0">
                <rect x="0.0" y="0.0" width="640.0" height="386.0"/>
            </clipPath>
        </defs>
        <g transform="translate(67.0 50.0) rotate(0.0 523.0 315.5) scale(1.634375 1.6347150259067358)">
            <g clip-path="url(#clip-path-id-viewbox-item-0)" transform="translate(-0.0 -0.0)">
                
<rect x="0" y="0" fill="#F5F5F5" width="640" height="386"/>
<polygon fill="#E6E7EB" points="448,204 448,160 368,160 368,204 360,204 360,386 456,386 456,204 "/>
<polygon fill="#EFF0F2" points="500,193 484.2,143 482,143 479,110 476,143 474,143 458,193 453,193 453,386 505,386 505,193 "/>
<polygon fill="#EFF0F2" points="210,134 210,109 138,109 138,386 245,386 245,134 "/>
<polygon fill="#EFF0F2" points="404,364 404,224 388,224 388,172 377,172 377,148 362,148 352,68 341,148 327,148 327,172 316,172   316,224 300,224 300,364 286,364 286,386 418,386 418,364 "/>
<rect x="311" y="234" fill="#F6F6F8" width="7" height="16"/>
<rect x="326" y="234" fill="#F6F6F8" width="7" height="16"/>
<rect x="341" y="234" fill="#F6F6F8" width="7" height="16"/>
<rect x="356" y="234" fill="#F6F6F8" width="7" height="16"/>
<rect x="371" y="234" fill="#F6F6F8" width="7" height="16"/>
<rect x="326" y="208" fill="#F6F6F8" width="7" height="16"/>
<rect x="341" y="208" fill="#F6F6F8" width="7" height="16"/>
<rect x="356" y="208" fill="#F6F6F8" width="7" height="16"/>
<rect x="371" y="208" fill="#F6F6F8" width="7" height="16"/>
<rect x="326" y="182" fill="#F6F6F8" width="7" height="16"/>
<rect x="341" y="182" fill="#F6F6F8" width="7" height="16"/>
<rect x="356" y="182" fill="#F6F6F8" width="7" height="16"/>
<rect x="371" y="182" fill="#F6F6F8" width="7" height="16"/>
<rect x="341" y="156" fill="#F6F6F8" width="7" height="16"/>
<rect x="356" y="156" fill="#F6F6F8" width="7" height="16"/>
<rect x="386" y="234" fill="#F6F6F8" width="7" height="16"/>
<rect x="311" y="259" fill="#F6F6F8" width="7" height="16"/>
<rect x="326" y="259" fill="#F6F6F8" width="7" height="16"/>
<rect x="341" y="259" fill="#F6F6F8" width="7" height="16"/>
<rect x="356" y="259" fill="#F6F6F8" width="7" height="16"/>
<rect x="371" y="259" fill="#F6F6F8" width="7" height="16"/>
<rect x="386" y="259" fill="#F6F6F8" width="7" height="16"/>
<rect x="311" y="284" fill="#F6F6F8" width="7" height="16"/>
<rect x="326" y="284" fill="#F6F6F8" width="7" height="16"/>
<rect x="341" y="284" fill="#F6F6F8" width="7" height="16"/>
<rect x="356" y="284" fill="#F6F6F8" width="7" height="16"/>
<rect x="371" y="284" fill="#F6F6F8" width="7" height="16"/>
<rect x="386" y="284" fill="#F6F6F8" width="7" height="16"/>
<rect x="311" y="309" fill="#F6F6F8" width="7" height="16"/>
<rect x="326" y="309" fill="#F6F6F8" width="7" height="16"/>
<rect x="341" y="309" fill="#F6F6F8" width="7" height="16"/>
<rect x="356" y="309" fill="#F6F6F8" width="7" height="16"/>
<rect x="371" y="309" fill="#F6F6F8" width="7" height="16"/>
<rect x="386" y="309" fill="#F6F6F8" width="7" height="16"/>
<rect x="311" y="334" fill="#F6F6F8" width="7" height="16"/>
<rect x="326" y="334" fill="#F6F6F8" width="7" height="16"/>
<rect x="341" y="334" fill="#F6F6F8" width="7" height="16"/>
<rect x="356" y="334" fill="#F6F6F8" width="7" height="16"/>
<rect x="371" y="334" fill="#F6F6F8" width="7" height="16"/>
<rect x="386" y="334" fill="#F6F6F8" width="7" height="16"/>
<rect x="311" y="359" fill="#F6F6F8" width="7" height="16"/>
<rect x="326" y="359" fill="#F6F6F8" width="7" height="16"/>
<rect x="341" y="359" fill="#F6F6F8" width="7" height="16"/>
<rect x="356" y="359" fill="#F6F6F8" width="7" height="16"/>
<rect x="371" y="359" fill="#F6F6F8" width="7" height="16"/>
<rect x="386" y="359" fill="#F6F6F8" width="7" height="16"/>
<rect x="210" y="170" fill="#E6E7EB" width="96" height="216"/>
<polygon fill="#E6E7EB" points="67,220 67,251 44,251 44,386 149,386 149,164 "/>
<g>
	<rect x="105" y="230" fill="#F6F6F8" width="9" height="156"/>
	<rect x="85" y="230" fill="#F6F6F8" width="9" height="156"/>
	<rect x="125" y="230" fill="#F6F6F8" width="9" height="156"/>
</g>
<polygon fill="#EBEBEE" points="582,219.96 582,202.96 547,189 513,202.96 513,220 499,219.96 499,386 596,386 596,219.96 "/>
<rect x="509" y="233.01" fill="#F8F8F9" width="78" height="5"/>
<rect x="509" y="243.01" fill="#F8F8F9" width="78" height="5"/>
<rect x="509" y="253.01" fill="#F8F8F9" width="78" height="5"/>
<rect x="509" y="263.01" fill="#F8F8F9" width="78" height="5"/>
<rect x="509" y="273.01" fill="#F8F8F9" width="78" height="5"/>
<rect x="509" y="283.02" fill="#F8F8F9" width="78" height="5"/>
<rect x="509" y="293.02" fill="#F8F8F9" width="78" height="5"/>
<rect x="509" y="303.02" fill="#F8F8F9" width="78" height="5"/>
<rect x="509" y="313.02" fill="#F8F8F9" width="78" height="5"/>
<rect x="509" y="323.02" fill="#F8F8F9" width="78" height="5"/>
<rect x="509" y="333.03" fill="#F8F8F9" width="78" height="5"/>
<g>
	<polygon fill="#FBFBFB" points="640,252.08 640,276.12 223.52,0 259.77,0  "/>
	<polygon fill="#FBFBFB" points="377.18,386 322.83,386 0,171.78 0,135.7  "/>
	<polygon fill="#FBFBFB" points="289.53,386 253.22,386 0,218.39 0,194.36  "/>
	<polygon fill="#FBFBFB" points="640,169.02 640,229.52 294.51,0 384.98,0  "/>
</g>
<g>
	<rect x="200" y="0" fill="#FFFFFF" width="21" height="386"/>
	<rect x="420" y="0" fill="#FFFFFF" width="21" height="386"/>
</g>

            </g>
        </g>
    </g>
    
    <!-- ITEM 1 -->
    <g>
        <defs>
            <clipPath id="clip-path-id-viewbox-item-1">
                <rect x="0.0" y="0.0" width="93.85" height="399.857"/>
            </clipPath>
        </defs>
        <g transform="translate(180.0 303.0) rotate(0.0 55.0 236.0) scale(1.1720831113478956 1.1804220008653092)">
            <g clip-path="url(#clip-path-id-viewbox-item-1)" transform="translate(-0.0 -0.0)">
                
<g>
	<path fill="#7ce3ff" d="M70.165,181.227l-0.247,18.177l-39.285,7.124l-13.47-21.372c-5.478-8.692-9.048-18.447-10.475-28.622   l-3.757-30.952c-0.275-1.956,3.133-6.914,4.789-7.991l7.352-4.653l3.849-2.507c16.181-8.383,36.248-4.195,42.019,16.737   l8.65,47.216C70.004,176.641,70.196,178.933,70.165,181.227z"/>
	<path fill="#7ce3ff" d="M58.056,97.158l-2.114-9.302l-30.801,4.189C9.955,97.819,0.689,113.23,2.711,129.35l2.46,19.613   l55.845-19.247L58.056,97.158z"/>
	<path opacity="0.07" fill="#9c0a44" d="M23.5,145.402l11.081,1.529c1.813,0.53,3.282-1.516,2.201-3.064L27,129.858L23.5,145.402z"/>
	<g>
		<path fill="#C78982" d="M15.081,319.264l-4.041,35.45l-1.378,12.077l-0.754,6.596l-0.222,1.952l-0.718,6.309l-0.356,3.112    l-0.543,4.733l-0.029,0.271c0,0,3.242,0.089,6.999,0.194c1.656,0.048,3.412,0.097,5.03,0.149c0.917,0.024,1.783,0.053,2.571,0.077    c2.019,0.061,3.475,0.113,3.659,0.129l0.172-0.586l0.489-1.661l3.852-13.059l4.318-14.647l18.035-45.329l7.539-41.107    l-26.939-0.812l-15.824,39.573C15.955,314.891,15.327,317.114,15.081,319.264z"/>
	</g>
	<g>
		<path fill="#9d1f76" d="M13.91,358.28h21.053l17.2-43.25l7.54-41.11l-26.94-0.81l-15.82,39.57c-0.99,2.21-1.62,4.43-1.86,6.58    l-7.815,30.459C6.155,354.057,9.431,358.28,13.91,358.28z"/>
	</g>
	<g>
		<path fill="#9d1f76" d="M69.864,186.257l0.037,17.958L55.535,301.83c0,0-27.751-9.844-27.706-10.37l3.82-105.39L69.864,186.257z"/>
	</g>
	<g>
		<path fill="#ED956E" d="M35.43,366.11l-2.622,8.899l-3.854,13.056l-0.487,1.663l-0.172,0.584c-0.184-0.015-1.64-0.067-3.659-0.127    c-0.79-0.026-1.655-0.052-2.573-0.079c-1.618-0.052-3.375-0.101-5.03-0.15c-3.757-0.105-6.996-0.191-6.996-0.191l0.026-0.273    l0.543-4.73l0.356-3.112l0.719-6.311l0.225-1.951l0.753-6.595l0.079-0.682L35.43,366.11L35.43,366.11z"/>
	</g>
	<path fill="#a3fdff" d="M50.716,396.703l4.399-2.62c1.213-0.723,2.057-1.958,2.244-3.284l0,0c0.274-1.949-0.927-3.602-2.818-3.878   l-8.342-1.216c-5.272-0.769-9.621-3.836-11.919-8.407l-2.751-5.472l-3.66,2.059c-0.882,0.496-1.337,1.523-1.057,2.387l0.801,2.472   l-5.018,1.97c-3.399,1.334-7.004,0.72-9.286-1.583l-3.524-3.555c-0.617-0.623-1.795-0.156-1.976,0.784L4.73,392.356l0.434,3.765   L50.716,396.703z"/>
	<path fill="#7ce3ff" d="M3.349,393.408l0.523,1.583c0.942,2.848,3.552,4.665,6.7,4.665h33.473c0.643,0,1.299-0.166,1.905-0.481   l6.187-3.226c0.464-0.242,0.292-0.944-0.231-0.944h-25.52c-0.488,0-0.93-0.191-1.232-0.531l0,0   c-1.516-1.71-3.736-2.668-6.188-2.668H4.591C3.766,391.805,3.102,392.663,3.349,393.408z"/>
	<polygon fill="#C78982" points="24.535,351.517 18.333,362.625 12.274,368.106 29.584,381.81 41.413,363.779  "/>
	<path fill="#a3fdff" d="M5.336,375.289l11.521,10.813l14.581,13.685c0.858,0.023,5.805-0.352,5.805-0.352l-0.105-1.539   l-0.816-12.101l-0.918-13.573l-0.61-0.12c-0.936-0.183-1.858,0.367-2.146,1.274l-0.82,2.599L27,374.226   c-3.27-1.18-5.58-4.127-5.948-7.584l-0.569-5.341c-0.097-0.933-1.236-1.341-1.906-0.682l-6.464,6.371l-4.551,4.487l-0.393,0.386   L5.336,375.289z"/>
	<path fill="#a3fdff" d="M17.272,381.552l2.618,10.539l18.217,4.603l12.618,0.161h0.03l0.195-0.127l2.419-1.573l1.416-0.921   c1.112-0.723,1.783-1.959,1.783-3.285c0-0.974-0.36-1.873-0.959-2.566c-0.599-0.689-1.442-1.172-2.404-1.311l-8.513-1.217   c-2.704-0.386-5.262-1.356-7.506-2.802c-2.217-1.431-4.135-3.333-5.595-5.603l-6.888-3.412c-0.813,0.494-1.124,1.521-0.723,2.386   l1.146,2.472l-4.742,1.97C19.377,381.286,18.321,381.515,17.272,381.552z"/>
	<path fill="#7ce3ff" d="M27.585,395.155v4.652h17.371c0.644,0,1.277-0.165,1.839-0.479l4.389-2.472l0.225-0.128l1.73-1.573H27.585z   "/>
	<path fill="#7ce3ff" d="M7.306,381.885l11.003,10.063l8.416,7.7c1.551,0.045,3.195,0.09,4.712,0.138   c0.858,0.023,1.67,0.049,2.408,0.071l-12.214-11.176c-0.36-0.33-0.577-0.787-0.607-1.273c-0.071-1.221-0.378-2.408-0.895-3.494   s-1.24-2.075-2.146-2.903l-3.094-2.831l-7.33-6.704l-0.184-0.169c-0.607-0.554-1.588-0.288-1.832,0.498l-0.517,1.67   C4.096,376.484,4.983,379.757,7.306,381.885z"/>
	<path fill="#9d1f76" d="M55.331,199.529l29.322,97.227c1.71,5.671,0.819,11.808-2.433,16.758l-33.476,50.948   c-2.253,3.43-6.96,4.194-10.183,1.654l-15.552-12.258l2.247-3.995l19.216-42.269c0.412-0.94,0.9-1.845,1.461-2.706l7.151-10.982   l-33.32-52.681c-5.31-8.395-7.306-18.466-5.6-28.252l4.909-26.936l32.334,0.177L55.331,199.529z"/>
	<g>
		<path fill="#C78982" d="M38.538,243.006c-0.996-0.027-1.927-0.85-2.194-2.047l-2.589-18.44l5.117-3.393l0.26,23.191    c0.03,0.349-0.229,0.657-0.578,0.687C38.554,243.005,38.543,243.006,38.538,243.006z"/>
		<path fill="#C78982" d="M35.157,237.146c-0.984,0.153-2.05-0.487-2.528-1.615l-5.888-17.666l4.418-4.264l4.458,22.76    c0.093,0.338-0.106,0.688-0.444,0.781C35.167,237.143,35.162,237.145,35.157,237.146z"/>
		<path fill="#C78982" d="M31.298,234.391c-0.989,0.115-2.029-0.565-2.464-1.711L23.631,214.8l4.578-4.091l3.579,22.915    c0.08,0.342-0.132,0.683-0.474,0.763C31.309,234.389,31.304,234.39,31.298,234.391z"/>
		<path fill="#C78982" d="M27.392,229.99c-0.989,0.115-2.029-0.565-2.464-1.711l-4.852-16.671c-0.215-0.738,0.013-1.534,0.587-2.046    l3.64-3.253l3.579,22.915c0.08,0.342-0.132,0.683-0.474,0.763C27.403,229.988,27.398,229.989,27.392,229.99z"/>
		<path fill="#C78982" d="M25.963,218.353h5.791c3.369,0,6.125-2.756,6.125-6.125v-5.123c0-3.369-2.756-6.125-6.125-6.125h-1.443    c-5.76,0-10.472,4.713-10.472,10.472v0.775C19.838,215.596,22.594,218.353,25.963,218.353z"/>
		<path fill="#C78982" d="M36.195,203.075v16.434l0.065-1.252c0.008-0.119,0.023-0.239,0.05-0.358    c0.266-1.225,1.08-1.763,2.304-1.501l0.438-0.244c0.766,0.169,1.03,0.902,1.407,1.592l1.791,3.308    c0.443,0.84,1.109,1.548,1.922,2.041c0.566,0.32,1.57,0.292,2.132,0.292c0.3,0,0.585-0.058,0.847-0.193    c0.035-0.019,0.069-0.038,0.1-0.062c0.401-0.293,0.489-0.855,0.196-1.256l-5.889-9.96l-0.847-2.627    c-0.512-1.614-1.402-3.081-2.596-4.283l-1.802-1.802C36.272,203.163,36.234,203.121,36.195,203.075z"/>
		<path fill="#C78982" d="M22.918,214.721c0,5.389,4.041,9.757,9.025,9.757c0.277,0,0.551-0.013,0.821-0.04    c0.168-0.016,0.516,0.103,0.5-0.064c-0.049-0.52,0.625-0.6,0.722-0.147c0.032,0.148,0.292-0.077,0.436-0.122    c1.598-0.493,3.016-1.45,4.119-2.727c0.119-0.138,0.347-0.242,0.347-0.426c-0.007-3.045,1.07-3.98,1.649-3.06    c0.135,0.215,0.085-0.475,0.145-0.726c0.186-0.781,0.286-1.6,0.286-2.445c0-5.389-4.041-9.757-9.025-9.757    S22.918,209.333,22.918,214.721z"/>
	</g>
	<polygon fill="#9d1f76" points="21.235,242.808 41.056,243.936 40.654,220.153 21.235,220.153  "/>
	<path fill="#7ce3ff" d="M17.224,211.9L0.742,166.429c-2.324-6.412,0.99-13.495,7.402-15.819l1.747-0.634   c4-1.45,8.419,0.617,9.868,4.617l18.065,49.839L17.224,211.9z"/>
	<g>
		<path fill="#7ce3ff" d="M5.741,165.599c-3.382-0.366-5.827-3.404-5.461-6.786l4.543-41.964    c0.734-6.781,6.827-11.683,13.607-10.949l1.848,0.2c4.23,0.458,7.288,4.258,6.831,8.489l-5.706,52.706L5.741,165.599z"/>
	</g>
	<g>
		<path fill="#7ce3ff" d="M90.064,66.941c2.542,2.274,2.598,6.524,0.123,9.493l-30.7,36.839c-4.961,5.953-13.115,7.081-18.212,2.522    l-1.389-1.243c-3.18-2.845-3.249-8.161-0.155-11.875l38.559-46.269L90.064,66.941z"/>
	</g>
	<g>
		<path fill="#D4E7FF" d="M48.146,83.945l-24.027,4.932c-3.246,0.666-6.418-1.425-7.084-4.671l-3.126-15.232    c-1.795-8.744,3.838-17.287,12.582-19.081l14.073-2.889L48.146,83.945z"/>
		<path fill="#C78982" d="M53.198,61.429l4.575,21.646c0.461,2.576-1.721,4.854-4.315,4.504l-24.05-3.255L53.198,61.429z"/>
		<path fill="#C78982" d="M54.135,74.96l3.819-0.88c1.591-0.366,1.984-2.452,0.635-3.373l-5.902-4.025L54.135,74.96z"/>
		<path fill="#C78982" d="M37.739,50.528l-0.496,0.089c-2.097,0.376-3.492,2.381-3.116,4.477l2.364,13.186l17.582-3.152    l-0.662-3.693C52.094,54.095,45.078,49.212,37.739,50.528z"/>
		<path fill="#C78982" d="M21.126,71.923l20.435-4.195l8.302,40.448c0.201,0.982-0.885,1.716-1.721,1.163L25.765,94.524    L21.126,71.923L21.126,71.923z"/>
		
			<rect x="43.801" y="63.488" transform="matrix(0.9843 -0.1764 0.1764 0.9843 -11.6813 9.8225)" fill="#C78982" width="11.197" height="14.234"/>
		<path fill="#C78982" d="M32.519,48.767l-5.192,1.066c-5.674,1.165-9.329,6.708-8.164,12.381l5.271,25.682l33.02-6.778    l-3.777-18.399C51.688,53.024,42.215,46.777,32.519,48.767z"/>
		<path opacity="0.1" fill="#b90837" enable-background="new    " d="M45.613,87.503l-0.315-0.06    c-1.903-0.362-3.158,1.921-1.832,3.333l3.461,3.688"/>
		<path opacity="0.1" fill="#b90837" enable-background="new    " d="M54.156,65.396l-2.513,0.516    c-0.292,0.06-0.548,0.233-0.713,0.482l-0.831,1.261c-0.551,0.836,0.183,1.92,1.164,1.719l3.585-0.736"/>
		<path fill="#D4E7FF" d="M41.144,72.063l0.799,3.891c0.736,3.587,3.536,6.391,7.122,7.134l0,0l0,0    c-0.577-2.813,1.236-5.563,4.049-6.141l3.343-0.686l1.64,7.825c0.58,2.766-1.814,5.244-4.598,4.762l-9.752-1.69    c-1.616-0.28-2.897-1.518-3.233-3.124l-2.997-14.361l0,0C39.18,69.331,40.803,70.401,41.144,72.063z"/>
		<path fill="#C78982" d="M53.809,82.854l2.646,0.064c0.704,0.017,1.241-0.625,1.099-1.315l-0.627-3.054l-2.422,0.497    c-1.297,0.266-2.132,1.533-1.866,2.83l0,0C52.755,82.435,53.24,82.841,53.809,82.854z"/>
		<path fill="#D4E7FF" d="M16.699,82.566l12.657-2.598c5.856-1.202,9.629-6.924,8.427-12.781l-4.204-20.48    c-0.222-1.082-1.279-1.779-2.361-1.557l-6.871,1.41c-7.97,1.636-13.105,9.423-11.469,17.393L16.699,82.566z"/>
		<path fill="#D4E7FF" d="M48.392,58.021l0.522-0.107c3.886-0.798,6.39-4.595,5.592-8.481l-0.865-4.215    c-0.386-1.882-2.225-3.095-4.107-2.708l-5.194,1.066l-17.198,3.53l10.655,22.033l-0.903-9.812    c-0.146-1.583,0.959-3.009,2.529-3.262h0c0.659-0.106,1.334,0.008,1.921,0.326l1.49,0.807    C44.532,58.118,46.5,58.409,48.392,58.021z"/>
		<path fill="#C78982" d="M35.479,76.335l0.407-0.069c1.567-0.266,2.594-1.785,2.258-3.338l-0.861-3.97    c-0.478-2.205-2.605-3.643-4.829-3.266l-0.238,0.04c-2.286,0.388-3.513,2.908-2.408,4.946l2.132,3.934    C32.629,75.884,34.052,76.577,35.479,76.335z"/>
	</g>
	<g>
		<path fill="#C78982" d="M55.237,0.088c0,0-0.005,0.003-0.01,0.005c-0.249,0.095-0.377,0.372-0.287,0.625l3.092,8.387    c0.332,0.902,0.861,1.719,1.549,2.396l2.985,2.982l0.104,2.62c0.031,0.916,0.409,1.786,1.046,2.44l5.488,5.667l0.045,0.046    c0.186,0.205,0.881,3.324,1.042,3.542l2.286,9.249l7.399,0.754l0.79-13.235c1.037-2.893,0.356-4.384-0.541-6.386l-1.584-3.515    c-0.607-1.256-1.54-2.323-2.701-3.096c-0.718-0.466-1.364-1.032-1.923-1.684c-1.602-1.825-4.182-4.647-4.182-4.647    c-0.471-0.438-1.163-0.513-1.717-0.203l-0.122,0.069c-0.656,0.438-0.833,1.317-0.399,1.975c0.431,0.666,2.961,4.662,3.727,5.926    c0.003,0.005,0.005,0.01,0.005,0.01c0.118,0.211,0.095,0.468-0.06,0.652c-0.15,0.181-0.401,0.238-0.619,0.147l-1.708-0.716    l-7.539-5.881l-3.896-7.203c-0.435-0.799-1.369-1.19-2.242-0.932L55.237,0.088z"/>
		<path fill="#7ce3ff" d="M81.339,29.106l11.89,34.49c1.298,3.766,0.535,7.936-2.013,10.998l-6.615,7.95L74.77,70.553    c-0.826-0.872-1.306-2.015-1.35-3.215l-1.488-24.795l-1.2-11.634L81.339,29.106z"/>
	</g>
</g>

            </g>
        </g>
    </g>
    
    <!-- ITEM 2 -->
    <g>
        <defs>
            <clipPath id="clip-path-id-viewbox-item-2">
                <rect x="0.0" y="0.0" width="230.088" height="347.408"/>
            </clipPath>
        </defs>
        <g transform="translate(1118.0 331.0) rotate(0.0 -146.5 221.0) scale(-1.2734258196863808 1.2722792796941924)">
            <g clip-path="url(#clip-path-id-viewbox-item-2)" transform="translate(-0.0 -0.0)">
                
<g>
	<path fill="#9d1f76" d="M69.645,261.596l-22.419,35.448L39.59,309.12l-4.17,6.596l-1.235,1.952l-3.991,6.309l-1.967,3.112   l-2.99,4.733l-0.173,0.271c0,0-3.308,0.089-7.143,0.194c-1.692,0.048-3.485,0.097-5.142,0.149   c-0.935,0.024-1.823,0.053-2.628,0.077c-2.064,0.061-3.56,0.113-3.756,0.129l0.266-0.586l0.751-1.661l5.896-13.058l6.615-14.646   l14.11-47.588c0.595-2.008,1.454-3.929,2.552-5.712l20.409-33.132l27.544-0.812l-11.841,39.571   C72.036,257.223,71.004,259.445,69.645,261.596z"/>
</g>
<g>
	<path fill="#9d1f76" d="M133.637,127.915l1.117,14.992l-13.415,17.663l-45.176,82.288c0,0-30.987-5.918-30.785-6.444   l41.551-107.386L133.637,127.915z"/>
</g>
<g>
	<path fill="#C78982" d="M35.419,315.716l-1.232,1.951l-3.992,6.311l-1.966,3.112l-2.992,4.73l-0.172,0.273   c0,0-3.307,0.086-7.142,0.191c-1.693,0.049-3.483,0.097-5.142,0.15c-0.933,0.026-1.82,0.052-2.629,0.079   c-2.064,0.06-3.558,0.112-3.753,0.127l0.262-0.584l0.753-1.663l5.895-13.056l2.835-6.277L35.419,315.716z"/>
</g>
<path fill="#7ce3ff" d="M0.076,342.242h24.107l1.329-3.707c1.074-2.995,1.367-6.215,0.851-9.355l-0.683-4.157l-9.776-5.51  l-9.837,5.51l-4.916,7.773c-0.772,1.22-1.172,2.639-1.152,4.082L0.076,342.242z"/>
<path fill="#93C3FF" d="M3.998,347.408h16.608c0.936,0,1.767-0.511,2.068-1.27l1.681-4.24H0.248l1.681,4.24  C2.23,346.897,3.062,347.408,3.998,347.408z"/>
<path fill="#7ce3ff" d="M12.381,317.386h10.03c1.034,0,1.704,0.838,1.496,1.873l-1.946,9.686c-0.208,1.034-1.215,1.873-2.249,1.873  H9.682c-1.034,0-1.704-0.838-1.496-1.873l1.946-9.686C10.34,318.225,11.346,317.386,12.381,317.386z"/>
<path fill="#93C3FF" d="M14.278,340.929h-3.444c-1.421,0-2.583,1.162-2.583,2.583l0,0c0,1.421,1.162,2.583,2.583,2.583h3.444  c1.421,0,2.583-1.162,2.583-2.583l0,0C16.861,342.091,15.699,340.929,14.278,340.929z"/>
<path fill="#a3fdff" d="M192.556,73.303c0.043,6.546-5.295,11.853-11.841,11.772l-33.939-0.421  c-6.821,0.045-12.386-5.448-12.431-12.269l-0.012-1.859c-0.028-4.255,3.399-7.727,7.654-7.755l50.504,0.538L192.556,73.303z"/>
<g>
	<path fill="#C78982" d="M73.722,262.729l-6.416,35.098l-2.187,11.957l-1.196,6.531l-0.353,1.933l-1.141,6.247l-0.565,3.081   l-0.86,4.686l-0.048,0.268c0,0,3.228,0.307,6.97,0.664c1.649,0.16,3.398,0.326,5.009,0.487c0.913,0.086,1.776,0.173,2.56,0.25   c2.01,0.196,3.46,0.347,3.643,0.375l0.211-0.573l0.599-1.624l4.721-12.77l5.293-14.324l16.351-41.912l11.985-29.588l-23.83-15.643   L76.02,256.289C74.888,258.425,74.112,260.601,73.722,262.729z"/>
</g>
<g>
	<path fill="#9d1f76" d="M140.895,130.435l-0.993,22.499c-0.096,2.17-0.427,4.324-0.988,6.422l-20.598,77.075   c-1.611,6.121-8.31,9.353-14.102,6.801c-7.46-3.286-15.948-7.094-15.902-7.387l11.034-106.89L140.895,130.435z"/>
</g>
<path fill="#7ce3ff" d="M104.78,341.968l4.399-2.62c1.213-0.723,2.057-1.958,2.244-3.284v0c0.274-1.949-0.927-3.602-2.818-3.878  l-8.342-1.216c-5.272-0.769-9.621-3.836-11.919-8.407l-2.751-5.472l-3.66,2.059c-0.882,0.496-1.337,1.523-1.057,2.387l0.801,2.472  l-5.018,1.97c-3.399,1.334-7.004,0.72-9.286-1.583l-3.524-3.555c-0.617-0.623-1.795-0.156-1.976,0.784l-3.079,15.996l0.434,3.765  L104.78,341.968z"/>
<path fill="#93C3FF" d="M57.412,338.674l0.523,1.583c0.942,2.848,3.552,4.665,6.7,4.665h33.473c0.643,0,1.299-0.166,1.905-0.481  l7.997-4.17H80.448c-0.488,0-0.93-0.191-1.232-0.531h0c-1.516-1.71-3.736-2.668-6.188-2.668H58.654  C57.83,337.071,57.166,337.928,57.412,338.674z"/>
<path fill="#9d1f76" d="M35.525,315.544l-18.406-4.673l31.495-60.465l23.044,7.351l-24.623,52.352  C44.996,314.443,40.169,316.724,35.525,315.544z"/>
<path fill="#9d1f76" d="M85.199,313.978l-20.204-2.259l28.134-80.536l23.622,5.205l-20.851,70.489  C94.525,311.524,90.015,314.516,85.199,313.978z"/>
<g>
	<path fill="#9d1f76" d="M87.831,310.783l2.132-5.769l16.351-41.912l11.985-29.588l-23.83-15.644L76.02,256.289   c-1.132,2.136-1.908,4.312-2.298,6.439l-6.416,35.099l-2.187,11.956l-0.183,0.999H87.831z"/>
</g>
<path fill="#a3fdff" d="M141.059,133.416l-63.064,18.045l8.557-22.882l7.982-17.546l0.12-53.064  c0.015-6.598,6.303-11.373,12.663-9.616l53.728,14.843l-15.949,38.52L141.059,133.416z"/>
<path fill="#C78982" d="M115.827,29.546l20.745,0.013l-0.025,42.42c-0.001,1.913-2.429,2.733-3.59,1.212l-17.145-22.469  L115.827,29.546z"/>
<g>
	<path fill="#9c0a44" d="M119.779,17.718l24.029-8.643v0c-2.229-6.197-8.547-9.934-15.051-8.904l-6.535,1.035   c-4.117,0.652-6.624,4.89-5.213,8.812L119.779,17.718z"/>
	<polygon fill="#9c0a44" points="128.797,8.235 130.751,13.67 135.596,11.927 142.136,30.109 143.952,29.455 147.902,12.672    140.193,3.815  "/>
	<path fill="#C78982" d="M141.028,11.751l7.609,20.773c0.824,2.484-1.012,5.049-3.629,5.071l-24.267,0.202L141.028,11.751z"/>
	<path fill="#C78982" d="M143.881,25.01l3.654-1.415c1.523-0.589,1.614-2.709,0.148-3.428l-6.415-3.143L143.881,25.01z"/>
	<path fill="#C78982" d="M124.174,3.162l-0.478,0.159c-2.022,0.671-3.118,2.853-2.447,4.875l4.216,12.714l16.953-5.622l-1.181-3.561   C138.891,4.65,131.251,0.815,124.174,3.162z"/>
	
		<rect x="132.977" y="14.259" transform="matrix(-0.9492 0.3148 -0.3148 -0.9492 276.8357 -1.9553)" fill="#C78982" width="11.197" height="14.233"/>
	<path fill="#C78982" d="M118.758,2.162l-4.987,1.794c-5.45,1.96-8.278,7.967-6.318,13.417l8.873,24.669l31.717-11.409   l-6.357-17.674C138.336,3.647,128.071-1.187,118.758,2.162z"/>
	<path opacity="0.1" d="M142.381,15.599l-2.414,0.868c-0.28,0.101-0.509,0.309-0.636,0.579l-0.643,1.366   c-0.426,0.906,0.455,1.875,1.397,1.536l2.921-1.051"/>
	<path fill="#9c0a44" d="M130.61,23.992l1.344,3.737c1.239,3.445,4.41,5.823,8.065,6.047h0v0c-0.972-2.703,0.431-5.682,3.133-6.654   l3.212-1.155l3.602,10.014c0.893,2.483-0.994,5.087-3.632,5.011l-10.456-0.301c-1.54-0.044-2.895-1.027-3.416-2.476l-5.782-16.073   h0C128.277,21.567,130.036,22.396,130.61,23.992z"/>
	<path fill="#C78982" d="M144.682,32.871l2.629-0.313c0.699-0.083,1.139-0.795,0.901-1.457l-1.055-2.934l-2.326,0.837   c-1.246,0.448-1.892,1.821-1.444,3.067v0C143.579,32.606,144.116,32.938,144.682,32.871z"/>
	<path fill="#9c0a44" d="M131.994,0.303l4.022,11.181c0.782,2.174-0.346,4.57-2.52,5.352l-3.968,1.427   c-2.1,0.755-3.191,3.071-2.435,5.171l3.354,9.323c0.68,1.892-0.301,3.977-2.193,4.658l0,0c-0.908,0.327-1.91,0.279-2.783-0.132   l-18.215-8.578c-1.01-0.475-1.443-1.679-0.967-2.689l5.798-16.128c1.751-4.87,6.158-8.289,11.31-8.775L131.994,0.303z"/>
	<path fill="#9c0a44" d="M119.579,1.857l-11.158,4.013c-5.806,2.089-8.82,8.489-6.732,14.295l6.8,18.904   c0.298,0.829,1.134,1.338,2.007,1.223l21.868-2.89L119.579,1.857z"/>
	<path fill="#C78982" d="M118.959,20.587l0.326-0.117c2.499-0.899,5.254,0.398,6.153,2.898l3.136,8.72l-4.419-0.911   c-1.805-0.372-3.348-1.535-4.203-3.168l-2.228-4.256C117.091,22.542,117.672,21.05,118.959,20.587z"/>
</g>
<path fill="#C78982" d="M204.887,73.417L171.04,93.9l-1.746-5.188l-4.244-12.995l29.034-11.183  C194.084,64.535,205.512,73.099,204.887,73.417z"/>
<path fill="#C78982" d="M174.263,88.511l-5.574-10.661l19.893-11.092c1.017-0.482,1.839-1.297,2.331-2.309l1.038-2.253  c0.692-1.493,1.73-2.799,3.028-3.811l2.112-1.656l7.097-8.732c0.266-0.402,0.808-0.512,1.211-0.246  c0.032,0.021,0.063,0.045,0.092,0.07l0,0c0.604,0.56,0.719,1.52,0.564,2.472c-0.177,0.909-0.597,1.754-1.216,2.443l-2.413,2.748  c-0.501,0.577-0.729,1.343-0.625,2.1l0.019,0.036c0.172,1.208,1.29,2.048,2.499,1.877c0.116-0.016,0.23-0.042,0.342-0.077  l16.789-5.228c1.242-0.266,2.425,0.248,2.881,1.177c0.134,0.331-0.026,0.707-0.356,0.841c-0.013,0.005-0.026,0.01-0.039,0.014  l-13.769,5.936c-0.247,0.104-0.362,0.389-0.258,0.636c0.084,0.199,0.289,0.318,0.503,0.293l16.282-1.774  c1.26-0.006,2.325,0.726,2.589,1.729c0.059,0.35-0.176,0.681-0.525,0.74c0,0-0.019,0.003-0.029,0.004l-16.231,3.411  c-0.156,0.038-0.253,0.195-0.215,0.351c0.03,0.123,0.136,0.213,0.262,0.222l15.246,0.667c1.262,0.182,2.191,1.074,2.297,2.097  c0.014,0.36-0.267,0.664-0.628,0.677c-0.008,0-0.016,0-0.016,0l-16.026,0.853c-0.304,0.016-0.338,0.577-0.03,0.635l10.378,3.036  c1.228,0.335,2.039,1.339,2.02,2.372c-0.036,0.357-0.355,0.617-0.712,0.58c-0.007-0.001-0.015-0.002-0.022-0.003l-11.695-2.478  c-1.234-0.253-2.513-0.167-3.702,0.251l-4.455,1.533c-2.412,0.478-4.866,0.707-7.325,0.684l-3.356-0.031  c-1.473-0.013-2.923,0.359-4.208,1.08L174.263,88.511z"/>
<path fill="#a3fdff" d="M179.283,88.792l-19.266,12.522c-3.654,2.21-5.026,2.836-9.279,2.448l-9.893-0.903l-8.586-20.505  l26.443-4.799l13.056-4.294L179.283,88.792z"/>
<path opacity="0.1" fill="#9c0a44" d="M144.473,103.246l-10.466-2.509c-1.837-0.44-3.204,1.676-2.048,3.169l10.461,13.509  L144.473,103.246z"/>

            </g>
        </g>
    </g>
    
    <!-- ITEM 3 -->
    <g>
        <defs>
            <clipPath id="clip-path-id-viewbox-item-3">
                <rect x="0.0" y="0.0" width="149.596" height="391.857"/>
            </clipPath>
        </defs>
        <g transform="translate(496.0 310.0) rotate(0.0 87.5 230.0) scale(1.1698173747961176 1.1738976208157568)">
            <g clip-path="url(#clip-path-id-viewbox-item-3)" transform="translate(-0.0 -0.0)">
                
<g>
	<g>
		<g>
			<path fill="#99644C" d="M0.038,11.646l0.984,10.443l5.303,18.316l8.845-2.594l-4.779-23.776     C10.392,14.034-0.013,11.102,0.038,11.646z"/>
			<path fill="#99644C" d="M5.767,6.037l6.817,2.392c1.562,0.548,2.227,2.392,1.374,3.811l-3.994,6.643     c-0.264,0.439-0.799,0.633-1.283,0.466l-3.959-1.368c-3.645-1.259-5.597-5.272-4.338-8.917l0.169-0.491     C1.288,6.442,3.635,5.3,5.767,6.037z"/>
			<path fill="#99644C" d="M3.049,7.662c1.178-3.41,4.309-4.508,7.192-3.513s4.47,4.479,3.292,7.889s-4.515,4.597-7.397,3.601     S1.871,11.072,3.049,7.662z"/>
			<path fill="#99644C" d="M18.846,10.498c0,0-1.083,2.275-1.301,2.895c-0.361,1.014-0.981,1.913-1.808,2.601l-2.334,1.837     c-1.33,1.042-2.323,1.831-4.677,1.598l-4.034,0.75l-3.617-4.223c-0.533-0.622-0.379-1.573,0.322-1.996l0.586-0.353     c1.953-0.154,3.743-1.195,4.833-2.853l0.025-0.044l0.03-0.047l6.736-5.696l0.251,3.254c0.099,1.285,1.171,2.278,2.46,2.278     H18.846z"/>
		</g>
		<g>
			<path fill="#99644C" d="M17.329,11.813l0.039-3.274c0.012-1.021,0.78-1.874,1.794-1.993l0.223-0.026     c0.318-0.037,0.606,0.19,0.644,0.509l0.39,3.321c0.07,0.6-0.359,1.143-0.958,1.213L17.329,11.813z"/>
			<path fill="#99644C" d="M19.989,11.688l-3.927,4.049c-0.964,0.994-2.572,0.95-3.48-0.095l-0.469-0.539l6.566-6.717l1.283,1.254     C20.533,10.199,20.546,11.114,19.989,11.688z"/>
		</g>
	</g>
	<path fill="#99644C" d="M58.8,97.015L27.47,59.727l-13.081-3.925L14.3,55.934c-2.47,3.657-2.251,8.502,0.54,11.921l35.503,43.492   L58.8,97.015z"/>
	<path fill="#99644C" d="M0.878,19.287l9.557-2.046l18.223,45.736l-6.874,3.175c-3.627,1.676-7.911-0.117-9.263-3.877l-1.998-5.552   L0.878,19.287z"/>
	<path fill="#99644C" d="M80.798,88.125l-25.363-0.332L31.733,77.224l5.752,26.973c1.8,8.442,9.273,14.465,17.905,14.431   l20.54-0.194L80.798,88.125z"/>
	<path fill="#dd4276" d="M0.923,22.075c0,0,1.57-2.161,5.451-2.794c3.11-0.507,5.055-0.067,5.055-0.067l3.672,9.477   c0,0-2.923-0.465-6.403,1.792c-4.151,2.692-4.182,4.195-4.182,4.195L0.923,22.075z"/>
	
		<ellipse transform="matrix(-0.5868 -0.8097 0.8097 -0.5868 -10.6919 159.6217)" fill="#99644C" cx="35.381" cy="82.539" rx="24.713" ry="9.5"/>
	<path opacity="0.1" fill="#002652" d="M7.091,6.834c3.144,0,5.777,1.871,6.513,4.396c-0.147-0.01-0.294-0.021-0.444-0.021   c-3.352,0-6.069,2.619-6.069,5.85c0,0.488,0.069,0.96,0.186,1.414c-0.062,0.001-0.123,0.008-0.186,0.008   c-3.714,0-6.725-2.607-6.725-5.823S3.377,6.834,7.091,6.834z"/>
	<path fill="#99644C" d="M12.579,10.06h0.004c1.04,0,1.89-0.85,1.89-1.89V1.886C14.472,0.849,13.624,0,12.587,0l-0.008,0   c-0.913,0-1.66,0.747-1.66,1.66V8.4C10.919,9.313,11.666,10.06,12.579,10.06z"/>
	<path fill="#99644C" d="M9.029,11.044h0.226c0.915,0,1.664-0.749,1.664-1.664V2.874c0-1.039-0.85-1.89-1.89-1.89h0   c-0.915,0-1.664,0.749-1.664,1.664l0,6.732C7.365,10.296,8.113,11.044,9.029,11.044z"/>
	<path fill="#99644C" d="M5.529,11.044h0.226c0.915,0,1.664-0.749,1.664-1.664V2.874c0-1.039-0.85-1.89-1.89-1.89h0   c-0.915,0-1.664,0.749-1.664,1.664V9.38C3.865,10.296,4.614,11.044,5.529,11.044z"/>
	<path fill="#99644C" d="M2.112,11.044h0.216c0.875,0,1.592-0.716,1.592-1.592V3.229c0-0.994-0.813-1.808-1.808-1.808h0   c-0.875,0-1.592,0.716-1.592,1.592l0,6.44C0.521,10.328,1.237,11.044,2.112,11.044z"/>
	<g>
		<path fill="#99644C" d="M110.755,259.999l8.944,37.03c0.26,1.076,0.422,2.18,0.484,3.296l3.898,70.034    c0,0-15.067,4.464-14.542,4.338L92.834,305.17c-0.484-2.016-0.624-4.119-0.412-6.216l2.931-29.04L110.755,259.999z"/>
	</g>
	<g>
		<rect x="104.522" y="386.673" fill="#c83676" width="22.257" height="5.184"/>
		<path fill="#9d1f76" d="M125.934,388.81h-19.878c-1.046,0-1.897-0.843-1.906-1.889l-0.014-1.49    c-0.021-2.29,0.371-4.565,1.157-6.716l2.429-6.647l16.306-0.034l2.656,7.275c0.765,2.095,1.156,4.308,1.156,6.539v1.056    C127.841,387.957,126.987,388.81,125.934,388.81z"/>
		<path fill="#c83676" d="M110.139,378.929l11.491-0.173l-0.173-11.487c-0.031-2.078-1.741-3.737-3.819-3.705l-3.967,0.06    c-2.078,0.031-3.737,1.741-3.705,3.819L110.139,378.929z"/>
		<path fill="#9d1f76" d="M116.595,382.624h-8.923v-12.059h4.037c1.921,0,3.542,1.429,3.783,3.334L116.595,382.624z"/>
		<path fill="#9d1f76" d="M124.465,382.624h-8.923l1.103-8.724c0.241-1.906,1.862-3.334,3.783-3.334h4.037V382.624z"/>
	</g>
	<g>
		<path fill="#9d1f76" d="M103.863,166.353l3.197,18.632c0.586,0.975,0.929,2.091,1.002,3.254l5.107,81.994    c0,0-17.212,6.784-17.332,6.285l-1.055,0.365L64.704,175.01L103.863,166.353z"/>
	</g>
	
		<ellipse transform="matrix(-0.9907 0.1363 -0.1363 -0.9907 221.2867 458.3884)" fill="#9d1f76" cx="94.945" cy="236.772" rx="13.5" ry="38.833"/>
	
		<ellipse transform="matrix(-0.9972 -0.0744 0.0744 -0.9972 182.8357 465.353)" fill="#9d1f76" cx="100.082" cy="229.272" rx="12.356" ry="45.668"/>
	
		<ellipse transform="matrix(-1 0.0098 -0.0098 -1 231.882 647.7573)" fill="#99644C" cx="114.361" cy="324.444" rx="9.804" ry="36.236"/>
	
		<ellipse transform="matrix(-0.9621 0.2725 -0.2725 -0.9621 295.0443 599.9094)" fill="#99644C" cx="105.861" cy="320.444" rx="9.804" ry="36.236"/>
	<g>
		<path fill="#7AD3AB" d="M109.539,374.693l0.001,0.003C109.523,374.7,109.524,374.699,109.539,374.693z"/>
		<path fill="#760561" d="M93.655,273.082l1.03,3.47l-1.18,11.68c-0.72,1.68-1.14,4.06-1.26,6.98h27.64    c-0.43-1.14-0.88-2.16-1.36-3.04l-5.38-22.27l-1.13-18.19h-27.82c1.86,6.88,4.27,12.71,6.91,16.85    C91.865,270.492,92.715,272.022,93.655,273.082z"/>
	</g>
	<g>
		<g>
			<path fill="#99644C" d="M149.558,11.646l-0.984,10.443l-5.303,18.316l-8.845-2.594l4.779-23.776     C139.204,14.034,149.61,11.102,149.558,11.646z"/>
			<path fill="#99644C" d="M143.829,6.037l-6.817,2.392c-1.562,0.548-2.227,2.392-1.374,3.811l3.994,6.643     c0.264,0.439,0.799,0.633,1.283,0.466l3.959-1.368c3.645-1.259,5.597-5.272,4.338-8.917l-0.169-0.491     C148.308,6.442,145.961,5.3,143.829,6.037z"/>
			<path fill="#99644C" d="M146.547,7.662c-1.178-3.41-4.309-4.508-7.192-3.513c-2.882,0.996-4.47,4.479-3.292,7.889     c1.178,3.41,4.515,4.597,7.397,3.601C146.343,14.644,147.725,11.072,146.547,7.662z"/>
			<path fill="#99644C" d="M130.75,10.498c0,0,1.083,2.275,1.301,2.895c0.361,1.014,0.981,1.913,1.808,2.601l2.334,1.837     c1.33,1.042,2.323,1.831,4.677,1.598l4.034,0.75l3.617-4.223c0.533-0.622,0.379-1.573-0.322-1.996l-0.586-0.353     c-1.953-0.154-3.743-1.195-4.833-2.853l-0.025-0.044l-0.03-0.047l-6.736-5.696l-0.251,3.254c-0.099,1.285-1.171,2.278-2.46,2.278     H130.75z"/>
		</g>
		<g>
			<path fill="#99644C" d="M132.268,11.813l-0.039-3.274c-0.012-1.021-0.78-1.874-1.794-1.993l-0.223-0.026     c-0.318-0.037-0.606,0.19-0.644,0.509l-0.39,3.321c-0.07,0.6,0.359,1.143,0.958,1.213L132.268,11.813z"/>
			<path fill="#99644C" d="M129.607,11.688l3.927,4.049c0.964,0.994,2.572,0.95,3.48-0.095l0.469-0.539l-6.566-6.717l-1.283,1.254     C129.063,10.199,129.051,11.114,129.607,11.688z"/>
		</g>
	</g>
	<g>
		<path fill="#99644C" d="M38.123,259.999l-8.944,37.03c-0.26,1.076-0.422,2.18-0.484,3.296l-3.898,70.034    c0,0,15.067,4.464,14.542,4.338l16.706-69.526c0.484-2.016,0.624-4.119,0.412-6.216l-2.931-29.04L38.123,259.999z"/>
	</g>
	<polygon fill="#99644C" points="44.735,113.252 48.819,150.632 44.438,174.909 104.915,175.578 101.799,151.161 105.799,113.727     "/>
	<path fill="#99644C" d="M90.796,97.015l31.33-37.288l13.081-3.925l0.089,0.131c2.47,3.657,2.251,8.502-0.54,11.921l-35.503,43.492   L90.796,97.015z"/>
	<path fill="#99644C" d="M148.718,19.287l-9.557-2.046l-18.223,45.736l6.874,3.175c3.627,1.676,7.911-0.117,9.263-3.877l1.998-5.552   L148.718,19.287z"/>
	<path fill="#99644C" d="M68.798,88.125l25.363-0.332l23.702-10.568l-5.752,26.973c-1.8,8.442-9.273,14.465-17.905,14.431   l-20.54-0.194L68.798,88.125z"/>
	<polygon fill="#9d1f76" points="44.735,117.585 47.819,152.366 43.438,174.956 105.435,175.578 102.799,152.858 105.799,118.027     "/>
	<polygon fill="#9d1f76" points="62.242,87.75 48.734,117.689 101.889,117.712 88.313,87.75  "/>
	<polygon fill="#9d1f76" points="101.847,141.051 48.851,141.051 48.851,117.585 76.166,113.585 101.847,117.585  "/>
	<g>
		<rect x="22.099" y="386.673" fill="#c83676" width="22.257" height="5.184"/>
		<path fill="#9d1f76" d="M22.944,388.81h19.878c1.046,0,1.897-0.843,1.906-1.889l0.014-1.49c0.021-2.29-0.371-4.565-1.157-6.716    l-2.429-6.647l-16.306-0.034l-2.656,7.275c-0.765,2.095-1.156,4.308-1.156,6.539v1.056    C21.037,387.957,21.891,388.81,22.944,388.81z"/>
		<path fill="#c83676" d="M38.739,378.929l-11.491-0.173l0.173-11.487c0.031-2.078,1.741-3.737,3.819-3.705l3.967,0.06    c2.078,0.031,3.737,1.741,3.705,3.819L38.739,378.929z"/>
		<path fill="#9d1f76" d="M32.283,382.624h8.923v-12.059h-4.037c-1.921,0-3.542,1.429-3.783,3.334L32.283,382.624z"/>
		<path fill="#9d1f76" d="M24.413,382.624h8.923l-1.103-8.724c-0.241-1.906-1.862-3.334-3.783-3.334h-4.037V382.624z"/>
	</g>
	<g>
		<circle fill="#002652" cx="86.222" cy="74.837" r="14.276"/>
		<circle fill="#002652" cx="74.242" cy="74.837" r="14.276"/>
		<path fill="#99644C" d="M74.551,106.201l-7.601-19.19v-14.51h9.519h8.35V90.38l-8.226,15.923    C76.15,107.159,74.906,107.097,74.551,106.201z"/>
		<polygon opacity="0.1" fill="#002652" points="76.639,79.898 76.639,88.134 80.383,80.272   "/>
		<circle fill="#002652" cx="89.13" cy="57.53" r="11.842"/>
		<path fill="#002652" d="M60.146,75.262h31.82V51.678c0-7.65-6.201-13.851-13.851-13.851h-4.118    c-7.65,0-13.851,6.201-13.851,13.851V75.262z"/>
		<path fill="#99644C" d="M88.987,44.334H75.884h-1.872c-6.203,0-11.231,5.028-11.231,11.231v6.738v6.002    c0,1.915,0.734,3.757,2.051,5.148l6.457,6.819h9.189l6.457-6.819c1.317-1.391,2.051-3.233,2.051-5.148v-6.002V44.334z"/>
		<rect x="70.026" y="51.79" fill="#99644C" width="9.888" height="12.57"/>
		<path fill="#99644C" d="M89.692,65.762h-7.394c-0.493,0-0.893-0.4-0.893-0.893v-7.342c0-0.493,0.4-0.893,0.893-0.893h7.394    c2.521,0,4.564,2.043,4.564,4.564v0C94.256,63.718,92.212,65.762,89.692,65.762z"/>
		<path fill="#99644C" d="M63.234,67.919h7.394c0.493,0,0.893-0.4,0.893-0.893v-7.342c0-0.493-0.4-0.893-0.893-0.893h-7.394    c-2.521,0-4.564,2.043-4.564,4.564v0C58.67,65.875,60.713,67.919,63.234,67.919z"/>
		<path fill="#002652" d="M83.059,41.758h-8.766l1.958,7.378c1.164,4.386,5.133,7.439,9.671,7.439h6.341V50.96    C92.262,45.878,88.141,41.758,83.059,41.758z"/>
		<polygon opacity="0.1" fill="#002652" points="81.131,67.775 77.388,67.775 77.388,58.042   "/>
		<g>
			<polygon opacity="0.1" fill="#002652" points="80.383,70.182 79.661,71.949 76.296,72.608 76.296,70.142    "/>
			<polygon opacity="0.1" fill="#002652" points="72.21,70.182 72.932,71.949 76.296,72.608 76.296,70.142    "/>
		</g>
		<path fill="#002652" d="M84.714,56.544L84.714,56.544c1.067,0,1.932,0.865,1.932,1.932v6.647c0,2.836,1.361,5.5,3.66,7.162    c2.14,1.546,4.447,3.222,4.576,3.351v-9.733h0c-1.861,0-3.369-1.508-3.369-3.369V51.678h-6.799V56.544z"/>
		<rect x="89.267" y="54.298" fill="#002652" width="6.364" height="11.605"/>
	</g>
	<path fill="#dd4276" d="M148.673,22.075c0,0-1.57-2.161-5.451-2.794c-3.11-0.507-5.055-0.067-5.055-0.067l-3.672,9.477   c0,0,2.923-0.465,6.403,1.792c4.151,2.692,4.182,4.195,4.182,4.195L148.673,22.075z"/>
	<g>
		<path fill="#9d1f76" d="M45.015,166.353l-3.197,18.632c-0.586,0.975-0.929,2.091-1.002,3.254l-5.107,81.994    c0,0,17.212,6.784,17.332,6.285l1.055,0.365L84.174,175.01L45.015,166.353z"/>
	</g>
	
		<ellipse transform="matrix(0.5868 -0.8097 0.8097 0.5868 -19.6405 126.5889)" fill="#99644C" cx="114.215" cy="82.539" rx="24.713" ry="9.5"/>
	
		<ellipse transform="matrix(0.9907 0.1363 -0.1363 0.9907 32.7863 -5.1423)" fill="#9d1f76" cx="53.933" cy="236.772" rx="13.5" ry="38.833"/>
	
		<ellipse transform="matrix(0.9972 -0.0744 0.0744 0.9972 -16.9162 4.264)" fill="#9d1f76" cx="48.796" cy="229.272" rx="12.356" ry="45.668"/>
	<ellipse transform="matrix(1 0.0098 -0.0098 1 3.1663 -0.3212)" fill="#99644C" cx="34.517" cy="324.444" rx="9.804" ry="36.236"/>
	
		<ellipse transform="matrix(0.9621 0.2725 -0.2725 0.9621 88.9566 0.406)" fill="#99644C" cx="43.017" cy="320.444" rx="9.804" ry="36.236"/>
	<path opacity="0.1" fill="#002652" d="M142.505,6.834c-3.144,0-5.777,1.871-6.513,4.396c0.147-0.01,0.294-0.021,0.444-0.021   c3.352,0,6.069,2.619,6.069,5.85c0,0.488-0.069,0.96-0.186,1.414c0.062,0.001,0.123,0.008,0.186,0.008   c3.714,0,6.725-2.607,6.725-5.823S146.219,6.834,142.505,6.834z"/>
	<path fill="#99644C" d="M137.018,10.06h-0.004c-1.04,0-1.89-0.85-1.89-1.89V1.886c0-1.037,0.849-1.886,1.886-1.886l0.008,0   c0.913,0,1.66,0.747,1.66,1.66V8.4C138.678,9.313,137.931,10.06,137.018,10.06z"/>
	<path fill="#99644C" d="M140.568,11.044h-0.226c-0.915,0-1.664-0.749-1.664-1.664V2.874c0-1.039,0.85-1.89,1.89-1.89h0   c0.915,0,1.664,0.749,1.664,1.664V9.38C142.232,10.296,141.483,11.044,140.568,11.044z"/>
	<path fill="#99644C" d="M144.067,11.044h-0.226c-0.915,0-1.664-0.749-1.664-1.664V2.874c0-1.039,0.85-1.89,1.89-1.89l0,0   c0.915,0,1.664,0.749,1.664,1.664V9.38C145.731,10.296,144.982,11.044,144.067,11.044z"/>
	<path fill="#99644C" d="M147.484,11.044h-0.216c-0.875,0-1.592-0.716-1.592-1.592V3.229c0-0.994,0.813-1.808,1.808-1.808h0   c0.875,0,1.592,0.716,1.592,1.592v6.44C149.076,10.328,148.359,11.044,147.484,11.044z"/>
	<ellipse fill="#9d1f76" cx="75.534" cy="208.176" rx="15.518" ry="8.176"/>
	<g>
		<path fill="#7AD3AB" d="M39.339,374.693l-0.001,0.003C39.355,374.7,39.354,374.699,39.339,374.693z"/>
		<path fill="#760561" d="M55.223,273.082l-1.03,3.47l1.18,11.68c0.72,1.68,1.14,4.06,1.26,6.98h-27.64    c0.43-1.14,0.88-2.16,1.36-3.04l5.38-22.27l1.13-18.19h27.82c-1.86,6.88-4.27,12.71-6.91,16.85    C57.013,270.492,56.163,272.022,55.223,273.082z"/>
	</g>
</g>

            </g>
        </g>
    </g>
    
</svg>