<?xml version="1.0" encoding="UTF-8"?><svg version="1.1" xmlns="http://www.w3.org/2000/svg" xmlns:xlink="http://www.w3.org/1999/xlink" viewBox="0 0 1280 900" width="1280" height="900" x="0px" y="0px">
              
              <!-- ITEM 0 -->
<g>
    <defs>
        
        <clipPath id="clip-path-id-viewbox-item-0">
            <rect x="0.0" y="0.0" width="736.954" height="160.834"/>
        </clipPath>
    </defs>
    <g transform="translate(73.0 638.0) rotate(0.0 557.0 121.0) scale(1.5116275914100474 1.5046569755151273)">
      <g clip-path="url(#clip-path-id-viewbox-item-0)" transform="translate(-0.0 -0.0)">
      
<path fill="#F8F8F9" d="M631.609,40.394c-9.803-1.605-19.553-0.643-28.736,2.138c-2.019,0.611-4.336,0.208-5.709-1.042  c-9.988-9.093-22.404-16.697-36.947-18.408c-35.131-4.134-51.548,15.64-66.255,27.274c-6.283,4.97-18.074-3.584-24.88-9.156  C444.894,21.397,413.036,0,383.237,0c-18.756,0-35.744,10.412-48.121,24.536c-4.841,5.524-15.568,6.228-21.6,1.381  c-15.742-12.649-36.882-21.382-59.499-19.886C232,7.488,212.65,18.367,198.788,32.423c-6.903,6.999-20.222,8.551-29.841,3.582  c-15.586-8.052-33.867-12.23-52.415-9.219c-46.436,7.537-76.959,57.27-71.966,87.851s42.585,24.156,89.021,16.618  c34.61-5.618,64.357-10.272,75.2-24.938c0.897-1.213,2.706-1.895,4.578-1.798c13.417,0.698,29.613-0.41,47.102-1.567  c11.977-0.792,23.352-1.526,33.577-2.699c0.975-0.112,1.972-0.018,2.853,0.309c10.393,3.86,27.461,3.8,46.768,3.8  c16.842,0,31.977,0.044,42.469-2.505c0.504-0.122,1.028-0.19,1.558-0.19c8.567-0.005,16.706-0.058,24.132-0.527  c0.813-0.051,1.613,0.071,2.355,0.32c8.815,2.95,22.792,2.903,38.538,2.903c9.623,0,18.583,0.017,26.112-0.641  c0.35-0.031,0.691-0.031,1.041,0c7.529,0.658,16.49,0.641,26.112,0.641c5.836,0,11.426,0.005,16.604-0.136  c0.45-0.012,0.889,0.022,1.325,0.105c6.994,1.329,14.495,2.55,22.297,3.827c0.294,0.048,0.588,0.096,0.881,0.144  c1.708,0.28,3.044,1.222,3.58,2.448c6.954,15.922,33.686,20.121,65.193,25.279c39.261,6.427,71.04,11.927,75.65-16.069  S670.87,46.821,631.609,40.394z"/>
<path fill="#E8E9EC" d="M31.679,160.834c16.323,0,29.96-5.37,33.333-12.55c3.374,7.18,17.01,12.55,33.333,12.55  c17.333,0,31.636-6.061,33.838-13.9c2.202,7.84,16.505,13.9,33.838,13.9c17.333,0,31.636-6.061,33.838-13.9  c2.202,7.84,16.505,13.9,33.838,13.9c17.333,0,31.636-6.061,33.838-13.9c2.202,7.84,16.505,13.9,33.838,13.9  c17.333,0,31.636-6.061,33.838-13.9c2.202,7.84,16.505,13.9,33.838,13.9c17.333,0,31.636-6.061,33.839-13.9  c2.202,7.84,16.505,13.9,33.838,13.9s31.636-6.061,33.838-13.9c2.202,7.84,16.505,13.9,33.838,13.9  c17.333,0,31.636-6.061,33.838-13.9c2.181,7.764,16.229,13.778,33.333,13.895c17.104-0.116,31.153-6.131,33.333-13.895  c2.202,7.84,16.505,13.9,33.838,13.9c17.333,0,31.636-6.061,33.838-13.9c2.202,7.84,16.505,13.9,33.838,13.9  c13.367,0,24.925-3.605,30.528-8.851c-38.786-55.135-189.232-96.237-368.911-96.237C189.671,55.746,40.113,96.253,0,150.783  C5.04,156.67,17.315,160.834,31.679,160.834z"/>

      </g>
    </g>
</g>

<!-- ITEM 1 -->
<g>
    <defs>
        
        <clipPath id="clip-path-id-viewbox-item-1">
            <rect x="0.0" y="0.0" width="149.596" height="391.857"/>
        </clipPath>
    </defs>
    <g transform="translate(497.0 242.0) rotate(0.0 100.5 263.5) scale(1.343618813337255 1.3448783612389212)">
      <g clip-path="url(#clip-path-id-viewbox-item-1)" transform="translate(-0.0 -0.0)">
      
<g>
	<g>
		<g>
			<path fill="#99644C" d="M0.038,11.646l0.984,10.443l5.303,18.316l8.845-2.594l-4.779-23.776     C10.392,14.034-0.013,11.102,0.038,11.646z"/>
			<path fill="#99644C" d="M5.767,6.037l6.817,2.392c1.562,0.548,2.227,2.392,1.374,3.811l-3.994,6.643     c-0.264,0.439-0.799,0.633-1.283,0.466l-3.959-1.368c-3.645-1.259-5.597-5.272-4.338-8.917l0.169-0.491     C1.288,6.442,3.635,5.3,5.767,6.037z"/>
			<path fill="#99644C" d="M3.049,7.662c1.178-3.41,4.309-4.508,7.192-3.513s4.47,4.479,3.292,7.889s-4.515,4.597-7.397,3.601     S1.871,11.072,3.049,7.662z"/>
			<path fill="#99644C" d="M18.846,10.498c0,0-1.083,2.275-1.301,2.895c-0.361,1.014-0.981,1.913-1.808,2.601l-2.334,1.837     c-1.33,1.042-2.323,1.831-4.677,1.598l-4.034,0.75l-3.617-4.223c-0.533-0.622-0.379-1.573,0.322-1.996l0.586-0.353     c1.953-0.154,3.743-1.195,4.833-2.853l0.025-0.044l0.03-0.047l6.736-5.696l0.251,3.254c0.099,1.285,1.171,2.278,2.46,2.278     H18.846z"/>
		</g>
		<g>
			<path fill="#99644C" d="M17.329,11.813l0.039-3.274c0.012-1.021,0.78-1.874,1.794-1.993l0.223-0.026     c0.318-0.037,0.606,0.19,0.644,0.509l0.39,3.321c0.07,0.6-0.359,1.143-0.958,1.213L17.329,11.813z"/>
			<path fill="#99644C" d="M19.989,11.688l-3.927,4.049c-0.964,0.994-2.572,0.95-3.48-0.095l-0.469-0.539l6.566-6.717l1.283,1.254     C20.533,10.199,20.546,11.114,19.989,11.688z"/>
		</g>
	</g>
	<path fill="#99644C" d="M58.8,97.015L27.47,59.727l-13.081-3.925L14.3,55.934c-2.47,3.657-2.251,8.502,0.54,11.921l35.503,43.492   L58.8,97.015z"/>
	<path fill="#99644C" d="M0.878,19.287l9.557-2.046l18.223,45.736l-6.874,3.175c-3.627,1.676-7.911-0.117-9.263-3.877l-1.998-5.552   L0.878,19.287z"/>
	<path fill="#99644C" d="M80.798,88.125l-25.363-0.332L31.733,77.224l5.752,26.973c1.8,8.442,9.273,14.465,17.905,14.431   l20.54-0.194L80.798,88.125z"/>
	<path fill="#c4ffff" d="M0.923,22.075c0,0,1.57-2.161,5.451-2.794c3.11-0.507,5.055-0.067,5.055-0.067l3.672,9.477   c0,0-2.923-0.465-6.403,1.792c-4.151,2.692-4.182,4.195-4.182,4.195L0.923,22.075z"/>
	
		<ellipse transform="matrix(-0.5868 -0.8097 0.8097 -0.5868 -10.6919 159.6217)" fill="#99644C" cx="35.381" cy="82.539" rx="24.713" ry="9.5"/>
	<path opacity="0.1" fill="#002652" d="M7.091,6.834c3.144,0,5.777,1.871,6.513,4.396c-0.147-0.01-0.294-0.021-0.444-0.021   c-3.352,0-6.069,2.619-6.069,5.85c0,0.488,0.069,0.96,0.186,1.414c-0.062,0.001-0.123,0.008-0.186,0.008   c-3.714,0-6.725-2.607-6.725-5.823S3.377,6.834,7.091,6.834z"/>
	<path fill="#99644C" d="M12.579,10.06h0.004c1.04,0,1.89-0.85,1.89-1.89V1.886C14.472,0.849,13.624,0,12.587,0l-0.008,0   c-0.913,0-1.66,0.747-1.66,1.66V8.4C10.919,9.313,11.666,10.06,12.579,10.06z"/>
	<path fill="#99644C" d="M9.029,11.044h0.226c0.915,0,1.664-0.749,1.664-1.664V2.874c0-1.039-0.85-1.89-1.89-1.89h0   c-0.915,0-1.664,0.749-1.664,1.664l0,6.732C7.365,10.296,8.113,11.044,9.029,11.044z"/>
	<path fill="#99644C" d="M5.529,11.044h0.226c0.915,0,1.664-0.749,1.664-1.664V2.874c0-1.039-0.85-1.89-1.89-1.89h0   c-0.915,0-1.664,0.749-1.664,1.664V9.38C3.865,10.296,4.614,11.044,5.529,11.044z"/>
	<path fill="#99644C" d="M2.112,11.044h0.216c0.875,0,1.592-0.716,1.592-1.592V3.229c0-0.994-0.813-1.808-1.808-1.808h0   c-0.875,0-1.592,0.716-1.592,1.592l0,6.44C0.521,10.328,1.237,11.044,2.112,11.044z"/>
	<g>
		<path fill="#99644C" d="M110.755,259.999l8.944,37.03c0.26,1.076,0.422,2.18,0.484,3.296l3.898,70.034    c0,0-15.067,4.464-14.542,4.338L92.834,305.17c-0.484-2.016-0.624-4.119-0.412-6.216l2.931-29.04L110.755,259.999z"/>
	</g>
	<g>
		<rect x="104.522" y="386.673" fill="#affaff" width="22.257" height="5.184"/>
		<path fill="#84e3ff" d="M125.934,388.81h-19.878c-1.046,0-1.897-0.843-1.906-1.889l-0.014-1.49    c-0.021-2.29,0.371-4.565,1.157-6.716l2.429-6.647l16.306-0.034l2.656,7.275c0.765,2.095,1.156,4.308,1.156,6.539v1.056    C127.841,387.957,126.987,388.81,125.934,388.81z"/>
		<path fill="#affaff" d="M110.139,378.929l11.491-0.173l-0.173-11.487c-0.031-2.078-1.741-3.737-3.819-3.705l-3.967,0.06    c-2.078,0.031-3.737,1.741-3.705,3.819L110.139,378.929z"/>
		<path fill="#84e3ff" d="M116.595,382.624h-8.923v-12.059h4.037c1.921,0,3.542,1.429,3.783,3.334L116.595,382.624z"/>
		<path fill="#84e3ff" d="M124.465,382.624h-8.923l1.103-8.724c0.241-1.906,1.862-3.334,3.783-3.334h4.037V382.624z"/>
	</g>
	<g>
		<path fill="#7ce3ff" d="M103.863,166.353l3.197,18.632c0.586,0.975,0.929,2.091,1.002,3.254l5.107,81.994    c0,0-17.212,6.784-17.332,6.285l-1.055,0.365L64.704,175.01L103.863,166.353z"/>
	</g>
	
		<ellipse transform="matrix(-0.9907 0.1363 -0.1363 -0.9907 221.2867 458.3884)" fill="#7ce3ff" cx="94.945" cy="236.772" rx="13.5" ry="38.833"/>
	
		<ellipse transform="matrix(-0.9972 -0.0744 0.0744 -0.9972 182.8357 465.353)" fill="#7ce3ff" cx="100.082" cy="229.272" rx="12.356" ry="45.668"/>
	
		<ellipse transform="matrix(-1 0.0098 -0.0098 -1 231.882 647.7573)" fill="#99644C" cx="114.361" cy="324.444" rx="9.804" ry="36.236"/>
	
		<ellipse transform="matrix(-0.9621 0.2725 -0.2725 -0.9621 295.0443 599.9094)" fill="#99644C" cx="105.861" cy="320.444" rx="9.804" ry="36.236"/>
	<g>
		<path fill="#7AD3AB" d="M109.539,374.693l0.001,0.003C109.523,374.7,109.524,374.699,109.539,374.693z"/>
		<path fill="#55c9ea" d="M93.655,273.082l1.03,3.47l-1.18,11.68c-0.72,1.68-1.14,4.06-1.26,6.98h27.64    c-0.43-1.14-0.88-2.16-1.36-3.04l-5.38-22.27l-1.13-18.19h-27.82c1.86,6.88,4.27,12.71,6.91,16.85    C91.865,270.492,92.715,272.022,93.655,273.082z"/>
	</g>
	<g>
		<g>
			<path fill="#99644C" d="M149.558,11.646l-0.984,10.443l-5.303,18.316l-8.845-2.594l4.779-23.776     C139.204,14.034,149.61,11.102,149.558,11.646z"/>
			<path fill="#99644C" d="M143.829,6.037l-6.817,2.392c-1.562,0.548-2.227,2.392-1.374,3.811l3.994,6.643     c0.264,0.439,0.799,0.633,1.283,0.466l3.959-1.368c3.645-1.259,5.597-5.272,4.338-8.917l-0.169-0.491     C148.308,6.442,145.961,5.3,143.829,6.037z"/>
			<path fill="#99644C" d="M146.547,7.662c-1.178-3.41-4.309-4.508-7.192-3.513c-2.882,0.996-4.47,4.479-3.292,7.889     c1.178,3.41,4.515,4.597,7.397,3.601C146.343,14.644,147.725,11.072,146.547,7.662z"/>
			<path fill="#99644C" d="M130.75,10.498c0,0,1.083,2.275,1.301,2.895c0.361,1.014,0.981,1.913,1.808,2.601l2.334,1.837     c1.33,1.042,2.323,1.831,4.677,1.598l4.034,0.75l3.617-4.223c0.533-0.622,0.379-1.573-0.322-1.996l-0.586-0.353     c-1.953-0.154-3.743-1.195-4.833-2.853l-0.025-0.044l-0.03-0.047l-6.736-5.696l-0.251,3.254c-0.099,1.285-1.171,2.278-2.46,2.278     H130.75z"/>
		</g>
		<g>
			<path fill="#99644C" d="M132.268,11.813l-0.039-3.274c-0.012-1.021-0.78-1.874-1.794-1.993l-0.223-0.026     c-0.318-0.037-0.606,0.19-0.644,0.509l-0.39,3.321c-0.07,0.6,0.359,1.143,0.958,1.213L132.268,11.813z"/>
			<path fill="#99644C" d="M129.607,11.688l3.927,4.049c0.964,0.994,2.572,0.95,3.48-0.095l0.469-0.539l-6.566-6.717l-1.283,1.254     C129.063,10.199,129.051,11.114,129.607,11.688z"/>
		</g>
	</g>
	<g>
		<path fill="#99644C" d="M38.123,259.999l-8.944,37.03c-0.26,1.076-0.422,2.18-0.484,3.296l-3.898,70.034    c0,0,15.067,4.464,14.542,4.338l16.706-69.526c0.484-2.016,0.624-4.119,0.412-6.216l-2.931-29.04L38.123,259.999z"/>
	</g>
	<polygon fill="#99644C" points="44.735,113.252 48.819,150.632 44.438,174.909 104.915,175.578 101.799,151.161 105.799,113.727     "/>
	<path fill="#99644C" d="M90.796,97.015l31.33-37.288l13.081-3.925l0.089,0.131c2.47,3.657,2.251,8.502-0.54,11.921l-35.503,43.492   L90.796,97.015z"/>
	<path fill="#99644C" d="M148.718,19.287l-9.557-2.046l-18.223,45.736l6.874,3.175c3.627,1.676,7.911-0.117,9.263-3.877l1.998-5.552   L148.718,19.287z"/>
	<path fill="#99644C" d="M68.798,88.125l25.363-0.332l23.702-10.568l-5.752,26.973c-1.8,8.442-9.273,14.465-17.905,14.431   l-20.54-0.194L68.798,88.125z"/>
	<polygon fill="#7ce3ff" points="44.735,117.585 47.819,152.366 43.438,174.956 105.435,175.578 102.799,152.858 105.799,118.027     "/>
	<polygon fill="#7ce3ff" points="62.242,87.75 48.734,117.689 101.889,117.712 88.313,87.75  "/>
	<polygon fill="#7ce3ff" points="101.847,141.051 48.851,141.051 48.851,117.585 76.166,113.585 101.847,117.585  "/>
	<g>
		<rect x="22.099" y="386.673" fill="#affaff" width="22.257" height="5.184"/>
		<path fill="#84e3ff" d="M22.944,388.81h19.878c1.046,0,1.897-0.843,1.906-1.889l0.014-1.49c0.021-2.29-0.371-4.565-1.157-6.716    l-2.429-6.647l-16.306-0.034l-2.656,7.275c-0.765,2.095-1.156,4.308-1.156,6.539v1.056    C21.037,387.957,21.891,388.81,22.944,388.81z"/>
		<path fill="#affaff" d="M38.739,378.929l-11.491-0.173l0.173-11.487c0.031-2.078,1.741-3.737,3.819-3.705l3.967,0.06    c2.078,0.031,3.737,1.741,3.705,3.819L38.739,378.929z"/>
		<path fill="#84e3ff" d="M32.283,382.624h8.923v-12.059h-4.037c-1.921,0-3.542,1.429-3.783,3.334L32.283,382.624z"/>
		<path fill="#84e3ff" d="M24.413,382.624h8.923l-1.103-8.724c-0.241-1.906-1.862-3.334-3.783-3.334h-4.037V382.624z"/>
	</g>
	<g>
		<circle fill="#002652" cx="86.222" cy="74.837" r="14.276"/>
		<circle fill="#002652" cx="74.242" cy="74.837" r="14.276"/>
		<path fill="#99644C" d="M74.551,106.201l-7.601-19.19v-14.51h9.519h8.35V90.38l-8.226,15.923    C76.15,107.159,74.906,107.097,74.551,106.201z"/>
		<polygon opacity="0.1" fill="#002652" points="76.639,79.898 76.639,88.134 80.383,80.272   "/>
		<circle fill="#002652" cx="89.13" cy="57.53" r="11.842"/>
		<path fill="#002652" d="M60.146,75.262h31.82V51.678c0-7.65-6.201-13.851-13.851-13.851h-4.118    c-7.65,0-13.851,6.201-13.851,13.851V75.262z"/>
		<path fill="#99644C" d="M88.987,44.334H75.884h-1.872c-6.203,0-11.231,5.028-11.231,11.231v6.738v6.002    c0,1.915,0.734,3.757,2.051,5.148l6.457,6.819h9.189l6.457-6.819c1.317-1.391,2.051-3.233,2.051-5.148v-6.002V44.334z"/>
		<rect x="70.026" y="51.79" fill="#99644C" width="9.888" height="12.57"/>
		<path fill="#99644C" d="M89.692,65.762h-7.394c-0.493,0-0.893-0.4-0.893-0.893v-7.342c0-0.493,0.4-0.893,0.893-0.893h7.394    c2.521,0,4.564,2.043,4.564,4.564v0C94.256,63.718,92.212,65.762,89.692,65.762z"/>
		<path fill="#99644C" d="M63.234,67.919h7.394c0.493,0,0.893-0.4,0.893-0.893v-7.342c0-0.493-0.4-0.893-0.893-0.893h-7.394    c-2.521,0-4.564,2.043-4.564,4.564v0C58.67,65.875,60.713,67.919,63.234,67.919z"/>
		<path fill="#002652" d="M83.059,41.758h-8.766l1.958,7.378c1.164,4.386,5.133,7.439,9.671,7.439h6.341V50.96    C92.262,45.878,88.141,41.758,83.059,41.758z"/>
		<polygon opacity="0.1" fill="#002652" points="81.131,67.775 77.388,67.775 77.388,58.042   "/>
		<g>
			<polygon opacity="0.1" fill="#002652" points="80.383,70.182 79.661,71.949 76.296,72.608 76.296,70.142    "/>
			<polygon opacity="0.1" fill="#002652" points="72.21,70.182 72.932,71.949 76.296,72.608 76.296,70.142    "/>
		</g>
		<path fill="#002652" d="M84.714,56.544L84.714,56.544c1.067,0,1.932,0.865,1.932,1.932v6.647c0,2.836,1.361,5.5,3.66,7.162    c2.14,1.546,4.447,3.222,4.576,3.351v-9.733h0c-1.861,0-3.369-1.508-3.369-3.369V51.678h-6.799V56.544z"/>
		<rect x="89.267" y="54.298" fill="#002652" width="6.364" height="11.605"/>
	</g>
	<path fill="#c4ffff" d="M148.673,22.075c0,0-1.57-2.161-5.451-2.794c-3.11-0.507-5.055-0.067-5.055-0.067l-3.672,9.477   c0,0,2.923-0.465,6.403,1.792c4.151,2.692,4.182,4.195,4.182,4.195L148.673,22.075z"/>
	<g>
		<path fill="#7ce3ff" d="M45.015,166.353l-3.197,18.632c-0.586,0.975-0.929,2.091-1.002,3.254l-5.107,81.994    c0,0,17.212,6.784,17.332,6.285l1.055,0.365L84.174,175.01L45.015,166.353z"/>
	</g>
	
		<ellipse transform="matrix(0.5868 -0.8097 0.8097 0.5868 -19.6405 126.5889)" fill="#99644C" cx="114.215" cy="82.539" rx="24.713" ry="9.5"/>
	
		<ellipse transform="matrix(0.9907 0.1363 -0.1363 0.9907 32.7863 -5.1423)" fill="#7ce3ff" cx="53.933" cy="236.772" rx="13.5" ry="38.833"/>
	
		<ellipse transform="matrix(0.9972 -0.0744 0.0744 0.9972 -16.9162 4.264)" fill="#7ce3ff" cx="48.796" cy="229.272" rx="12.356" ry="45.668"/>
	<ellipse transform="matrix(1 0.0098 -0.0098 1 3.1663 -0.3212)" fill="#99644C" cx="34.517" cy="324.444" rx="9.804" ry="36.236"/>
	
		<ellipse transform="matrix(0.9621 0.2725 -0.2725 0.9621 88.9566 0.406)" fill="#99644C" cx="43.017" cy="320.444" rx="9.804" ry="36.236"/>
	<path opacity="0.1" fill="#002652" d="M142.505,6.834c-3.144,0-5.777,1.871-6.513,4.396c0.147-0.01,0.294-0.021,0.444-0.021   c3.352,0,6.069,2.619,6.069,5.85c0,0.488-0.069,0.96-0.186,1.414c0.062,0.001,0.123,0.008,0.186,0.008   c3.714,0,6.725-2.607,6.725-5.823S146.219,6.834,142.505,6.834z"/>
	<path fill="#99644C" d="M137.018,10.06h-0.004c-1.04,0-1.89-0.85-1.89-1.89V1.886c0-1.037,0.849-1.886,1.886-1.886l0.008,0   c0.913,0,1.66,0.747,1.66,1.66V8.4C138.678,9.313,137.931,10.06,137.018,10.06z"/>
	<path fill="#99644C" d="M140.568,11.044h-0.226c-0.915,0-1.664-0.749-1.664-1.664V2.874c0-1.039,0.85-1.89,1.89-1.89h0   c0.915,0,1.664,0.749,1.664,1.664V9.38C142.232,10.296,141.483,11.044,140.568,11.044z"/>
	<path fill="#99644C" d="M144.067,11.044h-0.226c-0.915,0-1.664-0.749-1.664-1.664V2.874c0-1.039,0.85-1.89,1.89-1.89l0,0   c0.915,0,1.664,0.749,1.664,1.664V9.38C145.731,10.296,144.982,11.044,144.067,11.044z"/>
	<path fill="#99644C" d="M147.484,11.044h-0.216c-0.875,0-1.592-0.716-1.592-1.592V3.229c0-0.994,0.813-1.808,1.808-1.808h0   c0.875,0,1.592,0.716,1.592,1.592v6.44C149.076,10.328,148.359,11.044,147.484,11.044z"/>
	<ellipse fill="#7ce3ff" cx="75.534" cy="208.176" rx="15.518" ry="8.176"/>
	<g>
		<path fill="#7AD3AB" d="M39.339,374.693l-0.001,0.003C39.355,374.7,39.354,374.699,39.339,374.693z"/>
		<path fill="#55c9ea" d="M55.223,273.082l-1.03,3.47l1.18,11.68c0.72,1.68,1.14,4.06,1.26,6.98h-27.64    c0.43-1.14,0.88-2.16,1.36-3.04l5.38-22.27l1.13-18.19h27.82c-1.86,6.88-4.27,12.71-6.91,16.85    C57.013,270.492,56.163,272.022,55.223,273.082z"/>
	</g>
</g>

      </g>
    </g>
</g>

<!-- ITEM 2 -->
<g>
    <defs>
        
        <clipPath id="clip-path-id-viewbox-item-2">
            <rect x="0.0" y="0.0" width="158.052" height="410.397"/>
        </clipPath>
    </defs>
    <g transform="translate(314.0 244.0) rotate(0.0 102.0 264.5) scale(1.2907144484093842 1.2889957772595804)">
      <g clip-path="url(#clip-path-id-viewbox-item-2)" transform="translate(-0.0 -0.0)">
      
<g>
	<g>
		<g>
			<g>
				<path fill="#ff9f92" d="M32.301,228.779l5.931-31.091l5.11,1.962l12.718,5.014l-11.28,30.202l-15.714-3.278l2.045-1.185      C31.716,230.052,32.148,229.463,32.301,228.779z"/>
				<path fill="#ff9f92" d="M31.486,256.963c-1.098-0.545-1.835-1.527-1.418-2.498l4.801-9.732l5.903,0.742l-7.264,10.859      C32.677,257.596,31.491,256.966,31.486,256.963z"/>
				<path fill="#ff9f92" d="M29.418,253.961c-1.098-0.545-2.482-2.076-2.065-3.047l4.811-9.507l5.903,0.742l-7.646,11.447      c-0.16,0.255-0.694,0.563-0.99,0.375C29.427,253.967,29.423,253.964,29.418,253.961z"/>
				<path fill="#ff9f92" d="M26.335,251.254c-1.098-0.545-2.43-2.157-2.014-3.128l4.76-9.426l5.903,0.742l-7.646,11.447      c-0.16,0.255-0.694,0.563-0.99,0.375C26.344,251.26,26.339,251.257,26.335,251.254z"/>
				<path fill="#ff9f92" d="M23.724,248.367c-1.025-0.433-2.095-1.192-1.717-2.177l4.126-10.61l5.505,0.478l-6.985,11.862      c-0.146,0.264-0.638,0.612-0.916,0.455C23.733,248.372,23.729,248.37,23.724,248.367z"/>
				<path fill="#ff9f92" d="M28.258,241.451l7.705,5.151c1.765,1.18,4.17,0.442,4.968-1.526l3.739-9.215      c0.247-0.609,0.034-1.308-0.51-1.676l-4.453-3.008c-4.1-2.77-9.72-1.681-12.49,2.418l-0.373,0.552      C25.223,236.544,25.86,239.831,28.258,241.451z"/>
				
					<ellipse transform="matrix(-0.8286 -0.5598 0.5598 -0.8286 -72.798 461.1182)" fill="#ff9f92" cx="34.183" cy="241.702" rx="7.665" ry="8.381"/>
			</g>
			<path fill="#ff9f92" d="M46.062,241.162l-0.69,3.747c-0.287,1.35-0.937,2.591-1.872,3.607c-0.574,0.618-1.065,1.314-1.446,2.072     c-1.104,2.132-2.919,5.452-2.919,5.452c-0.291,0.442-0.795,0.678-1.308,0.648c-0.128-0.007-0.248-0.03-0.374-0.07     c-0.024-0.009-0.04-0.01-0.055-0.019c-0.732-0.267-0.768-1.016-0.845-1.801c-0.092-0.934,1.159-5.278,2.179-6.573     c0.011-0.048,0.021-0.087,0.024-0.135c0.011-0.184-0.075-0.374-0.229-0.488c-0.185-0.131-0.443-0.13-0.627,0.004l-1.478,1.097     l-3.253,4.131l0.852-14.802l0.036-0.062l0.035-0.054c1.23-2.229,1.342-4.884,0.35-7.192l0.496-8.623l6.256,0.272l3.886,12.526     C46.751,237.431,46.45,239.029,46.062,241.162z"/>
		</g>
		<g>
			<path fill="#ff9f92" d="M154.629,3.566c0.924,0.278,1.583,1.269,1.522,2.433l-2.358,17.557l-5.667,1.81l5.768-21.32     c0.062-0.328,0.384-0.544,0.719-0.483C154.619,3.564,154.624,3.565,154.629,3.566z"/>
			<path fill="#ff9f92" d="M150.949,0c0.96,0.116,1.785,0.978,1.932,2.135l0.808,17.691l-5.257,2.751l1.88-21.979     c0.003-0.334,0.282-0.601,0.622-0.598C150.939,0,150.944,0,150.949,0z"/>
			<path fill="#ff9f92" d="M148.052,1.701c0.96,0.116,1.785,0.978,1.932,2.135l0.808,17.691l-5.257,2.751l1.88-21.979     c0.003-0.334,0.282-0.601,0.622-0.598C148.041,1.7,148.046,1.7,148.052,1.701z"/>
			<path fill="#ff9f92" d="M156.07,16.994l-0.663,6.453l-0.825,1.297l0.738,8.27c-0.392,4.267-3.088,7.831-6.841,9.532     c-0.802,0.378-1.642,0.65-2.529,0.838c-0.161-0.007-0.314-0.034-0.456-0.052l-0.507-0.068l-12.525,2.747l11.715-14.919     l0.106-1.276c0.157-0.17,0.283-0.337,0.399-0.513l4.908-7.178c0.529-0.769,0.972-1.6,1.322-2.463l0.707-1.776l3.998-0.797     L156.07,16.994z"/>
			<path fill="#ff9f92" d="M156.784,10.646c0.886,0.38,1.424,1.438,1.228,2.587l-4.391,17.178l-5.841,1.164l3.028-7.566l5.19-12.968     c0.1-0.319,0.445-0.497,0.771-0.399C156.774,10.643,156.779,10.644,156.784,10.646z"/>
			<path fill="#ff9f92" d="M153.709,20.111l-0.194,17.801l-6.594,15.124l-9.98,10.952l-9.293-11.384l2.815-3.593l11.715-14.919     l0.106-1.276l0.743-8.53c0.12-1.346,0.636-2.635,1.481-3.704l2.037-2.559l7.072,2.066L153.709,20.111z"/>
		</g>
		<path fill="#ff9f92" d="M62.256,92.776l20.37,3.925l-7.769,40.319c-0.189,0.978-1.467,1.239-2.024,0.413l-14.919-22.128    L62.256,92.776z"/>
		<g>
			<path fill="#731656" d="M58.389,78.148c-2.683-5.204,1.923-12.919,10.287-17.23c7.135-3.678,14.701-3.692,18.436-0.385     c0.967,0.856,0.735,2.431-0.413,3.022L58.389,78.148z"/>
			<path fill="#731656" d="M55.741,70.198c-2.284-4.431,1.637-10.998,8.758-14.669c6.075-3.131,12.516-3.143,15.695-0.328     c0.823,0.729,0.626,2.069-0.352,2.573L55.741,70.198z"/>
			<path fill="#ff9f92" d="M80.529,70.81l10.194,19.497c1.134,2.342-0.344,5.11-2.921,5.47L63.9,99.121L80.529,70.81z"/>
			<path fill="#ff9f92" d="M85.06,83.514l3.42-1.868c1.425-0.778,1.241-2.881-0.298-3.399l-6.732-2.268L85.06,83.514z"/>
			<path fill="#ff9f92" d="M62.798,64.525l-0.451,0.218c-1.907,0.923-2.704,3.217-1.781,5.124l5.805,11.99l15.988-7.74l-1.626-3.358     C77.502,64.085,69.472,61.294,62.798,64.525z"/>
			
				<rect x="73.791" y="73.54" transform="matrix(-0.9001 0.4358 -0.4358 -0.9001 185.9149 118.5982)" fill="#ff9f92" width="11.135" height="14.155"/>
			<path fill="#ff9f92" d="M57.328,64.241l-4.685,2.415c-5.119,2.639-7.13,8.928-4.491,14.048l11.945,23.174l29.795-15.358     l-8.558-16.602C76.825,63.168,66.077,59.731,57.328,64.241z"/>
			<path opacity="0.1" fill="#731656" d="M82.361,74.429l-2.267,1.169c-0.263,0.136-0.462,0.371-0.552,0.653l-0.457,1.43     c-0.303,0.948,0.691,1.79,1.576,1.333l3.29-1.696"/>
			<path fill="#731656" d="M71.843,84.229l1.81,3.51c1.668,3.237,5.103,5.17,8.735,4.918h0l0,0     c-1.309-2.539-0.311-5.658,2.227-6.967l3.017-1.555l3.299,6.4c1.203,2.333-0.321,5.145-2.932,5.412l-10.348,1.058     c-1.524,0.156-2.988-0.637-3.689-1.999l-6.233-12.092l0,0C69.229,82.141,71.07,82.73,71.843,84.229z"/>
			<path fill="#ff9f92" d="M86.868,91.16l2.551-0.649c0.678-0.173,1.02-0.931,0.699-1.554l-1.421-2.756l-2.185,1.126     c-1.17,0.603-1.63,2.041-1.027,3.211v0C85.746,91.042,86.319,91.3,86.868,91.16z"/>
			<path fill="#731656" d="M61.538,100.267l9.044-0.523L54.523,68.589c-0.942-1.828-3.189-2.547-5.017-1.604l-1.489,0.768     c-7.094,3.657-9.266,12.773-4.583,19.236l5.179,7.147C51.595,98.249,56.466,100.56,61.538,100.267z"/>
			<polygon fill="#61a5b5" points="63.363,83.747 78.04,76.182 77.119,73.583 62.112,81.319    "/>
			<path fill="#731656" d="M48.173,72.961l11.586-5.972l12.362,23.983c1.885,3.657,0.449,8.149-3.208,10.034l-4.965,2.559     L48.173,72.961z"/>
			<path fill="#731656" d="M54.658,66.873L68.3,59.841l4.01,7.779c1.885,3.657,0.449,8.149-3.208,10.034l-7.021,3.619L54.658,66.873     z"/>
			<path fill="#61a5b5" d="M81.012,72.716c0.012,0,0.074,0.003,0.105,0.064l2.478,4.808c0.015,0.029,0.017,0.059,0.007,0.089     c-0.01,0.031-0.029,0.054-0.058,0.068l-3.21,1.654c-0.017,0.009-0.035,0.013-0.053,0.013c-0.012,0-0.074-0.003-0.105-0.064     l-2.478-4.808c-0.03-0.057-0.007-0.129,0.051-0.158l3.209-1.654C80.976,72.72,80.993,72.716,81.012,72.716 M81.012,71.716     c-0.172,0-0.347,0.04-0.511,0.124l-3.209,1.654c-0.549,0.283-0.764,0.957-0.481,1.505l2.478,4.808     c0.198,0.385,0.589,0.606,0.994,0.606c0.172,0,0.347-0.04,0.511-0.125l3.209-1.654c0.548-0.283,0.764-0.957,0.481-1.505     l-2.478-4.808C81.807,71.937,81.417,71.716,81.012,71.716L81.012,71.716z"/>
			<path fill="#731656" d="M58.511,88.141c-2.683-5.204-11.638-5.928-20.002-1.617c-7.135,3.678-11.536,9.833-11.009,14.793     c0.136,1.284,1.554,2.009,2.702,1.417L58.511,88.141z"/>
			<path fill="#731656" d="M67.552,91.861c-2.494-4.839-10.82-5.512-18.597-1.503c-6.634,3.42-10.725,9.142-10.235,13.753     c0.127,1.194,1.444,1.867,2.512,1.317L67.552,91.861z"/>
			<path fill="#731656" d="M65.949,97.715c4.036-2.081,2.473-8.155-2.067-8.074c-2.472,0.044-5.154,0.707-7.729,2.034     c-5.767,2.973-9.132,8.32-8.447,12.831c0.177,1.168,1.395,1.893,2.323,1.415L65.949,97.715z"/>
			<path fill="#731656" d="M70,100.479c2.974-1.533,1.822-6.008-1.523-5.948c-1.821,0.033-3.797,0.521-5.694,1.499     c-4.249,2.19-6.727,6.13-6.223,9.453c0.131,0.861,1.027,1.395,1.711,1.042L70,100.479z"/>
			<path fill="#731656" d="M58.047,77.486c-2.683-5.204-11.638-5.928-20.002-1.617c-7.135,3.678-11.536,9.833-11.009,14.793     c0.136,1.284,1.554,2.009,2.702,1.417L58.047,77.486z"/>
			<path fill="#731656" d="M67.716,64.541c-2.683-5.204-11.638-5.928-20.002-1.617c-7.135,3.678-11.536,9.833-11.009,14.793     c0.136,1.284,1.554,2.009,2.702,1.417L67.716,64.541z"/>
		</g>
		<g>
			<path fill="#742b88" d="M43.434,369.081l-9.3,10.848l-5.078,5.925l-1.503,1.753l-4.86,5.667l-2.396,2.796l-3.641,4.252     l-0.21,0.243l-9.504-16.299l8.66-13.539l19.835-42.902c1.534-3.317,3.661-6.327,6.276-8.879l27.048-26.399l27.374,3.172     l-5.243,21.173C89.918,318.979,43.434,369.081,43.434,369.081z"/>
		</g>
		<g>
			<path fill="#742b88" d="M74.52,182.525l-5.811,23.27c-0.597,2.391-0.897,4.847-0.894,7.312l0.141,97.768l6.091,1.94     c12.511,3.985,25.61-4.198,27.515-17.19l13.067-89.134L74.52,182.525z"/>
		</g>
		<g>
			<path fill="#ffffe2" d="M27.267,404.368v0.004C27.239,404.372,27.243,404.368,27.267,404.368z"/>
		</g>
		<g>
			<path fill="#ffffff" d="M0.672,385.827l11.521,10.813l14.581,13.685c0.858,0.022,5.805-0.352,5.805-0.352l-0.105-1.539     l-0.816-12.101L30.74,382.76l-0.61-0.12c-0.936-0.183-1.858,0.367-2.146,1.274l-0.82,2.599l-4.828-1.749     c-3.27-1.18-5.58-4.127-5.948-7.584l-0.569-5.341c-0.097-0.933-1.236-1.341-1.906-0.682l-6.464,6.371l-4.551,4.487L2.504,382.4     L0.672,385.827z"/>
			<path fill="#ffffff" d="M12.609,392.09l2.618,10.539l18.217,4.603l12.618,0.161h0.03l0.195-0.127l2.419-1.573l1.416-0.921     c1.112-0.723,1.783-1.959,1.783-3.285c0-0.974-0.36-1.873-0.959-2.566c-0.599-0.689-1.442-1.172-2.404-1.311l-8.513-1.217     c-2.704-0.386-5.262-1.356-7.506-2.801c-2.217-1.431-4.135-3.333-5.595-5.603l-6.888-3.412c-0.813,0.494-1.124,1.521-0.723,2.386     l1.146,2.472l-4.742,1.97C14.714,391.824,13.658,392.053,12.609,392.09z"/>
			<path fill="#ffffff" d="M22.922,405.693v4.652h17.371c0.644,0,1.277-0.165,1.839-0.479l4.39-2.472l0.225-0.127l2.794-1.573     H22.922z"/>
			<path fill="#ffffff" d="M2.642,392.423l11.004,10.064l8.416,7.7c1.551,0.045,3.195,0.09,4.712,0.138     c0.858,0.022,1.67,0.049,2.408,0.071L16.968,399.22c-0.36-0.33-0.577-0.787-0.607-1.273c-0.071-1.221-0.378-2.408-0.895-3.494     c-0.517-1.086-1.24-2.075-2.146-2.903l-3.094-2.831l-7.33-6.704l-0.184-0.169c-0.607-0.554-1.588-0.288-1.832,0.498l-0.517,1.67     C-0.567,387.022,0.32,390.295,2.642,392.423z"/>
		</g>
		<path fill="#ffffff" d="M124.776,81.579c2.544,3.206,1.961,7.876-1.293,10.359l-30.536,23.299    c-5.343,4.24-13.111,3.345-17.351-1.998l-1.155-1.456c-2.645-3.333-2.087-8.179,1.247-10.824l40.1-30.708L124.776,81.579z"/>
		<path fill="#ffffff" d="M40.487,187.992l4.427-52.452c0.375-4.447,4.284-7.747,8.731-7.372l13.784,1.164l-5.456,58.646    c-0.098,1.055-1.031,1.833-2.087,1.739L40.487,187.992z"/>
		<path fill="#ffffff" d="M150.283,47.256l-7.891,17.886c-0.455,1.032-0.997,2.023-1.619,2.964L126.99,88.936    c-3.793,5.732-11.515,7.305-17.248,3.511l-7.895-5.224l14.747-22.286l21.497-25.903L150.283,47.256z"/>
		<path fill="#ffffff" d="M32.283,227.189l3.713-27.94c0.17-1.047,0.452-2.073,0.842-3.059l6.648-16.802l14.549,2.613    c2.908,0.81,4.609,3.825,3.799,6.733l-5.126,18.402c-0.385,1.382-0.869,2.735-1.447,4.048l-8.847,20.075L32.283,227.189z"/>
		<path fill="#ffffff" d="M46.918,149.895l-2.324-8.236c-2.235-7.921,0.61-16.402,7.17-21.372l36.62-29.307l29.388,89.633    l-42.937,5.338L46.918,149.895z"/>
		<g>
			<path fill="#742b88" d="M56.273,327.62l-6.416,35.098l-2.187,11.957l-1.196,6.531l-0.353,1.933l-1.141,6.247l-0.565,3.081     l-0.86,4.686l-0.048,0.268c0,0,3.228,0.307,6.97,0.664c1.649,0.16,3.398,0.326,5.009,0.487c0.913,0.086,1.776,0.173,2.56,0.25     c2.01,0.196,3.46,0.347,3.643,0.375l0.211-0.573l0.599-1.624l4.721-12.77l5.293-14.324l16.351-41.912l11.302-25.082     L77.02,282.761L58.571,321.18C57.439,323.315,56.663,325.491,56.273,327.62z"/>
		</g>
		<g>
			<path fill="#742b88" d="M123.446,195.325l-0.092,21.707c-0.011,2.692-0.385,5.371-1.111,7.964l-21.376,76.325     c-1.611,6.121-8.31,9.353-14.102,6.801c-7.46-3.286-15.948-7.094-15.902-7.387l11.034-106.89L123.446,195.325z"/>
		</g>
		<path fill="#ffffff" d="M87.331,406.859l4.399-2.62c1.213-0.723,2.057-1.958,2.244-3.284l0,0c0.274-1.949-0.927-3.602-2.818-3.878    l-8.342-1.216c-5.272-0.769-9.621-3.836-11.919-8.407l-2.751-5.472l-3.66,2.059c-0.882,0.496-1.337,1.523-1.057,2.387l0.801,2.472    l-5.018,1.97c-3.399,1.334-7.004,0.72-9.286-1.583l-3.524-3.555c-0.617-0.623-1.795-0.156-1.976,0.784l-3.079,15.996l0.434,3.765    L87.331,406.859z"/>
		<path fill="#ffffff" d="M69.35,203.568l54.036,10.949l0.059-18.476c-0.159-13.37-18.898-102.858-18.898-102.858l-31.592,37.47    l0.638,54.395L69.35,203.568z"/>
		<path opacity="0.1" fill="#731656" d="M106.344,104.945l-5.83,4.494c-1.508,1.163-1.566,3.418-0.118,4.656l9.779,8.362    L106.344,104.945z"/>
		<path fill="#ffffff" d="M39.963,403.564l0.523,1.583c0.942,2.848,3.552,4.665,6.7,4.665h33.473c0.643,0,1.299-0.166,1.905-0.481    l7.997-4.17H62.999c-0.488,0-0.93-0.191-1.232-0.531h0c-1.516-1.71-3.736-2.668-6.188-2.668H41.205    C40.381,401.961,39.717,402.819,39.963,403.564z"/>
	</g>
	<path opacity="0.1" fill="#731656" d="M40.143,244.385l-2.07,4.66l-0.09,0.14c0.01-0.07,0.01-0.14,0.01-0.21   c0-0.65-0.31-1.29-0.88-1.69c-0.92-0.63-2.21-0.4-2.84,0.53l0.43-0.67c0.24-0.35,0.36-0.76,0.36-1.16c0-0.64-0.31-1.28-0.88-1.68   c-0.93-0.64-2.21-0.41-2.85,0.52l0.44-0.67c0.24-0.35,0.36-0.75,0.36-1.15c0-0.65-0.31-1.29-0.88-1.69   c-0.93-0.64-2.21-0.41-2.85,0.52l0.21-0.33c0.24-0.35,0.36-0.76,0.36-1.16c0-0.59-0.27-1.18-0.76-1.59l8.83-4.57l-0.54,1.58   c-0.93,2.67-0.07,5.63,2.13,7.4L40.143,244.385z"/>
</g>

      </g>
    </g>
</g>

<!-- ITEM 3 -->
<g>
    <defs>
        
        <clipPath id="clip-path-id-viewbox-item-3">
            <rect x="0.0" y="0.0" width="93.85" height="399.857"/>
        </clipPath>
    </defs>
    <g transform="translate(822.0 258.0) rotate(0.0 -62.0 266.0) scale(-1.321257325519446 1.3304756450431028)">
      <g clip-path="url(#clip-path-id-viewbox-item-3)" transform="translate(-0.0 -0.0)">
      
<g>
	<path fill="#ffffff" d="M70.165,181.227l-0.247,18.177l-39.285,7.124l-13.47-21.372c-5.478-8.692-9.048-18.447-10.475-28.622   l-3.757-30.952c-0.275-1.956,3.133-6.914,4.789-7.991l7.352-4.653l3.849-2.507c16.181-8.383,36.248-4.195,42.019,16.737   l8.65,47.216C70.004,176.641,70.196,178.933,70.165,181.227z"/>
	<path fill="#ffffff" d="M58.056,97.158l-2.114-9.302l-30.801,4.189C9.955,97.819,0.689,113.23,2.711,129.35l2.46,19.613   l55.845-19.247L58.056,97.158z"/>
	<path opacity="0.07" fill="#83cecd" d="M23.5,145.402l11.081,1.529c1.813,0.53,3.282-1.516,2.201-3.064L27,129.858L23.5,145.402z"/>
	<g>
		<path fill="#df9387" d="M15.081,319.264l-4.041,35.45l-1.378,12.077l-0.754,6.596l-0.222,1.952l-0.718,6.309l-0.356,3.112    l-0.543,4.733l-0.029,0.271c0,0,3.242,0.089,6.999,0.194c1.656,0.048,3.412,0.097,5.03,0.149c0.917,0.024,1.783,0.053,2.571,0.077    c2.019,0.061,3.475,0.113,3.659,0.129l0.172-0.586l0.489-1.661l3.852-13.059l4.318-14.647l18.035-45.329l7.539-41.107    l-26.939-0.812l-15.824,39.573C15.955,314.891,15.327,317.114,15.081,319.264z"/>
	</g>
	<g>
		<path fill="#84e3ff" d="M13.91,358.28h21.053l17.2-43.25l7.54-41.11l-26.94-0.81l-15.82,39.57c-0.99,2.21-1.62,4.43-1.86,6.58    l-7.815,30.459C6.155,354.057,9.431,358.28,13.91,358.28z"/>
	</g>
	<g>
		<path fill="#84e3ff" d="M69.864,186.257l0.037,17.958L55.535,301.83c0,0-27.751-9.844-27.706-10.37l3.82-105.39L69.864,186.257z"/>
	</g>
	<g>
		<path fill="#ff9f73" d="M35.43,366.11l-2.622,8.899l-3.854,13.056l-0.487,1.663l-0.172,0.584c-0.184-0.015-1.64-0.067-3.659-0.127    c-0.79-0.026-1.655-0.052-2.573-0.079c-1.618-0.052-3.375-0.101-5.03-0.15c-3.757-0.105-6.996-0.191-6.996-0.191l0.026-0.273    l0.543-4.73l0.356-3.112l0.719-6.311l0.225-1.951l0.753-6.595l0.079-0.682L35.43,366.11L35.43,366.11z"/>
	</g>
	<path fill="#ffffff" d="M50.716,396.703l4.399-2.62c1.213-0.723,2.057-1.958,2.244-3.284l0,0c0.274-1.949-0.927-3.602-2.818-3.878   l-8.342-1.216c-5.272-0.769-9.621-3.836-11.919-8.407l-2.751-5.472l-3.66,2.059c-0.882,0.496-1.337,1.523-1.057,2.387l0.801,2.472   l-5.018,1.97c-3.399,1.334-7.004,0.72-9.286-1.583l-3.524-3.555c-0.617-0.623-1.795-0.156-1.976,0.784L4.73,392.356l0.434,3.765   L50.716,396.703z"/>
	<path fill="#ffffff" d="M3.349,393.408l0.523,1.583c0.942,2.848,3.552,4.665,6.7,4.665h33.473c0.643,0,1.299-0.166,1.905-0.481   l6.187-3.226c0.464-0.242,0.292-0.944-0.231-0.944h-25.52c-0.488,0-0.93-0.191-1.232-0.531l0,0   c-1.516-1.71-3.736-2.668-6.188-2.668H4.591C3.766,391.805,3.102,392.663,3.349,393.408z"/>
	<polygon fill="#df9387" points="24.535,351.517 18.333,362.625 12.274,368.106 29.584,381.81 41.413,363.779  "/>
	<path fill="#ffffff" d="M5.336,375.289l11.521,10.813l14.581,13.685c0.858,0.023,5.805-0.352,5.805-0.352l-0.105-1.539   l-0.816-12.101l-0.918-13.573l-0.61-0.12c-0.936-0.183-1.858,0.367-2.146,1.274l-0.82,2.599L27,374.226   c-3.27-1.18-5.58-4.127-5.948-7.584l-0.569-5.341c-0.097-0.933-1.236-1.341-1.906-0.682l-6.464,6.371l-4.551,4.487l-0.393,0.386   L5.336,375.289z"/>
	<path fill="#ffffff" d="M17.272,381.552l2.618,10.539l18.217,4.603l12.618,0.161h0.03l0.195-0.127l2.419-1.573l1.416-0.921   c1.112-0.723,1.783-1.959,1.783-3.285c0-0.974-0.36-1.873-0.959-2.566c-0.599-0.689-1.442-1.172-2.404-1.311l-8.513-1.217   c-2.704-0.386-5.262-1.356-7.506-2.802c-2.217-1.431-4.135-3.333-5.595-5.603l-6.888-3.412c-0.813,0.494-1.124,1.521-0.723,2.386   l1.146,2.472l-4.742,1.97C19.377,381.286,18.321,381.515,17.272,381.552z"/>
	<path fill="#ffffff" d="M27.585,395.155v4.652h17.371c0.644,0,1.277-0.165,1.839-0.479l4.389-2.472l0.225-0.128l1.73-1.573H27.585z   "/>
	<path fill="#ffffff" d="M7.306,381.885l11.003,10.063l8.416,7.7c1.551,0.045,3.195,0.09,4.712,0.138   c0.858,0.023,1.67,0.049,2.408,0.071l-12.214-11.176c-0.36-0.33-0.577-0.787-0.607-1.273c-0.071-1.221-0.378-2.408-0.895-3.494   s-1.24-2.075-2.146-2.903l-3.094-2.831l-7.33-6.704l-0.184-0.169c-0.607-0.554-1.588-0.288-1.832,0.498l-0.517,1.67   C4.096,376.484,4.983,379.757,7.306,381.885z"/>
	<path fill="#84e3ff" d="M55.331,199.529l29.322,97.227c1.71,5.671,0.819,11.808-2.433,16.758l-33.476,50.948   c-2.253,3.43-6.96,4.194-10.183,1.654l-15.552-12.258l2.247-3.995l19.216-42.269c0.412-0.94,0.9-1.845,1.461-2.706l7.151-10.982   l-33.32-52.681c-5.31-8.395-7.306-18.466-5.6-28.252l4.909-26.936l32.334,0.177L55.331,199.529z"/>
	<g>
		<path fill="#df9387" d="M38.538,243.006c-0.996-0.027-1.927-0.85-2.194-2.047l-2.589-18.44l5.117-3.393l0.26,23.191    c0.03,0.349-0.229,0.657-0.578,0.687C38.554,243.005,38.543,243.006,38.538,243.006z"/>
		<path fill="#df9387" d="M35.157,237.146c-0.984,0.153-2.05-0.487-2.528-1.615l-5.888-17.666l4.418-4.264l4.458,22.76    c0.093,0.338-0.106,0.688-0.444,0.781C35.167,237.143,35.162,237.145,35.157,237.146z"/>
		<path fill="#df9387" d="M31.298,234.391c-0.989,0.115-2.029-0.565-2.464-1.711L23.631,214.8l4.578-4.091l3.579,22.915    c0.08,0.342-0.132,0.683-0.474,0.763C31.309,234.389,31.304,234.39,31.298,234.391z"/>
		<path fill="#df9387" d="M27.392,229.99c-0.989,0.115-2.029-0.565-2.464-1.711l-4.852-16.671c-0.215-0.738,0.013-1.534,0.587-2.046    l3.64-3.253l3.579,22.915c0.08,0.342-0.132,0.683-0.474,0.763C27.403,229.988,27.398,229.989,27.392,229.99z"/>
		<path fill="#df9387" d="M25.963,218.353h5.791c3.369,0,6.125-2.756,6.125-6.125v-5.123c0-3.369-2.756-6.125-6.125-6.125h-1.443    c-5.76,0-10.472,4.713-10.472,10.472v0.775C19.838,215.596,22.594,218.353,25.963,218.353z"/>
		<path fill="#df9387" d="M36.195,203.075v16.434l0.065-1.252c0.008-0.119,0.023-0.239,0.05-0.358    c0.266-1.225,1.08-1.763,2.304-1.501l0.438-0.244c0.766,0.169,1.03,0.902,1.407,1.592l1.791,3.308    c0.443,0.84,1.109,1.548,1.922,2.041c0.566,0.32,1.57,0.292,2.132,0.292c0.3,0,0.585-0.058,0.847-0.193    c0.035-0.019,0.069-0.038,0.1-0.062c0.401-0.293,0.489-0.855,0.196-1.256l-5.889-9.96l-0.847-2.627    c-0.512-1.614-1.402-3.081-2.596-4.283l-1.802-1.802C36.272,203.163,36.234,203.121,36.195,203.075z"/>
		<path fill="#df9387" d="M22.918,214.721c0,5.389,4.041,9.757,9.025,9.757c0.277,0,0.551-0.013,0.821-0.04    c0.168-0.016,0.516,0.103,0.5-0.064c-0.049-0.52,0.625-0.6,0.722-0.147c0.032,0.148,0.292-0.077,0.436-0.122    c1.598-0.493,3.016-1.45,4.119-2.727c0.119-0.138,0.347-0.242,0.347-0.426c-0.007-3.045,1.07-3.98,1.649-3.06    c0.135,0.215,0.085-0.475,0.145-0.726c0.186-0.781,0.286-1.6,0.286-2.445c0-5.389-4.041-9.757-9.025-9.757    S22.918,209.333,22.918,214.721z"/>
	</g>
	<polygon fill="#84e3ff" points="21.235,242.808 41.056,243.936 40.654,220.153 21.235,220.153  "/>
	<path fill="#ffffff" d="M17.224,211.9L0.742,166.429c-2.324-6.412,0.99-13.495,7.402-15.819l1.747-0.634   c4-1.45,8.419,0.617,9.868,4.617l18.065,49.839L17.224,211.9z"/>
	<g>
		<path fill="#ffffff" d="M5.741,165.599c-3.382-0.366-5.827-3.404-5.461-6.786l4.543-41.964    c0.734-6.781,6.827-11.683,13.607-10.949l1.848,0.2c4.23,0.458,7.288,4.258,6.831,8.489l-5.706,52.706L5.741,165.599z"/>
	</g>
	<g>
		<path fill="#ffffff" d="M90.064,66.941c2.542,2.274,2.598,6.524,0.123,9.493l-30.7,36.839c-4.961,5.953-13.115,7.081-18.212,2.522    l-1.389-1.243c-3.18-2.845-3.249-8.161-0.155-11.875l38.559-46.269L90.064,66.941z"/>
	</g>
	<g>
		<path fill="#D4E7FF" d="M48.146,83.945l-24.027,4.932c-3.246,0.666-6.418-1.425-7.084-4.671l-3.126-15.232    c-1.795-8.744,3.838-17.287,12.582-19.081l14.073-2.889L48.146,83.945z"/>
		<path fill="#df9387" d="M53.198,61.429l4.575,21.646c0.461,2.576-1.721,4.854-4.315,4.504l-24.05-3.255L53.198,61.429z"/>
		<path fill="#df9387" d="M54.135,74.96l3.819-0.88c1.591-0.366,1.984-2.452,0.635-3.373l-5.902-4.025L54.135,74.96z"/>
		<path fill="#df9387" d="M37.739,50.528l-0.496,0.089c-2.097,0.376-3.492,2.381-3.116,4.477l2.364,13.186l17.582-3.152    l-0.662-3.693C52.094,54.095,45.078,49.212,37.739,50.528z"/>
		<path fill="#df9387" d="M21.126,71.923l20.435-4.195l8.302,40.448c0.201,0.982-0.885,1.716-1.721,1.163L25.765,94.524    L21.126,71.923L21.126,71.923z"/>
		
			<rect x="43.801" y="63.488" transform="matrix(0.9843 -0.1764 0.1764 0.9843 -11.6813 9.8225)" fill="#df9387" width="11.197" height="14.234"/>
		<path fill="#df9387" d="M32.519,48.767l-5.192,1.066c-5.674,1.165-9.329,6.708-8.164,12.381l5.271,25.682l33.02-6.778    l-3.777-18.399C51.688,53.024,42.215,46.777,32.519,48.767z"/>
		<path opacity="0.1" fill="#a0ccc0" enable-background="new    " d="M45.613,87.503l-0.315-0.06    c-1.903-0.362-3.158,1.921-1.832,3.333l3.461,3.688"/>
		<path opacity="0.1" fill="#a0ccc0" enable-background="new    " d="M54.156,65.396l-2.513,0.516    c-0.292,0.06-0.548,0.233-0.713,0.482l-0.831,1.261c-0.551,0.836,0.183,1.92,1.164,1.719l3.585-0.736"/>
		<path fill="#D4E7FF" d="M41.144,72.063l0.799,3.891c0.736,3.587,3.536,6.391,7.122,7.134l0,0l0,0    c-0.577-2.813,1.236-5.563,4.049-6.141l3.343-0.686l1.64,7.825c0.58,2.766-1.814,5.244-4.598,4.762l-9.752-1.69    c-1.616-0.28-2.897-1.518-3.233-3.124l-2.997-14.361l0,0C39.18,69.331,40.803,70.401,41.144,72.063z"/>
		<path fill="#df9387" d="M53.809,82.854l2.646,0.064c0.704,0.017,1.241-0.625,1.099-1.315l-0.627-3.054l-2.422,0.497    c-1.297,0.266-2.132,1.533-1.866,2.83l0,0C52.755,82.435,53.24,82.841,53.809,82.854z"/>
		<path fill="#D4E7FF" d="M16.699,82.566l12.657-2.598c5.856-1.202,9.629-6.924,8.427-12.781l-4.204-20.48    c-0.222-1.082-1.279-1.779-2.361-1.557l-6.871,1.41c-7.97,1.636-13.105,9.423-11.469,17.393L16.699,82.566z"/>
		<path fill="#D4E7FF" d="M48.392,58.021l0.522-0.107c3.886-0.798,6.39-4.595,5.592-8.481l-0.865-4.215    c-0.386-1.882-2.225-3.095-4.107-2.708l-5.194,1.066l-17.198,3.53l10.655,22.033l-0.903-9.812    c-0.146-1.583,0.959-3.009,2.529-3.262h0c0.659-0.106,1.334,0.008,1.921,0.326l1.49,0.807    C44.532,58.118,46.5,58.409,48.392,58.021z"/>
		<path fill="#df9387" d="M35.479,76.335l0.407-0.069c1.567-0.266,2.594-1.785,2.258-3.338l-0.861-3.97    c-0.478-2.205-2.605-3.643-4.829-3.266l-0.238,0.04c-2.286,0.388-3.513,2.908-2.408,4.946l2.132,3.934    C32.629,75.884,34.052,76.577,35.479,76.335z"/>
	</g>
	<g>
		<path fill="#df9387" d="M55.237,0.088c0,0-0.005,0.003-0.01,0.005c-0.249,0.095-0.377,0.372-0.287,0.625l3.092,8.387    c0.332,0.902,0.861,1.719,1.549,2.396l2.985,2.982l0.104,2.62c0.031,0.916,0.409,1.786,1.046,2.44l5.488,5.667l0.045,0.046    c0.186,0.205,0.881,3.324,1.042,3.542l2.286,9.249l7.399,0.754l0.79-13.235c1.037-2.893,0.356-4.384-0.541-6.386l-1.584-3.515    c-0.607-1.256-1.54-2.323-2.701-3.096c-0.718-0.466-1.364-1.032-1.923-1.684c-1.602-1.825-4.182-4.647-4.182-4.647    c-0.471-0.438-1.163-0.513-1.717-0.203l-0.122,0.069c-0.656,0.438-0.833,1.317-0.399,1.975c0.431,0.666,2.961,4.662,3.727,5.926    c0.003,0.005,0.005,0.01,0.005,0.01c0.118,0.211,0.095,0.468-0.06,0.652c-0.15,0.181-0.401,0.238-0.619,0.147l-1.708-0.716    l-7.539-5.881l-3.896-7.203c-0.435-0.799-1.369-1.19-2.242-0.932L55.237,0.088z"/>
		<path fill="#ffffff" d="M81.339,29.106l11.89,34.49c1.298,3.766,0.535,7.936-2.013,10.998l-6.615,7.95L74.77,70.553    c-0.826-0.872-1.306-2.015-1.35-3.215l-1.488-24.795l-1.2-11.634L81.339,29.106z"/>
	</g>
</g>

      </g>
    </g>
</g>

<!-- ITEM 4 -->
<g>
    <defs>
        
        <clipPath id="clip-path-id-viewbox-item-4">
            <rect x="0.0" y="0.0" width="770.938" height="264.868"/>
        </clipPath>
    </defs>
    <g transform="translate(305.0 25.0) rotate(0.0 307.5 105.0) scale(0.7977295191052978 0.7928477581285772)">
      <g clip-path="url(#clip-path-id-viewbox-item-4)" transform="translate(-0.0 -0.0)">
      
<g>
	<path fill="#F5F5F5" d="M422.64,212.397"/>
	<rect x="384.122" y="224.737" fill="#BBBDC7" width="3.567" height="26.754"/>
	
		<rect x="376.095" y="217.602" transform="matrix(-0.7071 0.7071 -0.7071 -0.7071 806.8843 127.7364)" fill="#BBBDC7" width="1.784" height="26.754"/>
	
		<rect x="393.931" y="217.602" transform="matrix(-0.7071 -0.7071 0.7071 -0.7071 510.6784 673.4888)" fill="#BBBDC7" width="1.784" height="26.754"/>
	<path fill="#C6C8D0" d="M392.852,264.868h2.16c0.881,0,1.596-0.714,1.596-1.596v-15.537c0-0.881-0.714-1.596-1.596-1.596h-2.16   c-0.881,0-1.596,0.714-1.596,1.596v15.537C391.256,264.154,391.97,264.868,392.852,264.868z"/>
	<path fill="#C6C8D0" d="M376.799,264.868h2.16c0.881,0,1.596-0.714,1.596-1.596v-15.537c0-0.881-0.714-1.596-1.596-1.596h-2.16   c-0.881,0-1.596,0.714-1.596,1.596v15.537C375.203,264.154,375.918,264.868,376.799,264.868z"/>
	<polygon fill="#E8E9EC" enable-background="new    " points="380.554,250.599 385.905,248.816 391.256,250.599 391.256,259.517    385.905,257.734 380.554,259.517  "/>
	<rect x="457.25" y="203.333" fill="#BBBDC7" width="5.351" height="26.754"/>
	
		<rect x="450.116" y="196.199" transform="matrix(-0.7071 0.7071 -0.7071 -0.7071 918.1104 38.858)" fill="#BBBDC7" width="1.784" height="26.754"/>
	<path fill="#C6C8D0" d="M469.719,252.383h3.6c1.469,0,2.659-1.191,2.659-2.659v-21.436c0-1.469-1.191-2.659-2.659-2.659h-3.6   c-1.469,0-2.659,1.191-2.659,2.659v21.436C467.06,251.192,468.251,252.383,469.719,252.383z"/>
	<path fill="#C6C8D0" d="M446.532,252.383h3.599c1.469,0,2.659-1.191,2.659-2.659v-21.436c0-1.469-1.191-2.659-2.659-2.659h-3.599   c-1.469,0-2.659,1.191-2.659,2.659v21.436C443.873,251.192,445.064,252.383,446.532,252.383z"/>
	<polygon fill="#E8E9EC" enable-background="new    " points="452.791,231.722 459.926,229.196 467.06,231.722 467.06,244.356    459.926,241.83 452.791,244.356  "/>
	<path fill="#BBBDC7" d="M449.275,140.906l120.086-9.757c1.41-0.115,1.682,1.956,0.289,2.208l-120.375,21.818V140.906z"/>
	<path fill="#D2D3DA" d="M386.349,1.405l4.907,101.153h-12.485l4.907-101.153C383.768-0.468,386.258-0.468,386.349,1.405z"/>
	<path fill="#D2D3DA" d="M769.77,153.708l-324.094,14.844c-0.012,0-0.024,0.006-0.031,0.016l-41.818,51.606   c-0.026,0.032,6.171-7.579,6.218-7.6c-3.323,4.062-6.218,7.6-6.218,7.6c-0.026,0.032,0.001,0.08,0.041,0.069   c3.64-1.033,85.218-24.118,133.646-32.069c38.289-6.286,133.708-19.164,197.314-27.605c1.578-0.209-0.99-0.049-6.815,0.426   c16.169-1.855,30.597-3.574,41.956-5.067C771.381,155.74,771.193,153.642,769.77,153.708z"/>
	<g>
		<rect x="309.276" y="203.333" fill="#BBBDC7" width="5.351" height="26.754"/>
		
			<rect x="319.978" y="196.199" transform="matrix(0.7071 0.7071 -0.7071 0.7071 242.1732 -165.506)" fill="#BBBDC7" width="1.784" height="26.754"/>
		<path fill="#C6C8D0" d="M302.158,252.383h-3.599c-1.469,0-2.659-1.191-2.659-2.659v-21.436c0-1.469,1.191-2.659,2.659-2.659h3.599    c1.469,0,2.659,1.191,2.659,2.659v21.436C304.817,251.192,303.627,252.383,302.158,252.383z"/>
		<path fill="#C6C8D0" d="M325.345,252.383h-3.6c-1.469,0-2.659-1.191-2.659-2.659v-21.436c0-1.469,1.191-2.659,2.659-2.659h3.6    c1.469,0,2.659,1.191,2.659,2.659v21.436C328.004,251.192,326.814,252.383,325.345,252.383z"/>
		<polygon fill="#E8E9EC" enable-background="new    " points="319.086,231.722 311.952,229.196 304.817,231.722 304.817,244.356     311.952,241.83 319.086,244.356   "/>
	</g>
	<path fill="#D2D3DA" d="M532.6,203.308c29.468,1.188,46.122-0.093,66.803,0c0,18.447-14.954,33.402-33.402,33.402   S532.6,221.756,532.6,203.308z"/>
	<path fill="#EFF0F2" enable-background="new    " d="M532.6,203.308c0-18.447,14.954-33.402,33.402-33.402   s33.402,14.954,33.402,33.402c0,5.01-14.954,8.35-33.402,8.35S532.6,208.319,532.6,203.308z"/>
	<circle fill="#C6C8D0" cx="566.002" cy="203.308" r="24.216"/>
	<circle fill="#BBBDC7" cx="566.002" cy="203.308" r="5.845"/>
	<path fill="#BBBDC7" d="M321.663,140.906l-120.086-9.757c-1.41-0.115-1.681,1.956-0.289,2.208l120.375,21.818V140.906z"/>
	<path fill="#D2D3DA" d="M325.262,168.552L1.168,153.708c-1.423-0.065-1.611,2.033-0.199,2.218   c55.996,7.361,186.526,20.2,232.884,27.811c48.428,7.951,123.4,27.802,127.04,28.835c0.04,0.011,6.245,7.633,6.219,7.601   l-41.818-51.606C325.285,168.558,325.274,168.552,325.262,168.552z"/>
	<path fill="#D2D3DA" d="M351.144,200.657c-42.807-16.944-328.437-41.868-315.034-40.089c63.607,8.44,159.025,21.318,197.314,27.605   c48.428,7.951,130.006,31.037,133.646,32.069c0.04,0.011,0.068-0.036,0.041-0.069L351.144,200.657z"/>
	<path fill="#D2D3DA" d="M238.338,203.308c-29.468,1.188-46.122-0.093-66.803,0c0,18.447,14.954,33.402,33.402,33.402   S238.338,221.756,238.338,203.308z"/>
	<path fill="#EFF0F2" enable-background="new    " d="M238.338,203.308c0-18.447-14.954-33.402-33.402-33.402   s-33.402,14.954-33.402,33.402c0,5.01,14.954,8.35,33.402,8.35S238.338,208.319,238.338,203.308z"/>
	<circle fill="#C6C8D0" cx="204.936" cy="203.308" r="24.216"/>
	<circle fill="#BBBDC7" cx="204.936" cy="203.308" r="5.845"/>
	<path fill="#DDDEE3" enable-background="new    " d="M314.56,156.959c0-38.91,31.543-70.453,70.453-70.453   s70.453,31.543,70.453,70.453c0,3.021-0.19,5.997-0.559,8.918c-24.154,15.56-115.754,14.919-139.782,0.048   C314.752,162.989,314.56,159.996,314.56,156.959z"/>
	<path fill="#B0B3BE" d="M385.733,135.413c4.744-0.929,31.695-6.101,43.871-6.101l8.918,19.62l-6.243,6.243   c0,0-3.567-4.459-16.944-4.459c-13.377,0-30.322,3.567-30.322,3.567v-17.995C385.013,135.862,385.315,135.495,385.733,135.413z"/>
	<path fill="#B0B3BE" d="M384.293,135.413c-4.744-0.929-31.695-6.101-43.871-6.101l-8.918,19.62l6.243,6.243   c0,0,3.567-4.459,16.944-4.459c13.377,0,30.322,3.567,30.322,3.567v-17.995C385.013,135.862,384.712,135.495,384.293,135.413z"/>
	<path fill="#DDDEE3" enable-background="new    " d="M330.599,149.838l6.242,6.243c0.241,0.241,0.567,0.375,0.906,0.375   c0.024,0,0.047-0.001,0.071-0.002c0.364-0.02,0.702-0.194,0.93-0.479c0.021-0.024,3.544-3.978,15.944-3.978   c13.093,0,29.889,3.504,30.057,3.54c0.039,0.008,0.078,0.007,0.117,0.011c0.049,0.006,0.097,0.014,0.147,0.014   c0.049,0,0.096-0.008,0.145-0.014c0.04-0.005,0.08-0.003,0.119-0.011c0.168-0.035,16.972-3.54,30.058-3.54   c12.414,0,15.912,3.939,15.944,3.978c0.228,0.285,0.565,0.459,0.93,0.479c0.024,0.001,0.047,0.002,0.071,0.002   c0.339,0,0.665-0.134,0.906-0.375l6.243-6.243c0.378-0.378,0.482-0.95,0.26-1.436l-8.918-19.62   c-0.208-0.457-0.664-0.751-1.166-0.751c-12.219,0-38.894,5.102-44.117,6.124l-0.001,0c-0.167,0.033-0.323,0.091-0.473,0.159   c-0.15-0.068-0.306-0.126-0.473-0.159l-0.001,0c-5.223-1.023-31.893-6.124-44.117-6.124c-0.502,0-0.958,0.294-1.166,0.751   l-8.918,19.62C330.117,148.888,330.221,149.461,330.599,149.838z M386.294,136.609c2.909-0.567,10.712-2.054,19.269-3.408   l3.576,16.451c-9.439,0.613-19.156,2.358-22.846,3.07V136.609z M436.988,148.654l-4.214,4.214l-8.362-22.046   c1.577-0.119,3.052-0.198,4.37-0.221L436.988,148.654z M415.335,149.435c-1.177,0-2.383,0.029-3.604,0.079l-3.632-16.707   c4.669-0.71,9.434-1.349,13.659-1.756l7.925,20.895C426.972,150.697,422.474,149.435,415.335,149.435z M383.732,152.722   c-3.689-0.712-13.406-2.457-22.845-3.07l3.576-16.452c8.558,1.354,16.36,2.841,19.269,3.408V152.722z M354.692,149.435   c-7.138,0-11.637,1.262-14.349,2.51l7.926-20.895c4.225,0.407,8.99,1.046,13.658,1.756l-3.632,16.707   C357.075,149.464,355.868,149.435,354.692,149.435z M333.039,148.654l8.205-18.053c1.319,0.023,2.794,0.102,4.371,0.221   l-8.363,22.046L333.039,148.654z"/>
	<path fill="#EFF0F2" enable-background="new    " d="M385.013,170.336c38.91,0,69.894-4.459,69.894-4.459   c-4.383,34.7-34.005,61.535-69.894,61.535c-35.873,0-65.484-26.811-69.888-61.487C315.125,165.925,346.103,170.336,385.013,170.336   z"/>
	<path fill="#EFF0F2" enable-background="new    " d="M359.151,188.172c0-14.283,11.579-25.863,25.863-25.863   c14.283,0,25.863,11.579,25.863,25.863s-11.579,25.863-25.863,25.863c-12.385,0-22.737-8.706-25.27-20.331   C359.355,191.921,359.151,190.071,359.151,188.172z"/>
</g>

      </g>
    </g>
</g>

              </svg>