<svg id="Layer_1" data-name="Layer 1" xmlns="http://www.w3.org/2000/svg" xmlns:xlink="http://www.w3.org/1999/xlink" viewBox="0 0 992.73 905.95"><defs><style>.cls-1{fill:none;}.cls-2{fill:url(#radial-gradient);}.cls-3{fill:#232334;}.cls-4{fill:#ba68c8;}.cls-4,.cls-8{opacity:0.5;}.cls-13,.cls-25,.cls-31,.cls-4{isolation:isolate;}.cls-5{fill:#fff;}.cls-6{fill:#f0f0f0;}.cls-7{fill:#fafafa;}.cls-9{fill:url(#linear-gradient);}.cls-10{clip-path:url(#clip-path);}.cls-11{fill:#99644c;}.cls-12{fill:#bedbff;}.cls-13,.cls-19{fill:#002652;}.cls-13,.cls-31,.cls-40{opacity:0.1;}.cls-14{fill:#a9cfff;}.cls-15{fill:#7eb8ff;}.cls-16{fill:#7ce3ff;}.cls-17{fill:#7ad3ab;}.cls-18{fill:#55c9ea;}.cls-20{fill:#edeef0;}.cls-21{fill:#bbbdc7;}.cls-22{fill:#b0b3be;}.cls-23{clip-path:url(#clip-path-2);}.cls-24{fill:#016eea;}.cls-25{fill:#9c0a44;opacity:0.07;}.cls-26{fill:#c78982;}.cls-27{fill:#9d1f76;}.cls-28{fill:#ed956e;}.cls-29{fill:#2888ff;}.cls-30{fill:#d4e7ff;}.cls-31{fill:#b90837;}.cls-32{clip-path:url(#clip-path-3);}.cls-33{fill:#013b84;}.cls-34{fill:#760561;}.cls-35{fill:#93c3ff;}.cls-36{fill:#9e4259;}.cls-37{fill:#53a0ff;}.cls-38{fill:#c4398b;}.cls-39{fill:#d9458b;}.cls-41{fill:#1d2445;}.cls-42{clip-path:url(#clip-path-4);}.cls-43{fill:#b18a79;}.cls-44{fill:#001120;}.cls-45{fill:#871376;}.cls-46{fill:#6ed7ec;}.cls-47{fill:#91efff;}.cls-48{fill:#dd4376;}</style><radialGradient id="radial-gradient" cx="654.15" cy="271.96" fx="1057.6880214908917" fy="-37.10119032400297" r="833.51" gradientTransform="translate(107.24 112.29) scale(0.9 0.89)" gradientUnits="userSpaceOnUse"><stop offset="0.01" stop-color="#232334"/><stop offset="1" stop-color="#222237"/></radialGradient><linearGradient id="linear-gradient" x1="92.28" y1="307.56" x2="197.47" y2="202.37" gradientTransform="matrix(1, 0, 0, -1, 0, 1082)" gradientUnits="userSpaceOnUse"><stop offset="0" stop-color="#ba68c8"/><stop offset="0.8" stop-color="#455a64"/><stop offset="1" stop-color="#455a64" stop-opacity="0"/></linearGradient><clipPath id="clip-path" transform="translate(-0.74 -87.22)"><rect class="cls-1" x="342.79" y="665.78" width="119.87" height="312.16"/></clipPath><clipPath id="clip-path-2" transform="translate(-0.74 -87.22)"><rect class="cls-1" x="193.2" y="674.34" width="70" height="299.79"/></clipPath><clipPath id="clip-path-3" transform="translate(-0.74 -87.22)"><rect class="cls-1" x="502.93" y="672.44" width="152.47" height="298.84"/></clipPath><clipPath id="clip-path-4" transform="translate(-0.74 -87.22)"><rect class="cls-1" x="460.74" y="697.19" width="149.59" height="284.56"/></clipPath></defs><g id="freepik--Space--inject-36"><g id="freepik--space--inject-36-2" data-name="freepik--space--inject-36"><path id="freepik--space--inject-36-3" data-name="freepik--space--inject-36" class="cls-2" d="M556.93,318.43c-28-19.36-51.69-50.06-73-75.29-96.77-114.71-262.7-102.2-382.63-21.34C56.08,252.21,24.29,285.41,7,338.59-5.75,378,.28,425.65,31.63,452.67c20.24,17.5,47.55,24,71.74,35.46C206.14,537.06,106.42,625.4,60,675,24.44,713,9.48,751,20.71,803.43c17.42,80.62,108.73,133.14,181.75,153.2,108.72,29.87,215.78,8.84,257.15-5.63C542.68,922,618,872.6,682.1,813.19c45.28-42,86-89,135.74-125.74,30.19-22.32,63.3-40.53,93.55-62.78s58.19-49.45,72.92-83.82c21.21-49.53,4.21-110-36.54-144.74s-99-48.8-151.12-50.34C708.72,343.2,627.78,367.37,556.93,318.43Z" transform="translate(-0.74 -87.22)"/><path class="cls-3" d="M574.62,289c58.06,42.19,137.55,31.28,206.17,29,18-.61,40-7.43,51.21-21.44,14-17.69,6.06-36.64-7.49-54.66-24.79-32.87-61.31-55.4-98.92-72.5-46-20.85-81.06-36.5-178.72-43.13-40-2.71-70.08,4.9-76.72,14.6-12.31,18.17,3.47,35.21,15.75,52.81a470,470,0,0,0,80,88.32Q570.16,285.77,574.62,289Z" transform="translate(-0.74 -87.22)"/></g></g><g id="freepik--Stars--inject-36"><path class="cls-4" d="M728.66,716.89a17.25,17.25,0,1,1,17.39-17.25,17.32,17.32,0,0,1-17.39,17.25Zm0-33.1a15.85,15.85,0,1,0,16,15.85h0A15.93,15.93,0,0,0,728.66,683.79Z" transform="translate(-0.74 -87.22)"/><path class="cls-5" d="M733.55,699.64a4.89,4.89,0,1,1-4.89-4.85h0A4.87,4.87,0,0,1,733.55,699.64Z" transform="translate(-0.74 -87.22)"/><path class="cls-4" d="M508.44,406.86a27.18,27.18,0,1,1,27.38-27.18v0A27.3,27.3,0,0,1,508.44,406.86Zm0-52.94a25.79,25.79,0,1,0,26,25.76v-.06a25.89,25.89,0,0,0-26-25.78Z" transform="translate(-0.74 -87.22)"/><path class="cls-5" d="M516.27,379.62a7.84,7.84,0,1,1-7.83-7.77h0a7.79,7.79,0,0,1,7.83,7.73Z" transform="translate(-0.74 -87.22)"/><path class="cls-4" d="M727.53,301.51a17.25,17.25,0,1,1,17.38-17.25A17.32,17.32,0,0,1,727.53,301.51Zm0-33.1a15.86,15.86,0,1,0,16,15.85h0A15.93,15.93,0,0,0,727.53,268.41Z" transform="translate(-0.74 -87.22)"/><path class="cls-5" d="M732.43,284.26a4.91,4.91,0,1,1-4.93-4.85h0a4.86,4.86,0,0,1,4.9,4.83Z" transform="translate(-0.74 -87.22)"/><path class="cls-4" d="M98.74,420.7a17.25,17.25,0,1,1,17.38-17.25h0A17.31,17.31,0,0,1,98.74,420.7Zm0-33.1a15.85,15.85,0,1,0,16,15.85,15.91,15.91,0,0,0-16-15.85Z" transform="translate(-0.74 -87.22)"/><path class="cls-5" d="M103.55,403.45a4.89,4.89,0,1,1-4.93-4.81h.12A4.85,4.85,0,0,1,103.55,403.45Z" transform="translate(-0.74 -87.22)"/><g id="freepik--stars--inject-36-2" data-name="freepik--stars--inject-36"><path class="cls-6" d="M804.73,261.94a2.73,2.73,0,0,1-.41-3.85,2.76,2.76,0,0,1,3.87-.41,2.72,2.72,0,0,1,.42,3.84h0A2.78,2.78,0,0,1,804.73,261.94Z" transform="translate(-0.74 -87.22)"/><path class="cls-7" d="M796.57,269.81a1.57,1.57,0,0,1-.26-2.22v0a1.63,1.63,0,0,1,2.26-.25,1.61,1.61,0,0,1,.25,2.24,1.59,1.59,0,0,1-2.24.26Z" transform="translate(-0.74 -87.22)"/><path class="cls-7" d="M572.7,692.85a2.21,2.21,0,0,1,0,3.14,2.24,2.24,0,0,1-3.16,0,2.22,2.22,0,0,1,0-3.14A2.29,2.29,0,0,1,572.7,692.85Z" transform="translate(-0.74 -87.22)"/><path class="cls-7" d="M593.37,702.58a3.59,3.59,0,0,1,.14,5.09l0,0a3.66,3.66,0,0,1-5.15.1,3.6,3.6,0,0,1-.1-5.12A3.66,3.66,0,0,1,593.37,702.58Z" transform="translate(-0.74 -87.22)"/><g class="cls-8"><path class="cls-7" d="M655.31,436.51a2.25,2.25,0,0,1,2.91,1.24,2.22,2.22,0,0,1-1.25,2.89,2.23,2.23,0,1,1-1.66-4.13Z" transform="translate(-0.74 -87.22)"/><path class="cls-7" d="M672.69,421.75a3.68,3.68,0,0,1,4.75,2.06,3.64,3.64,0,0,1-2.07,4.72,3.65,3.65,0,1,1-2.68-6.78Z" transform="translate(-0.74 -87.22)"/></g><g class="cls-8"><path class="cls-7" d="M687.9,776.06a3.67,3.67,0,1,1-3.69-3.62h0A3.66,3.66,0,0,1,687.9,776.06Z" transform="translate(-0.74 -87.22)"/><path class="cls-7" d="M677,786a2.2,2.2,0,1,1-2.22-2.16h0a2.07,2.07,0,0,1,2.18,2Z" transform="translate(-0.74 -87.22)"/><path class="cls-7" d="M670.78,772.44a1.76,1.76,0,1,1-1.84-1.66h.15A1.74,1.74,0,0,1,670.78,772.44Z" transform="translate(-0.74 -87.22)"/></g><g class="cls-8"><path class="cls-7" d="M136,764.61a3.65,3.65,0,1,1-3.65-3.62,3.63,3.63,0,0,1,3.65,3.62Z" transform="translate(-0.74 -87.22)"/><path class="cls-7" d="M125.11,774.6a2.11,2.11,0,1,1,0-.1Z" transform="translate(-0.74 -87.22)"/><path class="cls-7" d="M118.94,761.07a1.76,1.76,0,1,1-1.76-1.74,1.75,1.75,0,0,1,1.76,1.74Z" transform="translate(-0.74 -87.22)"/></g><path class="cls-7" d="M403.47,264.53a2.24,2.24,0,1,1-2.24-2.22,2.23,2.23,0,0,1,2.24,2.22Z" transform="translate(-0.74 -87.22)"/><path class="cls-7" d="M414,235.39l5.06,5,7-1.34a.8.8,0,0,1,.94.64.82.82,0,0,1-.07.51l-3.17,6.33,3.42,6.17a.8.8,0,0,1-.3,1.1.89.89,0,0,1-.53.1l-7-1.05L414.45,258a.81.81,0,0,1-1.14,0,.78.78,0,0,1-.25-.47l-1.16-6.94-6.42-3a.79.79,0,0,1-.37-1.07.76.76,0,0,1,.37-.36l6.21-3.25.89-7a.81.81,0,0,1,1.43-.52Z" transform="translate(-0.74 -87.22)"/><path class="cls-7" d="M238.2,556.36l.79,5.4,4.91,2.41a.62.62,0,0,1,.28.82.61.61,0,0,1-.28.29l-4.91,2.4-.81,5.41a.62.62,0,0,1-1.06.33l-3.83-3.91-5.41.93a.62.62,0,0,1-.73-.49.58.58,0,0,1,.07-.41l2.55-4.82-2.55-4.83a.62.62,0,0,1,.34-.83.54.54,0,0,1,.28,0l5.41.92,3.83-3.88A.65.65,0,0,1,238,556,.68.68,0,0,1,238.2,556.36Z" transform="translate(-0.74 -87.22)"/><path class="cls-7" d="M725.12,208.31l5.39-1,2.26-5a.63.63,0,0,1,.83-.28.63.63,0,0,1,.28.28l2.62,4.81,5.44.6a.62.62,0,0,1,.55.68.58.58,0,0,1-.15.35l-3.79,3.95,1.11,5.32a.64.64,0,0,1-.89.7l-4.95-2.36-4.66,2.65a.63.63,0,0,1-.85-.22.62.62,0,0,1-.08-.4L729,213l-4.15-3.66a.62.62,0,0,1-.06-.87A.73.73,0,0,1,725.12,208.31Z" transform="translate(-0.74 -87.22)"/><path class="cls-6" d="M397.44,781.67a2.73,2.73,0,0,1,1,3.74,2.77,2.77,0,0,1-3.77,1,2.74,2.74,0,0,1,2.74-4.75Z" transform="translate(-0.74 -87.22)"/><path class="cls-7" d="M404.28,772.65a1.59,1.59,0,1,1-1.58,2.76h0a1.58,1.58,0,0,1-.59-2.17A1.61,1.61,0,0,1,404.28,772.65Z" transform="translate(-0.74 -87.22)"/><path class="cls-7" d="M484.41,822.53l-5.2,1.79-1.45,5.24a.63.63,0,0,1-.77.43.64.64,0,0,1-.33-.23l-3.32-4.33-5.49.24a.61.61,0,0,1-.66-.57.59.59,0,0,1,.12-.41l3.13-4.47-1.92-5.09a.61.61,0,0,1,.33-.81.64.64,0,0,1,.43,0l5.26,1.59,4.29-3.4a.64.64,0,0,1,.88.09.62.62,0,0,1,.14.39v5.45l4.58,3a.62.62,0,0,1,.27.83A.65.65,0,0,1,484.41,822.53Z" transform="translate(-0.74 -87.22)"/><path class="cls-7" d="M840.74,437.44a3.67,3.67,0,0,1,4.75,2.06,3.62,3.62,0,0,1-2.08,4.71,3.64,3.64,0,1,1-2.69-6.77Z" transform="translate(-0.74 -87.22)"/></g></g><g id="freepik--Meteorites--inject-36"><path class="cls-9" d="M88.52,778a5.14,5.14,0,0,1,0-7.29h0a5.25,5.25,0,0,1,7.36,0S199.59,876.87,197.55,878.9,88.52,778,88.52,778Z" transform="translate(-0.74 -87.22)"/><path class="cls-7" d="M90.48,772.64a2.8,2.8,0,0,1,4,0,2.75,2.75,0,0,1,0,3.91h0a2.79,2.79,0,0,1-3.94,0A2.75,2.75,0,0,1,90.48,772.64Z" transform="translate(-0.74 -87.22)"/><path class="cls-1" d="M87.87,798.16a2.92,2.92,0,0,1,0-4.13h0A3,3,0,0,1,92,794l0,0s42.44,44.18,41.28,45.34S87.87,798.16,87.87,798.16Z" transform="translate(-0.74 -87.22)"/><path class="cls-1" d="M442.46,96a5.15,5.15,0,0,1,0-7.3h0a5.19,5.19,0,0,1,7.31,0l0,0S553.52,194.9,551.48,196.93,442.46,96,442.46,96Z" transform="translate(-0.74 -87.22)"/><path class="cls-7" d="M444.39,90.6a2.79,2.79,0,0,1,3.94,0,2.75,2.75,0,0,1,0,3.91,2.8,2.8,0,0,1-3.94,0h0A2.75,2.75,0,0,1,444.39,90.6Z" transform="translate(-0.74 -87.22)"/><path class="cls-1" d="M508,130.38a2.89,2.89,0,0,1,0-4.09h0a3,3,0,0,1,4.16,0s42.44,44.2,41.27,45.36S508,130.38,508,130.38Z" transform="translate(-0.74 -87.22)"/><path class="cls-1" d="M441.8,116.19a2.92,2.92,0,0,1,0-4.13h0a2.91,2.91,0,0,1,4.1-.06l.06.06s42.47,44.17,41.3,45.33S441.8,116.19,441.8,116.19Z" transform="translate(-0.74 -87.22)"/></g><g class="cls-10"><path class="cls-11" d="M342.82,675.06l.79,8.31,4.25,14.6L355,695.9,351.12,677S342.78,674.62,342.82,675.06Z" transform="translate(-0.74 -87.22)"/><path class="cls-11" d="M347.41,670.59l5.46,1.9a2.07,2.07,0,0,1,1.1,3l-3.2,5.29a.85.85,0,0,1-1,.37l-3.18-1.09a5.59,5.59,0,0,1-3.47-7.1l.13-.39A3.3,3.3,0,0,1,347.41,670.59Z" transform="translate(-0.74 -87.22)"/><path class="cls-11" d="M345.23,671.88a4.36,4.36,0,0,1,5.77-2.8,4.83,4.83,0,0,1,2.63,6.29,4.55,4.55,0,0,1-5.92,2.87C345.4,677.44,344.29,674.6,345.23,671.88Z" transform="translate(-0.74 -87.22)"/><path class="cls-11" d="M357.89,674.14s-.87,1.81-1,2.31a4.79,4.79,0,0,1-1.45,2.07L353.53,680a4.49,4.49,0,0,1-3.75,1.28l-3.23.59-2.9-3.36a1.05,1.05,0,0,1,.26-1.59l.47-.28a5.11,5.11,0,0,0,3.87-2.27l0,0,0,0,5.39-4.53.2,2.59a2,2,0,0,0,2,1.81Z" transform="translate(-0.74 -87.22)"/><path class="cls-11" d="M356.68,675.19l0-2.61a1.63,1.63,0,0,1,1.43-1.59l.18,0a.46.46,0,0,1,.52.41l.31,2.64a.88.88,0,0,1-.77,1Z" transform="translate(-0.74 -87.22)"/><path class="cls-11" d="M358.81,675.09l-3.15,3.22a1.9,1.9,0,0,1-2.79-.07l-.37-.43,5.26-5.35,1,1A1.16,1.16,0,0,1,358.81,675.09Z" transform="translate(-0.74 -87.22)"/><path class="cls-11" d="M389.9,743.06l-25.1-29.7-10.48-3.13-.07.11a7.93,7.93,0,0,0,.43,9.49l28.45,34.65Z" transform="translate(-0.74 -87.22)"/><path class="cls-11" d="M343.49,681.14l7.66-1.63L365.75,716l-5.5,2.53a5.48,5.48,0,0,1-7.43-3.09l-1.6-4.42Z" transform="translate(-0.74 -87.22)"/><path class="cls-11" d="M407.53,736l-20.32-.26-19-8.42,4.61,21.48a14.58,14.58,0,0,0,14.34,11.5l16.46-.15Z" transform="translate(-0.74 -87.22)"/><path class="cls-12" d="M343.53,683.36a6.84,6.84,0,0,1,4.37-2.22,11.64,11.64,0,0,1,4.05-.06l2.94,7.55a8,8,0,0,0-5.13,1.43c-3.33,2.15-3.35,3.34-3.35,3.34Z" transform="translate(-0.74 -87.22)"/><ellipse class="cls-11" cx="371.14" cy="731.53" rx="7.6" ry="19.73" transform="translate(-360.78 272.48) rotate(-36.14)"/><path class="cls-13" d="M348.47,671.22a5.3,5.3,0,0,1,5.22,3.5h-.35a4.76,4.76,0,0,0-4.87,4.66,4.58,4.58,0,0,0,.15,1.12h-.15c-3,0-5.39-2.08-5.39-4.64S345.5,671.22,348.47,671.22Z" transform="translate(-0.74 -87.22)"/><path class="cls-11" d="M352.87,673.79h0a1.51,1.51,0,0,0,1.52-1.5v-5a1.51,1.51,0,0,0-1.51-1.5h0a1.33,1.33,0,0,0-1.33,1.32v5.37A1.33,1.33,0,0,0,352.87,673.79Z" transform="translate(-0.74 -87.22)"/><path class="cls-11" d="M350,674.58h.18a1.34,1.34,0,0,0,1.33-1.33v-5.18a1.52,1.52,0,0,0-1.51-1.51h0a1.34,1.34,0,0,0-1.34,1.33v5.36A1.34,1.34,0,0,0,350,674.58Z" transform="translate(-0.74 -87.22)"/><path class="cls-11" d="M347.22,674.58h.18a1.34,1.34,0,0,0,1.34-1.33v-5.18a1.52,1.52,0,0,0-1.52-1.51h0a1.34,1.34,0,0,0-1.33,1.33v5.36A1.34,1.34,0,0,0,347.22,674.58Z" transform="translate(-0.74 -87.22)"/><path class="cls-11" d="M344.48,674.58h.18a1.27,1.27,0,0,0,1.27-1.27v-5a1.45,1.45,0,0,0-1.45-1.44h0a1.27,1.27,0,0,0-1.27,1.27v5.13A1.27,1.27,0,0,0,344.48,674.58Z" transform="translate(-0.74 -87.22)"/><path class="cls-11" d="M431.53,872.9l7.17,29.5a14.52,14.52,0,0,1,.39,2.63l3.12,55.79s-12.07,3.55-11.65,3.45l-13.39-55.39a14.93,14.93,0,0,1-.33-5l2.35-23.13Z" transform="translate(-0.74 -87.22)"/><rect class="cls-14" x="425.8" y="886.59" width="17.83" height="4.13"/><path class="cls-15" d="M443.7,975.51H427.77a1.52,1.52,0,0,1-1.53-1.5v-1.19a15.07,15.07,0,0,1,.93-5.35l1.94-5.29,13.07,0,2.13,5.8a15.13,15.13,0,0,1,.92,5.21V974A1.51,1.51,0,0,1,443.7,975.51Z" transform="translate(-0.74 -87.22)"/><path class="cls-14" d="M431,967.64l9.21-.13-.14-9.16a3,3,0,0,0-3.06-3l-3.18.05a3,3,0,0,0-3,3Z" transform="translate(-0.74 -87.22)"/><path class="cls-15" d="M436.21,970.59h-7.15V961h3.24a3,3,0,0,1,3,2.66Z" transform="translate(-0.74 -87.22)"/><path class="cls-15" d="M442.52,970.59h-7.15l.88-7a3.06,3.06,0,0,1,3-2.66h3.24Z" transform="translate(-0.74 -87.22)"/><path class="cls-16" d="M426,798.3l2.56,14.84a5.75,5.75,0,0,1,.81,2.59l4.09,65.32s-13.79,5.41-13.89,5l-.84.29-24.1-81.15Z" transform="translate(-0.74 -87.22)"/><ellipse class="cls-16" cx="418.87" cy="854.39" rx="10.82" ry="30.94" transform="matrix(0.99, -0.14, 0.14, 0.99, -114.07, -21.63)"/><ellipse class="cls-16" cx="422.99" cy="848.43" rx="36.38" ry="9.9" transform="translate(-455.48 1119.46) rotate(-85.7)"/><ellipse class="cls-11" cx="434.41" cy="924.23" rx="7.86" ry="28.87" transform="translate(-9.84 -82.89) rotate(-0.57)"/><ellipse class="cls-11" cx="427.62" cy="921.06" rx="7.85" ry="28.88" transform="translate(-236.92 65.34) rotate(-15.92)"/><path class="cls-17" d="M430.56,964.27Z" transform="translate(-0.74 -87.22)"/><path class="cls-18" d="M417.83,883.32l.83,2.77-1,9.3a16.59,16.59,0,0,0-1,5.56h22.15a19.11,19.11,0,0,0-1.09-2.42l-4.31-17.74-.91-14.49H410.25a49.54,49.54,0,0,0,5.54,13.42A12.2,12.2,0,0,0,417.83,883.32Z" transform="translate(-0.74 -87.22)"/><path class="cls-11" d="M462.63,675.06l-.79,8.31L457.59,698l-7.09-2.07L454.33,677S462.67,674.62,462.63,675.06Z" transform="translate(-0.74 -87.22)"/><path class="cls-11" d="M458,670.59l-5.47,1.9a2.08,2.08,0,0,0-1.1,3l3.2,5.29a.86.86,0,0,0,1,.37l3.17-1.09a5.59,5.59,0,0,0,3.48-7.1l-.14-.39A3.29,3.29,0,0,0,458,670.59Z" transform="translate(-0.74 -87.22)"/><path class="cls-11" d="M460.21,671.88a4.35,4.35,0,0,0-5.76-2.8,4.84,4.84,0,0,0-2.64,6.29,4.56,4.56,0,0,0,5.93,2.87C460.05,677.44,461.16,674.6,460.21,671.88Z" transform="translate(-0.74 -87.22)"/><path class="cls-11" d="M447.56,674.14s.86,1.81,1,2.31a4.71,4.71,0,0,0,1.45,2.07l1.87,1.46a4.47,4.47,0,0,0,3.74,1.28l3.24.59,2.89-3.36a1,1,0,0,0-.25-1.59l-.47-.28a5.13,5.13,0,0,1-3.88-2.27l0,0,0,0-5.4-4.53-.2,2.59a2,2,0,0,1-2,1.81Z" transform="translate(-0.74 -87.22)"/><path class="cls-11" d="M448.77,675.19l0-2.61A1.63,1.63,0,0,0,447.3,671l-.18,0a.46.46,0,0,0-.51.41L446.3,674a.87.87,0,0,0,.76,1Z" transform="translate(-0.74 -87.22)"/><path class="cls-11" d="M446.64,675.09l3.15,3.22a1.89,1.89,0,0,0,2.78-.07l.38-.43-5.26-5.35-1,1A1.14,1.14,0,0,0,446.64,675.09Z" transform="translate(-0.74 -87.22)"/><path class="cls-11" d="M373.34,872.9l-7.17,29.5a14.52,14.52,0,0,0-.39,2.63l-3.12,55.79s12.07,3.55,11.65,3.45l13.39-55.38a14.74,14.74,0,0,0,.33-5l-2.35-23.13Z" transform="translate(-0.74 -87.22)"/><polygon class="cls-11" points="377.89 668.78 381.17 698.55 377.65 717.89 426.11 718.43 423.62 698.98 426.82 669.15 377.89 668.78"/><path class="cls-11" d="M415.54,743.06l25.11-29.7,10.48-3.13.07.11a7.93,7.93,0,0,1-.43,9.49l-28.45,34.65Z" transform="translate(-0.74 -87.22)"/><path class="cls-11" d="M462,681.14l-7.65-1.63L439.69,716l5.51,2.53a5.47,5.47,0,0,0,7.42-3.09l1.6-4.42Z" transform="translate(-0.74 -87.22)"/><path class="cls-11" d="M397.92,736l20.32-.26,19-8.42-4.61,21.49a14.59,14.59,0,0,1-14.35,11.49l-16.45-.15Z" transform="translate(-0.74 -87.22)"/><polygon class="cls-16" points="377.89 672.23 380.36 699.93 376.85 717.93 426.53 718.43 424.42 700.33 426.82 672.58 377.89 672.23"/><polygon class="cls-16" points="391.92 648.46 381.1 672.31 423.69 672.33 412.81 648.46 391.92 648.46"/><polygon class="cls-16" points="423.65 690.92 381.19 690.92 381.19 672.23 403.08 669.04 423.65 672.23 423.65 690.92"/><rect class="cls-14" x="359.76" y="886.59" width="17.83" height="4.13"/><path class="cls-15" d="M361.17,975.51H377.1a1.52,1.52,0,0,0,1.53-1.5v-1.19a15.07,15.07,0,0,0-.93-5.35l-1.94-5.29-13.07,0-2.13,5.8a15.13,15.13,0,0,0-.92,5.21V974A1.51,1.51,0,0,0,361.17,975.51Z" transform="translate(-0.74 -87.22)"/><path class="cls-14" d="M373.83,967.64l-9.21-.13.14-9.16a3,3,0,0,1,3.06-3l3.18.05a3,3,0,0,1,3,3Z" transform="translate(-0.74 -87.22)"/><path class="cls-15" d="M368.66,970.59h7.15V961h-3.24a3,3,0,0,0-3,2.66Z" transform="translate(-0.74 -87.22)"/><path class="cls-15" d="M362.35,970.59h7.15l-.88-7a3.05,3.05,0,0,0-3-2.66h-3.24Z" transform="translate(-0.74 -87.22)"/><ellipse class="cls-19" cx="411.14" cy="638.17" rx="11.44" ry="11.37"/><ellipse class="cls-19" cx="401.54" cy="638.17" rx="11.44" ry="11.37"/><path class="cls-11" d="M402.53,750.38l-6.09-15.29V723.53h14.31v14.25l-6.59,12.68A.9.9,0,0,1,402.53,750.38Z" transform="translate(-0.74 -87.22)"/><polygon class="cls-13" points="403.46 642.21 403.46 648.77 406.46 642.5 403.46 642.21"/><ellipse class="cls-19" cx="413.47" cy="624.39" rx="9.49" ry="9.43"/><path class="cls-19" d="M391,725.73h25.5V707a11.07,11.07,0,0,0-11.1-11h-3.3A11.07,11.07,0,0,0,391,707Z" transform="translate(-0.74 -87.22)"/><path class="cls-11" d="M414.09,701.1h-12a9,9,0,0,0-9,8.94v10.15a5.92,5.92,0,0,0,1.65,4.1l5.17,5.44h7.36l5.18-5.44a6,6,0,0,0,1.64-4.1V701.1Z" transform="translate(-0.74 -87.22)"/><rect class="cls-11" x="398.16" y="619.81" width="7.92" height="10.01"/><path class="cls-11" d="M414.66,718.17h-5.93a.71.71,0,0,1-.71-.72v-5.84a.71.71,0,0,1,.71-.72h5.93a3.64,3.64,0,0,1,3.65,3.64h0A3.64,3.64,0,0,1,414.66,718.17Z" transform="translate(-0.74 -87.22)"/><path class="cls-11" d="M393.46,719.88h5.92a.71.71,0,0,0,.72-.71v-5.85a.71.71,0,0,0-.72-.71h-5.92a3.65,3.65,0,0,0-3.66,3.64h0A3.64,3.64,0,0,0,393.46,719.88Z" transform="translate(-0.74 -87.22)"/><path class="cls-19" d="M409.34,699h-7l1.57,5.88a8,8,0,0,0,7.75,5.93h5.08v-4.48A7.36,7.36,0,0,0,409.34,699Z" transform="translate(-0.74 -87.22)"/><polygon class="cls-13" points="407.06 632.55 404.06 632.55 404.06 624.79 407.06 632.55"/><polygon class="cls-13" points="406.46 634.47 405.88 635.87 403.18 636.4 403.18 634.43 406.46 634.47"/><polygon class="cls-13" points="399.91 634.47 400.49 635.87 403.18 636.4 403.18 634.43 399.91 634.47"/><path class="cls-19" d="M410.67,710.82h0a1.55,1.55,0,0,1,1.55,1.54v5.3a7,7,0,0,0,2.93,5.7c1.71,1.23,3.56,2.57,3.67,2.67v-7.75h0a2.69,2.69,0,0,1-2.7-2.69V707h-5.45Z" transform="translate(-0.74 -87.22)"/><rect class="cls-19" x="413.57" y="621.81" width="5.1" height="9.24"/><path class="cls-12" d="M461.92,683.36a6.84,6.84,0,0,0-4.37-2.22,11.64,11.64,0,0,0-4.05-.06l-2.94,7.55a8,8,0,0,1,5.13,1.43c3.32,2.15,3.35,3.34,3.35,3.34Z" transform="translate(-0.74 -87.22)"/><path class="cls-16" d="M378.86,798.3l-2.56,14.84a5.75,5.75,0,0,0-.81,2.59l-4.09,65.32s13.79,5.41,13.89,5l.85.29,24.1-81.15Z" transform="translate(-0.74 -87.22)"/><ellipse class="cls-11" cx="434.3" cy="731.53" rx="19.73" ry="7.6" transform="translate(-413.34 563.55) rotate(-53.86)"/><ellipse class="cls-16" cx="386.02" cy="854.4" rx="30.94" ry="10.82" transform="translate(-514.03 1032.24) rotate(-82.11)"/><ellipse class="cls-16" cx="381.89" cy="848.42" rx="9.9" ry="36.38" transform="translate(-63.22 -56.23) rotate(-4.3)"/><ellipse class="cls-11" cx="370.44" cy="924.25" rx="28.87" ry="7.86" transform="translate(-558.17 1198.33) rotate(-89.43)"/><ellipse class="cls-11" cx="377.26" cy="921.04" rx="28.88" ry="7.85" transform="matrix(0.27, -0.96, 0.96, 0.27, -612.66, 944.06)"/><path class="cls-13" d="M457,671.22a5.3,5.3,0,0,0-5.21,3.5h.35a4.76,4.76,0,0,1,4.86,4.66,4.58,4.58,0,0,1-.14,1.12H457c3,0,5.39-2.08,5.39-4.64S460,671.22,457,671.22Z" transform="translate(-0.74 -87.22)"/><path class="cls-11" d="M452.58,673.79h0a1.51,1.51,0,0,1-1.51-1.5v-5a1.51,1.51,0,0,1,1.51-1.5h0a1.33,1.33,0,0,1,1.33,1.32v5.37A1.33,1.33,0,0,1,452.58,673.79Z" transform="translate(-0.74 -87.22)"/><path class="cls-11" d="M455.42,674.58h-.18a1.34,1.34,0,0,1-1.33-1.33v-5.18a1.52,1.52,0,0,1,1.51-1.51h0a1.34,1.34,0,0,1,1.34,1.33v5.36A1.34,1.34,0,0,1,455.42,674.58Z" transform="translate(-0.74 -87.22)"/><path class="cls-11" d="M458.23,674.58H458a1.34,1.34,0,0,1-1.33-1.33v-5.18a1.52,1.52,0,0,1,1.52-1.51h0a1.34,1.34,0,0,1,1.33,1.33v5.36A1.34,1.34,0,0,1,458.23,674.58Z" transform="translate(-0.74 -87.22)"/><path class="cls-11" d="M461,674.58h-.17a1.27,1.27,0,0,1-1.27-1.27v-5a1.45,1.45,0,0,1,1.44-1.44h0a1.27,1.27,0,0,1,1.28,1.27v5.13A1.27,1.27,0,0,1,461,674.58Z" transform="translate(-0.74 -87.22)"/><ellipse class="cls-16" cx="402.57" cy="744.39" rx="12.43" ry="6.51"/><path class="cls-17" d="M374.31,964.27Z" transform="translate(-0.74 -87.22)"/><path class="cls-18" d="M387,883.32l-.83,2.77,1,9.3a16.34,16.34,0,0,1,1,5.56H366a20.64,20.64,0,0,1,1.09-2.42l4.31-17.74.91-14.49h22.29a49.54,49.54,0,0,1-5.54,13.42A12.2,12.2,0,0,1,387,883.32Z" transform="translate(-0.74 -87.22)"/></g><polyline class="cls-1" points="565.48 265.44 565.48 592.83 235.61 592.83 235.61 265.44"/><path class="cls-20" d="M401.29,392.18c78.63,0,142.38,63.27,142.38,141.31S479.92,674.8,401.29,674.8,258.9,611.53,258.9,533.49s63.75-141.31,142.39-141.31" transform="translate(-0.74 -87.22)"/><path class="cls-20" d="M543.67,532.54c-.06,78.06-63.87,141.29-142.52,141.24A143.24,143.24,0,0,1,331,655.36,1009.24,1009.24,0,0,1,538.38,493.79,139.88,139.88,0,0,1,543.67,532.54Z" transform="translate(-0.74 -87.22)"/><path class="cls-21" d="M526.31,526.1l-13.52-3.85h0l-1.61-.47a82.44,82.44,0,0,0-32.56.68c-19.9,5.86-8.41,20.63-32.18,13.89-3.06-.85-3.2-14.84-1.65-20.19.65-2.28,11.15-4.26,15.68-5.45a8,8,0,0,0,6.24-7.29l-4.49-10.21a8.79,8.79,0,0,1,4.66-7.7l18.46-7.11a20.23,20.23,0,0,0,9.78-7.9l21.44-20.91a139.87,139.87,0,0,1,27.11,82.95" transform="translate(-0.74 -87.22)"/><path class="cls-21" d="M438.78,618.31h0c1.14,3.85,5.18,18.7,8.58,34.46.58,3,1.55,7.12,2.51,11.2A140.43,140.43,0,0,0,477,649.84a145.1,145.1,0,0,0,22.13-18.25l-60.62-14.27A9.1,9.1,0,0,1,438.78,618.31Z" transform="translate(-0.74 -87.22)"/><path class="cls-21" d="M369.45,407.64c-2.65,9.13,6.69,14.23,19.72,17.94,15.48,4.33,13.42,14.41,12.77,16.72L391,480.37c-4.39,15.22-17.43,11.51-27.44,8.72-24.57-6.81-27,7.18-29.61,16.31s-4.36,15.22-11.26,13.24-.24-16.51-11.73-19.78L304.09,497l-37.53-10.62a142.22,142.22,0,0,1,111.16-93.16" transform="translate(-0.74 -87.22)"/><path class="cls-21" d="M377.85,583.61h0L372,604s-10.3,12.88-12.73,15.5a258.06,258.06,0,0,0-30.43,34.63,140.64,140.64,0,0,1-17.16-11.85c-2.4-1.94-4.7-4-6.86-6l8.58-29.86V548.88l8.71-4.8,1.17-.65,6.1,1.71,12.29,3.4c5.38,1.53,10.74,8.82,14,14.64C362.38,579.19,368.69,581,377.85,583.61Z" transform="translate(-0.74 -87.22)"/><path class="cls-22" d="M543.67,532.54A140.8,140.8,0,0,1,480.47,650a72.47,72.47,0,0,0-38-31.53h-.27c-3.13-1.29-29.06-13.21-21.65-39,2.43-8.34,8.78-30.44,47.14-19.58,23,6.54,40.51,3.41,42.71-4.36,6.55-22.81,1.1-32.62,1.1-32.62a5.75,5.75,0,0,0,1.06-.51h.21c8.4-4.63,14.27-21.52,25.76-27.51A139.33,139.33,0,0,1,543.67,532.54Z" transform="translate(-0.74 -87.22)"/><path class="cls-22" d="M382.11,597.3c-7.11,25.06-22.89,22.24-22.89,22.24-11.42-3.17-38.66,3.4-47.58,22.78-2.4-1.94-4.7-4-6.86-6s-4.74-4.46-6.87-6.81c2-16.48-3.43-44.27,3.43-67.49,4.43-15.22-15.19-30.64-20-37-6.49-8.48-14.45-18.66-17.47-28.19.93-3.41,2-7.05,3.23-10.49a140.72,140.72,0,0,1,35.23-55,42.4,42.4,0,0,1,3.64,28.19c-3.43,11.44,9.44,24.93,5.49,38.62a27.58,27.58,0,0,0-6.86-1.2c-6.86-.23-10.29,3.21-11.36,6.81l-2.16,7.6c-1.13,3.85,1.27,6.81,5.9,8.27,6.14,1.74,6.45,3.41,5.35,7.29s1,11,5.6,12.29l14.58,4.12-.24.85c-8.1,29.08,3.22,41.2,18.42,45.46,29.16,8.28,37.36-5.86,37.36-5.86h0C382.42,585.11,383,594.27,382.11,597.3Z" transform="translate(-0.74 -87.22)"/><g class="cls-23"><path class="cls-24" d="M245.53,810.22l-.18,13.63-29.3,5.34-10.05-16a54.42,54.42,0,0,1-7.81-21.46l-2.81-23.2c-.2-1.47,2.34-5.19,3.58-6l5.48-3.49,2.87-1.88c12.07-6.29,27-3.15,31.34,12.55l6.45,35.4A26,26,0,0,1,245.53,810.22Z" transform="translate(-0.74 -87.22)"/><path class="cls-24" d="M236.5,747.19l-1.58-7-23,3.14a26.42,26.42,0,0,0-16.73,28L197.06,786l41.65-14.43Z" transform="translate(-0.74 -87.22)"/><path class="cls-25" d="M210.73,783.36,219,784.5a1.49,1.49,0,0,0,1.64-2.29l-7.29-10.51Z" transform="translate(-0.74 -87.22)"/><path class="cls-26" d="M204.45,913.71l-3,26.58-1,9.05-.57,4.95-.16,1.46-.54,4.73-.26,2.34-.41,3.54,0,.21,5.22.14,3.75.12,1.92,0,2.73.1.13-.44.36-1.25,2.87-9.79,3.23-11,13.45-34,5.62-30.82-20.09-.61-11.81,29.67A16.92,16.92,0,0,0,204.45,913.71Z" transform="translate(-0.74 -87.22)"/><path class="cls-27" d="M203.57,943h15.71l12.83-32.42,5.62-30.83-20.09-.6-11.8,29.66a16.79,16.79,0,0,0-1.39,4.94l-5.83,22.83A5.13,5.13,0,0,0,203.57,943Z" transform="translate(-0.74 -87.22)"/><path class="cls-27" d="M245.31,814l0,13.46-10.72,73.19s-20.7-7.38-20.66-7.78l2.85-79Z" transform="translate(-0.74 -87.22)"/><path class="cls-28" d="M219.63,948.83l-2,6.68-2.88,9.78-.36,1.25-.13.44-2.73-.1-1.92-.06-3.75-.11-5.22-.14,0-.21.41-3.54.26-2.34.54-4.73.17-1.46.56-4.94.06-.52Z" transform="translate(-0.74 -87.22)"/><path class="cls-29" d="M231,971.77l3.28-2a3.53,3.53,0,0,0,1.67-2.47h0a2.47,2.47,0,0,0-2.1-2.9l-6.22-.92a11.62,11.62,0,0,1-8.89-6.3l-2.05-4.1L214,954.66a1.57,1.57,0,0,0-.79,1.79l.59,1.86-3.74,1.47a6.34,6.34,0,0,1-6.92-1.18l-2.63-2.67a.92.92,0,0,0-1.48.59l-2.29,12,.32,2.82Z" transform="translate(-0.74 -87.22)"/><path class="cls-24" d="M195.7,969.3l.39,1.19a5.11,5.11,0,0,0,5,3.49h25a3,3,0,0,0,1.42-.36l4.62-2.41a.38.38,0,0,0-.18-.71h-19a1.25,1.25,0,0,1-.92-.4h0a6.09,6.09,0,0,0-4.62-2H196.62A1,1,0,0,0,195.7,969.3Z" transform="translate(-0.74 -87.22)"/><polygon class="cls-26" points="210.76 850.67 206.13 859 201.61 863.11 214.52 873.38 223.35 859.86 210.76 850.67"/><path class="cls-29" d="M197.18,955.72l8.59,8.1,10.88,10.26c.64,0,4.33-.26,4.33-.26l-.08-1.16-.61-9.07-.68-10.17-.46-.09a1.39,1.39,0,0,0-1.6.95l-.61,2-3.6-1.31a6.83,6.83,0,0,1-4.44-5.69l-.42-4a.84.84,0,0,0-1.43-.51l-4.82,4.77-3.39,3.37-.29.29Z" transform="translate(-0.74 -87.22)"/><path class="cls-29" d="M206.08,960.41l1.95,7.9,13.59,3.45,9.41.12h0l.14-.09,1.81-1.18,1.05-.69a2.94,2.94,0,0,0,1.33-2.46,3,3,0,0,0-.71-1.93,3,3,0,0,0-1.8-1l-6.35-.91a14,14,0,0,1-9.77-6.3l-5.14-2.56a1.42,1.42,0,0,0-.54,1.79l.86,1.85-3.54,1.48A6.77,6.77,0,0,1,206.08,960.41Z" transform="translate(-0.74 -87.22)"/><path class="cls-24" d="M213.77,970.61v3.49h13a2.86,2.86,0,0,0,1.37-.36l3.28-1.85.16-.1,1.29-1.18Z" transform="translate(-0.74 -87.22)"/><path class="cls-24" d="M198.65,960.66l8.2,7.55,6.28,5.77,3.52.1,1.79.06-9.11-8.38a1.4,1.4,0,0,1-.45-1,7,7,0,0,0-.67-2.62,6.91,6.91,0,0,0-1.6-2.17l-2.31-2.13-5.46-5-.14-.13a.84.84,0,0,0-1.37.37l-.38,1.26A6.11,6.11,0,0,0,198.65,960.66Z" transform="translate(-0.74 -87.22)"/><path class="cls-27" d="M234.47,823.94l21.87,72.9a15.06,15.06,0,0,1-1.81,12.56l-25,38.2a5.21,5.21,0,0,1-7.6,1.24l-11.6-9.19,1.68-3L226.37,905a14.7,14.7,0,0,1,1.09-2l5.33-8.23-24.85-39.5A30.12,30.12,0,0,1,203.76,834l3.66-20.2,24.12.14Z" transform="translate(-0.74 -87.22)"/><path class="cls-26" d="M221.94,856.54a1.84,1.84,0,0,1-1.63-1.54l-1.93-13.82,3.81-2.55.2,17.39a.49.49,0,0,1-.43.52Z" transform="translate(-0.74 -87.22)"/><path class="cls-26" d="M219.42,852.14a1.82,1.82,0,0,1-1.88-1.21l-4.4-13.24,3.3-3.2,3.32,17.06a.47.47,0,0,1-.33.59Z" transform="translate(-0.74 -87.22)"/><path class="cls-26" d="M216.54,850.08a1.85,1.85,0,0,1-1.83-1.29l-3.89-13.4,3.42-3.07,2.67,17.18a.47.47,0,0,1-.35.57Z" transform="translate(-0.74 -87.22)"/><path class="cls-26" d="M213.63,846.78a1.86,1.86,0,0,1-1.84-1.28L208.17,833a1.51,1.51,0,0,1,.44-1.54l2.72-2.44L214,846.2a.49.49,0,0,1-.36.58Z" transform="translate(-0.74 -87.22)"/><path class="cls-26" d="M212.56,838.05h4.32a4.59,4.59,0,0,0,4.57-4.59v-3.84a4.59,4.59,0,0,0-4.57-4.59h-1.07a7.85,7.85,0,0,0-7.81,7.85v.58A4.58,4.58,0,0,0,212.56,838.05Z" transform="translate(-0.74 -87.22)"/><path class="cls-26" d="M220.2,826.6v12.32l0-.94a2.51,2.51,0,0,1,0-.27,1.31,1.31,0,0,1,1.72-1.12l.33-.19c.57.13.77.68,1,1.2l1.33,2.48a3.92,3.92,0,0,0,1.44,1.53,3.66,3.66,0,0,0,1.59.22,1.39,1.39,0,0,0,.63-.15l.07,0a.68.68,0,0,0,.15-.95l-4.39-7.46-.64-2a8,8,0,0,0-1.93-3.21l-1.35-1.35Z" transform="translate(-0.74 -87.22)"/><path class="cls-26" d="M210.29,835.33c0,4,3,7.32,6.73,7.32.21,0,.42,0,.62,0s.38.07.37,0a.28.28,0,1,1,.54-.11c0,.11.22-.06.32-.09a6.68,6.68,0,0,0,3.08-2c.08-.1.25-.18.25-.32,0-2.28.8-3,1.23-2.29.11.16.07-.36.11-.55a7.84,7.84,0,0,0,.22-1.83c0-4-3-7.32-6.74-7.32S210.29,831.29,210.29,835.33Z" transform="translate(-0.74 -87.22)"/><polygon class="cls-27" points="208.3 769.17 223.08 770.01 222.78 752.18 208.3 752.18 208.3 769.17"/><path class="cls-24" d="M206.05,833.22l-12.3-34.1a9.28,9.28,0,0,1,5.52-11.86l1.31-.47a5.73,5.73,0,0,1,7.36,3.46l13.47,37.37Z" transform="translate(-0.74 -87.22)"/><path class="cls-24" d="M197.48,798.5a4.6,4.6,0,0,1-4.07-5.09L196.8,762A9.22,9.22,0,0,1,207,753.74l1.37.15a5.78,5.78,0,0,1,5.1,6.37l-4.26,39.51Z" transform="translate(-0.74 -87.22)"/><path class="cls-24" d="M260.38,724.53c1.89,1.71,1.93,4.89.09,7.12l-22.9,27.62c-3.7,4.46-9.78,5.31-13.59,1.89l-1-.93c-2.37-2.13-2.42-6.12-.12-8.9l28.76-34.69Z" transform="translate(-0.74 -87.22)"/><path class="cls-30" d="M229.11,737.28,211.19,741a4.49,4.49,0,0,1-5.29-3.5l-2.33-11.42A12.12,12.12,0,0,1,213,711.75l10.49-2.17Z" transform="translate(-0.74 -87.22)"/><path class="cls-26" d="M232.88,720.4l3.41,16.23a2.89,2.89,0,0,1-3.22,3.38l-17.94-2.44Z" transform="translate(-0.74 -87.22)"/><path class="cls-26" d="M233.58,730.54l2.85-.65a1.41,1.41,0,0,0,.47-2.53l-4.4-3Z" transform="translate(-0.74 -87.22)"/><path class="cls-26" d="M221.35,712.23l-.37.06a2.9,2.9,0,0,0-2.33,3.36l1.77,9.89,13.11-2.37L233,720.4A10.08,10.08,0,0,0,221.35,712.23Z" transform="translate(-0.74 -87.22)"/><path class="cls-26" d="M209,728.27l15.24-3.15,6.19,30.33a.84.84,0,0,1-1.28.87l-16.69-11.11L209,728.27Z" transform="translate(-0.74 -87.22)"/><polygon class="cls-26" points="224.25 635.54 232.47 634.07 234.35 644.57 226.13 646.05 224.25 635.54"/><path class="cls-26" d="M217.45,710.91l-3.87.8a7.86,7.86,0,0,0-6.09,9.28l3.93,19.25,24.63-5.08-2.81-13.79A13.37,13.37,0,0,0,217.45,710.91Z" transform="translate(-0.74 -87.22)"/><path class="cls-31" d="M227.22,740l-.23-.05a1.5,1.5,0,0,0-1.37,2.5l2.58,2.77" transform="translate(-0.74 -87.22)"/><path class="cls-31" d="M233.59,723.37l-1.87.39a.87.87,0,0,0-.53.36l-.62,1a.84.84,0,0,0,.86,1.29l2.68-.56" transform="translate(-0.74 -87.22)"/><path class="cls-30" d="M223.89,728.37l.59,2.92a6.86,6.86,0,0,0,5.32,5.35h0a3.91,3.91,0,0,1,3-4.61l2.49-.51,1.22,5.87A3,3,0,0,1,233.1,741l-7.27-1.27a3,3,0,0,1-2.41-2.34l-2.24-10.77h0A2.3,2.3,0,0,1,223.89,728.37Z" transform="translate(-0.74 -87.22)"/><path class="cls-26" d="M233.33,736.46l2,0a.82.82,0,0,0,.82-1l-.47-2.29-1.81.37a1.8,1.8,0,0,0-1.39,2.12h0A.92.92,0,0,0,233.33,736.46Z" transform="translate(-0.74 -87.22)"/><path class="cls-30" d="M205.65,736.25l9.44-2a8.11,8.11,0,0,0,6.29-9.58l-3.14-15.36a1.49,1.49,0,0,0-1.76-1.17l-5.12,1.06a11,11,0,0,0-8.56,13Z" transform="translate(-0.74 -87.22)"/><path class="cls-30" d="M229.29,717.84l.39-.08a5.37,5.37,0,0,0,4.17-6.35l-.64-3.16a2.59,2.59,0,0,0-3.06-2l-3.88.79-12.83,2.65,7.95,16.52-.67-7.36a2.26,2.26,0,0,1,1.88-2.44h0a2.24,2.24,0,0,1,1.44.24l1.11.61A6,6,0,0,0,229.29,717.84Z" transform="translate(-0.74 -87.22)"/><path class="cls-26" d="M219.66,731.58l.31-.06a2.09,2.09,0,0,0,1.68-2.5l-.64-3a3.14,3.14,0,0,0-3.6-2.44l-.18,0a2.53,2.53,0,0,0-1.8,3.7l1.59,2.95A2.53,2.53,0,0,0,219.66,731.58Z" transform="translate(-0.74 -87.22)"/><path class="cls-26" d="M234.4,674.41h0a.37.37,0,0,0-.21.47l2.3,6.29a5,5,0,0,0,1.16,1.8l2.23,2.23.07,2a2.84,2.84,0,0,0,.78,1.83l4.1,4.24,0,0c.14.15.66,2.49.78,2.65l1.7,6.94,5.52.56.59-9.92a5.41,5.41,0,0,0-.4-4.79l-1.18-2.63a5.88,5.88,0,0,0-2-2.32,6.65,6.65,0,0,1-1.43-1.27c-1.2-1.36-3.12-3.48-3.12-3.48a1.09,1.09,0,0,0-1.28-.15l-.09,0a1.07,1.07,0,0,0-.3,1.48c.32.5,2.21,3.5,2.78,4.44h0a.44.44,0,0,1,0,.49.39.39,0,0,1-.46.11l-1.28-.54L239,680.5l-2.91-5.4a1.42,1.42,0,0,0-1.67-.69Z" transform="translate(-0.74 -87.22)"/><path class="cls-24" d="M253.87,696.17,262.74,722a8.6,8.6,0,0,1-1.5,8.25l-4.94,6-7.33-9a3.67,3.67,0,0,1-1-2.41l-1.11-18.59-.89-8.72Z" transform="translate(-0.74 -87.22)"/></g><g class="cls-32"><path class="cls-26" d="M509.61,693.86l20.91,38.83a3.85,3.85,0,0,0,5.44,1.42l10-6.25-10.41-16.22-15.27-18.92Z" transform="translate(-0.74 -87.22)"/><path class="cls-33" d="M602.09,906.31l17.16,26.84,5.84,9.14,3.2,5,.94,1.48,3.06,4.78,1.5,2.36,2.29,3.58.13.2,5.47.15,3.94.11,2,.06,2.87.1-.2-.44-.57-1.26-4.52-9.89-5.06-11.09-10.8-36a18.1,18.1,0,0,0-2-4.32L611.77,872l-21.08-.61,9.06,30A20.4,20.4,0,0,0,602.09,906.31Z" transform="translate(-0.74 -87.22)"/><path class="cls-33" d="M553.1,805.09l-.85,11.35,10.27,13.38,34.58,62.3s23.72-4.48,23.56-4.88l-31.8-81.31Z" transform="translate(-0.74 -87.22)"/><path class="cls-26" d="M628.29,947.28l.94,1.48,3.06,4.78,1.5,2.36,2.29,3.58.13.2,5.47.15,3.94.11,2,.06,2.87.1-.2-.44-.58-1.26-4.51-9.89L643,943.76Z" transform="translate(-0.74 -87.22)"/><path class="cls-34" d="M655.34,967.37H636.89l-1-2.81a14,14,0,0,1-.65-7.08l.52-3.15,7.49-4.17,7.53,4.17,3.76,5.89a5.53,5.53,0,0,1,.88,3.09Z" transform="translate(-0.74 -87.22)"/><path class="cls-35" d="M652.34,971.28H639.63a1.69,1.69,0,0,1-1.59-1l-1.28-3.21h18.45l-1.29,3.21A1.67,1.67,0,0,1,652.34,971.28Z" transform="translate(-0.74 -87.22)"/><path class="cls-34" d="M645.92,948.55h-7.67A1.13,1.13,0,0,0,637.1,950l1.49,7.33a1.84,1.84,0,0,0,1.72,1.42H648a1.13,1.13,0,0,0,1.14-1.42L647.64,950A1.82,1.82,0,0,0,645.92,948.55Z" transform="translate(-0.74 -87.22)"/><path class="cls-35" d="M644.67,965h2.63a2,2,0,0,1,2,2h0a2,2,0,0,1-2,1.95h-2.63a2,2,0,0,1-2-1.95h0A2,2,0,0,1,644.67,965Z" transform="translate(-0.74 -87.22)"/><path class="cls-26" d="M508.28,682.73l-.57,6.26a8.84,8.84,0,0,0,5.24,7.22,9.17,9.17,0,0,0,1.94.63,2,2,0,0,0,.35,0l.38,0,9.59,2.08-9-11.29-.08-1a3.4,3.4,0,0,1-.3-.39l-3.76-5.43C511.7,680.16,508.28,682.73,508.28,682.73Z" transform="translate(-0.74 -87.22)"/><path class="cls-36" d="M621.17,965.28Z" transform="translate(-0.74 -87.22)"/><path class="cls-27" d="M530.67,729.74a3.39,3.39,0,0,0,1.25,4.71L559.35,750a9.51,9.51,0,0,0,13-3.23l.73-1.21a5.8,5.8,0,0,0-2-8l-33.53-19Z" transform="translate(-0.74 -87.22)"/><path class="cls-27" d="M619.15,797.12l-13.5-35.48a3.57,3.57,0,0,0-4.58-2.06l-12.37,4.61L603.45,803a4.61,4.61,0,0,0,5.91,2.66l7.11-2.65A4.53,4.53,0,0,0,619.15,797.12Z" transform="translate(-0.74 -87.22)"/><path class="cls-27" d="M604.6,775.63l1.78-6.24a15.06,15.06,0,0,0-5.49-16.18L561.57,729l-11.21,69.89,32.87,4Z" transform="translate(-0.74 -87.22)"/><path class="cls-26" d="M599,907.17l4.91,26.57,1.67,9,.92,5,.27,1.46.87,4.73.43,2.33.66,3.55,0,.21-5.34.5c-1.26.12-2.6.24-3.83.37l-2,.19c-1.54.14-2.65.26-2.79.28l-.16-.43-.46-1.23L590.59,950l-4.06-10.85L574,907.45l-9.18-22.4,18.24-11.85,14.13,29.09A17.12,17.12,0,0,1,599,907.17Z" transform="translate(-0.74 -87.22)"/><path class="cls-33" d="M547.55,807l.08,19.51,17.2,60.74a7.89,7.89,0,0,0,10.8,5.15c5.71-2.48,12.2-5.37,12.17-5.59l-8.45-80.93Z" transform="translate(-0.74 -87.22)"/><path class="cls-34" d="M575.19,967.16l-3.37-2a3.56,3.56,0,0,1-1.71-2.49h0a2.52,2.52,0,0,1,2.15-2.94l6.39-.92a11.92,11.92,0,0,0,9.12-6.36l2.11-4.14,2.8,1.55a1.59,1.59,0,0,1,.81,1.81l-.61,1.87,3.84,1.5a6.6,6.6,0,0,0,7.11-1.2l2.69-2.7a1,1,0,0,1,1.52.6l2.35,12.11-.33,2.85Z" transform="translate(-0.74 -87.22)"/><path class="cls-27" d="M592,813.24l-44.43,8.29,0-40.3c.12-10.12,3.72-51.48,3.72-51.48L586.2,758l1,41.19Z" transform="translate(-0.74 -87.22)"/><path class="cls-35" d="M611.45,964.67l-.4,1.2a5.25,5.25,0,0,1-5.13,3.53H580.3a3.19,3.19,0,0,1-1.46-.37l-6.12-3.15h21.1a1.25,1.25,0,0,0,.94-.41h0a6.3,6.3,0,0,1,4.74-2h11A1,1,0,0,1,611.45,964.67Z" transform="translate(-0.74 -87.22)"/><path class="cls-26" d="M583.78,727.13H567.9l0,32.12a1.53,1.53,0,0,0,2.74.92l13.13-17Z" transform="translate(-0.74 -87.22)"/><path class="cls-26" d="M503.16,677.3a1.42,1.42,0,0,0,.21-.06l2.22-.57,1.12-.26a2.07,2.07,0,0,1,.74-.07c.75,0,2.47.12,3.18.18a4.11,4.11,0,0,1,1.67.54c.89.38,4.08,2.1,4.08,2.1L515,683.51l-2.13-2.25-3.29,2.86s-.29.59-.89,1.69-2.64,1.24-2.26.21l.59-1.7h0c0-.1.18-.45.23-.64a2.17,2.17,0,0,1,.34-.6c.27-.32.68-.87,1.07-1.38l-.81.36s-.57.53-1.53,1.53-3.19.51-2.5-.46L505,681.6c.2-.24.31-.42.55-.7a2.21,2.21,0,0,1,.56-.58l1.69-1.22L507,679l-1.6.24a2.62,2.62,0,0,1-1.15-.11C503.07,678.74,502.62,677.61,503.16,677.3Z" transform="translate(-0.74 -87.22)"/><path class="cls-13" d="M503.16,677.3a1.42,1.42,0,0,0,.21-.06l2.22-.57,1.12-.26a2.07,2.07,0,0,1,.74-.07c.75,0,2.47.12,3.18.18a4.11,4.11,0,0,1,1.67.54c.89.38,4.08,2.1,4.08,2.1L515,683.51l-2.13-2.25-3.29,2.86s-.29.59-.89,1.69-2.64,1.24-2.26.21l.59-1.7h0c0-.1.18-.45.23-.64a2.17,2.17,0,0,1,.34-.6c.27-.32.68-.87,1.07-1.38l-.81.36s-.57.53-1.53,1.53-3.19.51-2.5-.46L505,681.6c.2-.24.31-.42.55-.7a2.21,2.21,0,0,1,.56-.58l1.69-1.22L507,679l-1.6.24a2.62,2.62,0,0,1-1.15-.11C503.07,678.74,502.62,677.61,503.16,677.3Z" transform="translate(-0.74 -87.22)"/><path class="cls-26" d="M508.85,681.71s-1.07-2.59-2.05-5,1.47-3,2.56-1.24l2.89,4.59-3.4,1.66Z" transform="translate(-0.74 -87.22)"/><path class="cls-26" d="M505.9,672.45H506l1.95,0h0c.62,0,1.19,0,1.59,0a2.27,2.27,0,0,1,.75.15c.73.23,2.32.78,3,1a3.77,3.77,0,0,1,1.45,1l4.87,5.15a3,3,0,0,1,.65,3.15l-2.12,5.83a6.22,6.22,0,0,0,.11,4.85h0l-6.79,3.08-.21-.29.21.33a21.42,21.42,0,0,1-3.21-5.62l-.25-.64c-1.29-2.94,2-5.75.84-8.75l3.38-1.69.72,1.1c.72,1.11,2.68.93,2.26.23l-3.13-5.22-3-1-1.59-.2a2.43,2.43,0,0,1-1.1-.42C505.41,673.8,505.3,672.59,505.9,672.45Z" transform="translate(-0.74 -87.22)"/><path class="cls-27" d="M526.74,730.7l4.22,4.24a1.53,1.53,0,0,0,2.16,0l11.82-11.5a1.51,1.51,0,0,0,0-2.14l-4.22-4.24a1.53,1.53,0,0,0-2.16,0l-11.82,11.5A1.51,1.51,0,0,0,526.74,730.7Z" transform="translate(-0.74 -87.22)"/><path class="cls-27" d="M599.34,795.27l2,6.54a7.44,7.44,0,0,0,9.26,4.89l4.79-1.45a7.11,7.11,0,0,0,4.8-8.89l-2.07-6.74a1.54,1.54,0,0,0-1.91-1l-15.86,4.78A1.5,1.5,0,0,0,599.34,795.27Z" transform="translate(-0.74 -87.22)"/><path class="cls-19" d="M580.75,718.17l-18.39-6.54h0a10.5,10.5,0,0,1,11.52-6.75l5,.79a5,5,0,0,1,4,6.67Z" transform="translate(-0.74 -87.22)"/><polygon class="cls-19" points="573.11 623.77 571.61 627.88 567.9 626.56 562.9 640.33 561.5 639.84 558.48 627.13 564.38 620.42 573.11 623.77"/><path class="cls-26" d="M564.49,713.65l-5.83,15.73a2.93,2.93,0,0,0,2.78,3.84l18.58.15Z" transform="translate(-0.74 -87.22)"/><path class="cls-26" d="M562.3,723.69l-2.79-1.07a1.41,1.41,0,0,1-.12-2.6l4.91-2.38Z" transform="translate(-0.74 -87.22)"/><path class="cls-26" d="M577.39,707.15l.36.12a2.92,2.92,0,0,1,1.88,3.69l-3.23,9.63-13-4.26.91-2.7A10.36,10.36,0,0,1,577.39,707.15Z" transform="translate(-0.74 -87.22)"/><polygon class="cls-26" points="559.84 637.5 567.98 640.17 571.41 629.94 563.27 627.27 559.84 637.5"/><path class="cls-26" d="M581.53,706.39l3.82,1.36a7.92,7.92,0,0,1,4.84,10.16l-6.79,18.68L559.12,728,564,714.57A13.77,13.77,0,0,1,581.53,706.39Z" transform="translate(-0.74 -87.22)"/><path class="cls-13" d="M563.45,716.57l1.85.65a.92.92,0,0,1,.49.44l.49,1a.86.86,0,0,1-1.07,1.16l-2.24-.8" transform="translate(-0.74 -87.22)"/><path class="cls-19" d="M572.46,722.92l-1,2.83a7,7,0,0,1-6.17,4.58h0a3.93,3.93,0,0,0-2.4-5l-2.46-.87L557.64,732a2.84,2.84,0,0,0,2.78,3.79l8-.23a2.84,2.84,0,0,0,2.61-1.87l4.43-12.17h0A2.35,2.35,0,0,0,572.46,722.92Z" transform="translate(-0.74 -87.22)"/><path class="cls-26" d="M561.69,729.64l-2-.23a.83.83,0,0,1-.69-1.11l.8-2.22,1.78.63a1.82,1.82,0,0,1,1.11,2.33h0A.94.94,0,0,1,561.69,729.64Z" transform="translate(-0.74 -87.22)"/><path class="cls-19" d="M571.4,705l-3.08,8.47a3.16,3.16,0,0,0,1.93,4l3,1.08a3.05,3.05,0,0,1,1.86,3.92l-2.56,7.06a2.74,2.74,0,0,0,1.68,3.52h0a2.81,2.81,0,0,0,2.13-.1l13.94-6.49a1.53,1.53,0,0,0,.74-2l-4.44-12.21A10.19,10.19,0,0,0,578,705.6Z" transform="translate(-0.74 -87.22)"/><path class="cls-19" d="M580.91,706.16l8.54,3A8.43,8.43,0,0,1,594.6,720l-5.21,14.32a1.42,1.42,0,0,1-1.53.92l-16.74-2.19Z" transform="translate(-0.74 -87.22)"/><path class="cls-26" d="M581.38,720.34l-.25-.09a3.69,3.69,0,0,0-4.71,2.2l-2.4,6.6,3.38-.69a4.68,4.68,0,0,0,3.22-2.4l1.71-3.22A1.71,1.71,0,0,0,581.38,720.34Z" transform="translate(-0.74 -87.22)"/><path class="cls-33" d="M628.21,947.16l14.09-3.54-24.11-45.78-17.64,5.56L619.4,943A7.68,7.68,0,0,0,628.21,947.16Z" transform="translate(-0.74 -87.22)"/><path class="cls-33" d="M590.18,946l15.47-1.71-21.54-61L566,887.22l16,53.37A7.65,7.65,0,0,0,590.18,946Z" transform="translate(-0.74 -87.22)"/><path class="cls-33" d="M588.17,943.55l-1.64-4.37L574,907.45l-9.18-22.4,18.24-11.85,14.13,29.09a17.17,17.17,0,0,1,1.76,4.87l4.91,26.58,1.67,9,.14.76Z" transform="translate(-0.74 -87.22)"/><path class="cls-26" d="M582,800.54l29-9a3.8,3.8,0,0,1,4,1.07l2.12,2.34a6.15,6.15,0,0,1-.47,8.76l-3,2.68a3.86,3.86,0,0,1-2.49.95l-23.48.24Z" transform="translate(-0.74 -87.22)"/><path class="cls-26" d="M558.53,808.63h0a.38.38,0,0,0,.31.42l6.76,1.06a4.87,4.87,0,0,0,2.18-.14l3.11-.86,1.78.9a2.84,2.84,0,0,0,2,.21l5.84-1.53h.05c.21-.05.41-.08.61-.11h0l12.45-2-8.54-5.42a5.53,5.53,0,0,0-4.47-2l-2.94-.25a6,6,0,0,0-3.08.63,6.73,6.73,0,0,1-1.84.65c-1.82.38-4.67,1-4.67,1a1.11,1.11,0,0,0-.78,1.06v.11a1.09,1.09,0,0,0,1.17,1c.61,0,4.22-.23,5.35-.27h0a.43.43,0,0,1,.41.29.39.39,0,0,1-.13.46l-1.12.86-6.75,2.8-6.26-.09a1.48,1.48,0,0,0-1.47,1.14Z" transform="translate(-0.74 -87.22)"/></g><polyline class="cls-1" points="393.83 905.95 393.83 618.53 254.79 618.53 254.79 905.95"/><path class="cls-37" d="M335.38,863.16a.45.45,0,0,0,.45-.45v-36a.45.45,0,0,0-.9,0v36A.45.45,0,0,0,335.38,863.16Z" transform="translate(-0.74 -87.22)"/><path class="cls-37" d="M334.5,865.5h1.75a.73.73,0,0,0,.66-1l-.88-1.74a.72.72,0,0,0-1.3,0l-.88,1.74A.73.73,0,0,0,334.5,865.5Z" transform="translate(-0.74 -87.22)"/><polygon class="cls-27" points="295.62 718.4 335.09 718.4 332.36 688.47 322.77 666.16 287.47 665.91 295.62 718.4"/><path class="cls-11" d="M305.07,744.56l5.79,19.23,12.69-31.48-6.17-2.47L312,727.68l-2.28,5.68Z" transform="translate(-0.74 -87.22)"/><path class="cls-27" d="M326.14,749.6l-26.16-6a10.14,10.14,0,0,0-12,12.74l2.14,7.2Z" transform="translate(-0.74 -87.22)"/><path class="cls-38" d="M273.44,978.13l9.43,3.26,3.27-9.37a3.25,3.25,0,0,0-2-4.14l-3.25-1.12a3.28,3.28,0,0,0-4.16,2Z" transform="translate(-0.74 -87.22)"/><path class="cls-15" d="M278.52,985.42l6.7-8.43s1.79,6.49,2.6,7.18" transform="translate(-0.74 -87.22)"/><path class="cls-11" d="M292.52,893.26,278.84,921a14.46,14.46,0,0,0-1.36,4.36l-7.77,54.15s10.75,2.32,10.34,2.18l20.33-53.86,3.71-25.64Z" transform="translate(-0.74 -87.22)"/><path class="cls-15" d="M283.05,985.69l-16.8-2.15.31-2.36a19.24,19.24,0,0,1,2.31-6.53l2.25-3.94,13.2,7.52-1.27,7.46" transform="translate(-0.74 -87.22)"/><path class="cls-15" d="M280.94,985.34l4.87-6.27-1.59-5.75a2.53,2.53,0,0,0-2-1.83l-11.22-2L269.9,976c.38.06,9.49,7.22,9.72,7.53l1.32,1.86" transform="translate(-0.74 -87.22)"/><ellipse class="cls-14" cx="281.31" cy="979.15" rx="3.11" ry="1.45" transform="translate(-731.98 1004.23) rotate(-80.3)"/><path class="cls-14" d="M265.94,985.76l.44-2.56.11-.06a2.49,2.49,0,0,1,1.58-.33l6.58.77a15.53,15.53,0,0,1,6,2" transform="translate(-0.74 -87.22)"/><path class="cls-11" d="M322.13,823.76l5.7,18.35L302.12,911s-11.85-6.87-11.85-7.28l10.34-79Z" transform="translate(-0.74 -87.22)"/><path class="cls-27" d="M312.52,746.56l12.66,2.65a10.14,10.14,0,0,1,8.08,9.91v36.67Z" transform="translate(-0.74 -87.22)"/><rect class="cls-11" x="318.71" y="628.19" width="7.73" height="9.78"/><rect x="314" y="621.16" width="5.24" height="19.56"/><path d="M312.49,731.76l5.92,2.62V709.44a2.65,2.65,0,0,0-2.66-2.64h-1.2a9.29,9.29,0,0,0-9.22,10.67l.95,6.2A10.59,10.59,0,0,0,312.49,731.76Z" transform="translate(-0.74 -87.22)"/><path class="cls-11" d="M330.9,716v4.67a1.19,1.19,0,0,1-.1.49l-.62,1.54a1.31,1.31,0,0,0,.35,1.48l.37.33v9a2.65,2.65,0,0,1-2.67,2.65l-16.83-.07.07-5.7Z" transform="translate(-0.74 -87.22)"/><rect class="cls-11" x="313.22" y="636.71" width="3.87" height="5.86"/><path class="cls-11" d="M314.11,725.18h6.06v-6h-6.06a2.41,2.41,0,0,0-2.42,2.41v1.18A2.41,2.41,0,0,0,314.11,725.18Z" transform="translate(-0.74 -87.22)"/><path d="M324.87,713.86H317v4a19.17,19.17,0,0,1-2.65.12,62.31,62.31,0,0,0,4.37,5,.8.8,0,0,0,1.39-.54v-2.58a.79.79,0,0,1,.8-.79h4Z" transform="translate(-0.74 -87.22)"/><path class="cls-11" d="M321.82,707.32h-.35A2.67,2.67,0,0,0,318.8,710v9.21h12.34V716.6A9.31,9.31,0,0,0,321.82,707.32Z" transform="translate(-0.74 -87.22)"/><path d="M310.6,710.66h9.32v17.88a5.31,5.31,0,0,1-5.33,5.3h-4Z" transform="translate(-0.74 -87.22)"/><path d="M316.72,707.61h11v6.23a5.31,5.31,0,0,1-5.32,5.3h-5.65Z" transform="translate(-0.74 -87.22)"/><path class="cls-11" d="M322.52,890.81l-1.66,30.7a14.87,14.87,0,0,1-.39,2.65l-13.25,55s-12.74,0-12.31,0l3.19-57.61a15,15,0,0,1,1.12-4.9l9-21.77Z" transform="translate(-0.74 -87.22)"/><path class="cls-11" d="M332.72,815l4.37,17a5.81,5.81,0,0,1,0,2.75L322,899.28s-14.95,1.26-14.93.85l2.52-46.59,1.55-37.68Z" transform="translate(-0.74 -87.22)"/><path class="cls-14" d="M308.64,980.73h-3.56l1.16-6.53a2.53,2.53,0,0,1,2.5-2.09h1.44Z" transform="translate(-0.74 -87.22)"/><rect class="cls-11" x="294.42" y="891.69" width="12.19" height="4.41"/><path class="cls-15" d="M292.53,989.14a19.41,19.41,0,0,1,1.18-6.83l1.57-4.26,14.27,5.22v7.57" transform="translate(-0.74 -87.22)"/><path class="cls-15" d="M314.24,984.59a8.69,8.69,0,0,1-5-3.27l-2.42-3.23a2.92,2.92,0,0,0-2.35-1.17H295v6.5c.39,0,10.57,5.54,10.84,5.81" transform="translate(-0.74 -87.22)"/><path class="cls-14" d="M302.28,985.2a3.12,3.12,0,0,0-6.24,0" transform="translate(-0.74 -87.22)"/><polygon class="cls-39" points="291.17 801.28 324.96 801.28 336.99 747.87 290.71 747.87 291.17 801.28"/><polygon class="cls-27" points="295.57 717.94 335.14 717.94 336.99 747.87 290.71 747.87 295.57 717.94"/><path class="cls-11" d="M326.91,736.63h-5V724h7.65a2,2,0,0,1,2,2v6A4.64,4.64,0,0,1,326.91,736.63Z" transform="translate(-0.74 -87.22)"/><path class="cls-19" d="M329.14,743.9l-26.88-7.69a2.53,2.53,0,0,1-1.84-2.43v-17.9a10.15,10.15,0,0,1,10.18-10.13H321a8.12,8.12,0,0,1,8.14,8.1Z" transform="translate(-0.74 -87.22)"/><path class="cls-19" d="M331.92,719.18H313.3V705.75h8.85a10.75,10.75,0,0,1,10.78,10.73v1.69A1,1,0,0,1,331.92,719.18Z" transform="translate(-0.74 -87.22)"/><path class="cls-11" d="M259.94,738.72l6.23,1.15v39.26a4.79,4.79,0,0,1-4.64,4.78h0a4.79,4.79,0,0,1-4.95-4.27l-.95-8.84a17.94,17.94,0,0,1,.11-4.63Z" transform="translate(-0.74 -87.22)"/><path class="cls-11" d="M383.35,803.92l1.52.81,1,.53L391,802a.37.37,0,0,0,.16-.5h0a1.45,1.45,0,0,0-1.7-.42l-.47.22h0Z" transform="translate(-0.74 -87.22)"/><path class="cls-11" d="M383.05,803.21l-.47.3.07,0,.7.37,1.52.81L389,801.3h0l.38-.32a.38.38,0,0,0,.08-.52h0a1.46,1.46,0,0,0-1.75-.2Z" transform="translate(-0.74 -87.22)"/><path class="cls-11" d="M380.45,802.38l2.13,1.13.07,0,.4-.34,3.6-3a.36.36,0,0,0,.08-.52h0a1.43,1.43,0,0,0-1.74-.19Z" transform="translate(-0.74 -87.22)"/><path class="cls-11" d="M259,736.72l.06,7.54,3.87-1.8.31-.05a7.48,7.48,0,0,0,2.9-1.22,7.37,7.37,0,0,0,2.12-2.32h0l5.73-9.53a.53.53,0,0,0-.06-.66l-.06-.06a1,1,0,0,0-1.45.14l-3.53,3.65a1.13,1.13,0,0,1-.52.3,1.15,1.15,0,0,1-1.41-.79l-2.62-7.64-1.43.81a2.21,2.21,0,0,0-1.13,1.81h0a8.85,8.85,0,0,1-.3,1.77L260,734a4.4,4.4,0,0,1-.52,1.17A2.8,2.8,0,0,0,259,736.72Z" transform="translate(-0.74 -87.22)"/><path class="cls-11" d="M262.87,716.26a1.51,1.51,0,0,1,1.25,1.34l.78,11.33-3.27,1.84.84-14.12a.39.39,0,0,1,.39-.39Z" transform="translate(-0.74 -87.22)"/><path class="cls-27" d="M259.38,772.52l17.9-13.08,13.07-12.86,5.06,17.2-23.94,14.29-5.7,3.67a5.65,5.65,0,0,1-7.8-1.69h0A5.58,5.58,0,0,1,259.38,772.52Z" transform="translate(-0.74 -87.22)"/><path class="cls-11" d="M310.94,888.46H312a5.07,5.07,0,0,0,5.07-4.63l1.64-19.08v19a4.75,4.75,0,0,0,4.76,4.73h0v4.59H310.94Z" transform="translate(-0.74 -87.22)"/><path class="cls-11" d="M377,797.22l-2.29-5.88L332.79,799l2.57,7.26a2.73,2.73,0,0,0,2.79,1.8l8.36-.68a15.62,15.62,0,0,0,3.88-.83Z" transform="translate(-0.74 -87.22)"/><polygon class="cls-27" points="332.87 714.79 319 680.3 317.17 669.8 332.29 671.78 343.23 709.68 332.87 714.79"/><polygon class="cls-27" points="318.12 660.73 302.27 657.19 289.7 679.65 321.35 687.47 318.12 660.73"/><path class="cls-11" d="M313.5,748.28l-8.17-2.77a.5.5,0,0,1-.31-.67l2.08-5.12,11.8,4-1,2.58A3.48,3.48,0,0,1,313.5,748.28Z" transform="translate(-0.74 -87.22)"/><path class="cls-39" d="M324.08,749.06,302,744.47,288,753.54l7,16.26a5.1,5.1,0,0,0,8.41,1.43Z" transform="translate(-0.74 -87.22)"/><polygon class="cls-37" points="320.48 661.17 301.48 656.71 287.29 666.31 320.48 661.17"/><g class="cls-40"><path class="cls-41" d="M385,799.51a1.43,1.43,0,0,1,1.74.19h0a.37.37,0,0,1-.09.52l-3.6,3,4.68-3a1.45,1.45,0,0,1,1.74.2h0a.36.36,0,0,1-.08.52l-.38.32.47-.22a1.43,1.43,0,0,1,1.7.42h0a.37.37,0,0,1-.15.5l-5.17,3.26-1-.53-1.52-.81-.7-.37-.06,0-2.14-1.13Z" transform="translate(-0.74 -87.22)"/></g><path class="cls-11" d="M360.39,802.81l8-2.86a4.45,4.45,0,0,1,4,.15l1.21.66,5.11,3.14a2.84,2.84,0,0,0,2,.38l2-.35,2.7,1.72a5,5,0,0,0,2,.75l6.75.92a.37.37,0,0,0,.42-.31h0v0a1.46,1.46,0,0,0-1.06-1.51l-6-1.71-5.61-4.62-.81-1.14a.4.4,0,0,1,0-.49h0a.43.43,0,0,1,.48-.14c1.06.36,4.45,1.58,5,1.79a1.08,1.08,0,0,0,1.4-.62l0,0h0a1.12,1.12,0,0,0-.42-1.3s-2.52-1.45-4.14-2.34a6.58,6.58,0,0,1-1.57-1.14,5.83,5.83,0,0,0-2.74-1.5l-2.88-.6c-1.64-.34-3.25-.76-5.23.48l-4.86,1.6Z" transform="translate(-0.74 -87.22)"/><g class="cls-42"><path class="cls-16" d="M475,967.16l9.16,3.16,3.18-9.09a3.14,3.14,0,0,0-2-4l-3.16-1.09a3.18,3.18,0,0,0-4,1.94Z" transform="translate(-0.74 -87.22)"/><path class="cls-19" d="M486.42,966.06s1.74,6.3,2.53,7c1,.79,3.81,3.23,3.81,3.23l2,.54.17,4.61-3.29-.36-11.75-6.81Z" transform="translate(-0.74 -87.22)"/><path class="cls-43" d="M493.52,884.83l-13.31,26.91A14,14,0,0,0,478.9,916l-7.56,52.53s10.45,2.25,10.05,2.12l19.77-52.25,3.61-24.88Z" transform="translate(-0.74 -87.22)"/><path class="cls-19" d="M484.31,974.5,468,972.41l.29-2.29a18.86,18.86,0,0,1,2.25-6.34l2.19-3.82,12.84,7.3Z" transform="translate(-0.74 -87.22)"/><path class="cls-19" d="M472.59,958.82,471.52,965c.38.07,9.23,7,9.45,7.31l1.29,1.8,4.73-6.08-1.54-5.58a2.47,2.47,0,0,0-2-1.77Z" transform="translate(-0.74 -87.22)"/><ellipse class="cls-27" cx="482.63" cy="968.17" rx="3.01" ry="1.41" transform="translate(-553.94 1192.91) rotate(-80.26)"/><path class="cls-16" d="M484,975.87l10.39,5.75H478.56L468,975.12a.59.59,0,0,1,.38-1.08Z" transform="translate(-0.74 -87.22)"/><path class="cls-27" d="M467.68,974.56l.42-2.48.11-.06a2.43,2.43,0,0,1,1.54-.32l6.4.75a15.15,15.15,0,0,1,5.78,1.89l8.12,4.63,5.62.2-.43,2.49-5.31,0-8.78-4.89a15.23,15.23,0,0,0-5.69-1.84l-6.1-.7a2.49,2.49,0,0,0-1.32.21Z" transform="translate(-0.74 -87.22)"/><path class="cls-43" d="M522.31,817.41l5.54,17.8-25,66.78s-11.52-6.66-11.52-7.06l10.06-76.67Z" transform="translate(-0.74 -87.22)"/><path class="cls-43" d="M522.4,882.46l-1.48,27.14a43.23,43.23,0,0,1-1.13,7.76L507.52,968.2s-12.39,0-12,0l3.1-55.88a14.65,14.65,0,0,1,1.09-4.76l8.78-21.12Z" transform="translate(-0.74 -87.22)"/><path class="cls-27" d="M508.9,969.69h-3.46l1.12-6.34a2.47,2.47,0,0,1,2.44-2h1.39Z" transform="translate(-0.74 -87.22)"/><rect class="cls-43" x="495.05" y="880.7" width="11.85" height="4.28"/><path class="cls-19" d="M509.78,979.49H493.25l0-1.65a18.78,18.78,0,0,1,1.15-6.63l1.52-4.12,13.88,5.06v7.34Z" transform="translate(-0.74 -87.22)"/><path class="cls-19" d="M495.59,966v6.31c.37,0,10.28,5.37,10.54,5.64l1.58,1.56H527.2l-.62-1.79a2.85,2.85,0,0,0-2-1.82l-10.21-2.45a8.53,8.53,0,0,1-4.84-3.17l-2.35-3.14a2.86,2.86,0,0,0-2.28-1.14Z" transform="translate(-0.74 -87.22)"/><rect class="cls-27" x="492.44" y="892.01" width="34.01" height="2.52"/><ellipse class="cls-27" cx="498.94" cy="886.79" rx="3.04" ry="3.01"/><path class="cls-44" d="M487.78,725.7h0L509.51,724l1.76-6.52a12.64,12.64,0,0,0-9-15.5l-3.49-.93a12.75,12.75,0,0,0-15.62,8.92l-1.44,5.34A8.5,8.5,0,0,0,487.78,725.7Z" transform="translate(-0.74 -87.22)"/><path class="cls-43" d="M499.79,755.66v-28.3H484.43V742l13.69,14.31A1,1,0,0,0,499.79,755.66Z" transform="translate(-0.74 -87.22)"/><path class="cls-43" d="M483.82,727.12l5.5,9.34a1.5,1.5,0,0,0,.92.69l8.24,2.11a1.5,1.5,0,0,0,1.42-.37l3.29-3.16a12.73,12.73,0,0,0,3.47-5.86l2-7.36-22-5.88Z" transform="translate(-0.74 -87.22)"/><path class="cls-43" d="M486.68,714.61l.12,0a2.18,2.18,0,0,1,1.55,2.66l-1.57,5.82a2.21,2.21,0,0,1-2.69,1.53l-.12,0a2.18,2.18,0,0,1-1.55-2.67l1.58-5.81A2.2,2.2,0,0,1,486.68,714.61Z" transform="translate(-0.74 -87.22)"/><path class="cls-44" d="M481.26,717.83c-.81,3-1.6,12.63,4.84,14.36s22.63-5.36,23.43-8.34-3.76-6.79-10.2-8.51S482.07,714.85,481.26,717.83Z" transform="translate(-0.74 -87.22)"/><polygon class="cls-44" points="487.83 623.26 491.77 624.31 489.76 631.71 485.83 630.66 487.83 623.26"/><path class="cls-43" d="M501.37,730.71h0a1.78,1.78,0,0,0,2.16-1.23l2.28-8.45a1.74,1.74,0,0,0-1.24-2.14h0a1.77,1.77,0,0,0-2.16,1.23l-2.29,8.45A1.75,1.75,0,0,0,501.37,730.71Z" transform="translate(-0.74 -87.22)"/><path class="cls-45" d="M494.67,707.8a5.16,5.16,0,0,1-5-6.45,5.24,5.24,0,0,1,6.31-3.61,5.07,5.07,0,0,1,3.13,2.39,5,5,0,0,1,.51,3.88A5.15,5.15,0,0,1,494.67,707.8Zm0-7.59a2.47,2.47,0,0,0-.64,4.86,2.53,2.53,0,0,0,3.05-1.75,2.43,2.43,0,0,0-.25-1.88,2.47,2.47,0,0,0-1.51-1.15A2.82,2.82,0,0,0,494.66,700.21Z" transform="translate(-0.74 -87.22)"/><path class="cls-43" d="M547.7,758.84s13.78,4.21,15.11,4.21l16.93-4.39c7.69,2.63,8,5.21,4.49,7.85-6.16,4.69-16.23,8.94-21.69,9.86a71.79,71.79,0,0,1-22.26.1C531.9,775.25,547.7,758.84,547.7,758.84Z" transform="translate(-0.74 -87.22)"/><polygon class="cls-46" points="531.21 752.68 521.55 813.12 483.76 812.77 480.67 747.61 531.21 752.68"/><path class="cls-47" d="M524.22,743.81l23.48,15s-5.57,17.63-7.42,17.63l-6.37-.53-13.77,8.83S512,752,524.22,743.81Z" transform="translate(-0.74 -87.22)"/><path class="cls-45" d="M491.42,738.23c-6.12.61-7.49,3.64-17,9.69s-13.65,12-13.65,12,6.89,25.26,8.48,39.73,1.32,47.89,5.3,52.62,18.84-1,29.44-1.58,31.28-1.84,37.64-1.84c0,0-2.2-36-4.06-41s-3.63-31.84-3.63-31.84-11.68,2.22-13.55-12.24c-1.44-11.23.94-16.47,3.86-19.89C517.26,740.08,500.32,737.35,491.42,738.23Z" transform="translate(-0.74 -87.22)"/><path class="cls-48" d="M471.2,833.06c12.42-.62,18.22-2.93,28.19-5,4.76-1,9.26-1.92,13.39-2.54,9.56-1.48,20.13-1.17,27-.71-.16-1.92-.35-3.8-.54-5.59a132.1,132.1,0,0,0-27.34.81c-4.27.67-8.85,1.61-13.69,2.62-9.76,2-15.33,4.3-27.37,4.91Z" transform="translate(-0.74 -87.22)"/><path class="cls-48" d="M535,789.46a119.83,119.83,0,0,0-22.2,1c-4.13.63-8.63,1.57-13.39,2.55-10.55,2.21-17.05,4.65-30.35,5.11-.22-1.72-.5-3.58-.84-5.5,2.31-.08,4.58-.2,6.79-.39a191,191,0,0,1-9-37.93,63.9,63.9,0,0,1,5.14-4.12,190.57,190.57,0,0,0,9.59,41.46c8.2-1,10.51-2.58,17.53-4,3.8-.79,7.42-1.55,10.88-2.14-4.44-25.84-1.58-39.76.62-45.93,1.9.35,3.77.74,5.52,1.18-1.8,4.62-5.15,17.6-.63,43.9a132.87,132.87,0,0,1,19.88-.7C534.63,785.61,534.8,787.5,535,789.46Z" transform="translate(-0.74 -87.22)"/><path class="cls-44" d="M496.85,760.17l-13.75,0,.08-56a7,7,0,0,1,7-6.92h2.18a4.55,4.55,0,0,1,4.57,4.56Z" transform="translate(-0.74 -87.22)"/><path class="cls-48" d="M579.51,769.8l-4.14-10.27,5.58-1.34a3.56,3.56,0,0,0,1.75-1.54l.83-1.55a7.4,7.4,0,0,1,2.3-2.58l1.57-1.08,5.39-5.89a.63.63,0,0,1,.87-.13l.07.06h0a1.93,1.93,0,0,1,.3,1.76,3.55,3.55,0,0,1-1,1.68l-1.83,1.85a1.84,1.84,0,0,0-.52,1.46v0a1.58,1.58,0,0,0,1.7,1.43l.25,0,12.15-3a1.83,1.83,0,0,1,2,.95.46.46,0,0,1-.29.58h0l-10,3.65a.34.34,0,0,0-.21.43.35.35,0,0,0,.35.23l11.65-.61a1.81,1.81,0,0,1,1.77,1.32.45.45,0,0,1-.4.5h0L598,759.44a.21.21,0,0,0,0,.41l10.82,1.07a1.81,1.81,0,0,1,1.55,1.57.47.47,0,0,1-.47.45h0l-11.44,0c-.21,0-.26.4,0,.45l7.27,2.55a1.83,1.83,0,0,1,1.34,1.76.46.46,0,0,1-.53.38h0l-8.22-2.21a4.93,4.93,0,0,0-2.64,0l-3.23.91a25.52,25.52,0,0,1-5.24.19l-2.39-.15c-1.05-.06-1.85,1-2.79,1.42Z" transform="translate(-0.74 -87.22)"/></g></svg>